<svg xmlns="http://www.w3.org/2000/svg" width="24" height="24" viewBox="0 0 24 24"><rect width="24" height="24" fill="none"/><g fill="none" fill-rule="evenodd"><path d="m12.593 23.258l-.011.002l-.071.035l-.02.004l-.014-.004l-.071-.035q-.016-.005-.024.005l-.004.01l-.017.428l.005.02l.01.013l.104.074l.015.004l.012-.004l.104-.074l.012-.016l.004-.017l-.017-.427q-.004-.016-.017-.018m.265-.113l-.013.002l-.185.093l-.01.01l-.003.011l.018.43l.005.012l.008.007l.201.093q.019.005.029-.008l.004-.014l-.034-.614q-.005-.018-.02-.022m-.715.002a.02.02 0 0 0-.027.006l-.006.014l-.034.614q.001.018.017.024l.015-.002l.201-.093l.01-.008l.004-.011l.017-.43l-.003-.012l-.01-.01z"/><path fill="#14b8a6" d="M13.586 2a2 2 0 0 1 1.284.467l.13.119L19.414 7a2 2 0 0 1 .578 1.238l.008.176V20a2 2 0 0 1-1.85 1.995L18 22H6a2 2 0 0 1-1.995-1.85L4 20V4a2 2 0 0 1 1.85-1.995L6 2zm0 2H6v16h3v-2.5a1.5 1.5 0 0 1 1.356-1.493L10.5 16h3a1.5 1.5 0 0 1 1.493 1.356L15 17.5V20h3V8.414zM13 18h-2v2h2zm-2-5a1 1 0 1 1 0 2h-1a1 1 0 1 1 0-2zm3-2a1 1 0 1 1 0 2h-1a1 1 0 1 1 0-2zm-3-2a1 1 0 0 1 .117 1.993L11 11h-1a1 1 0 0 1-.117-1.993L10 9zm3-2a1 1 0 0 1 .117 1.993L14 9h-1a1 1 0 0 1-.117-1.993L13 7z"/></g></svg>