<svg width="32" height="32" viewBox="0 0 32 32" fill="none" xmlns="http://www.w3.org/2000/svg">
<rect width="32" height="32" rx="5.33333" fill="#DAFF99"/>
<path d="M14.3273 9.29964C14.5206 8.97719 14.9878 8.97719 15.1811 9.29964L17.7213 13.5375C17.7634 13.6077 17.8221 13.6664 17.8923 13.7085L22.1301 16.2487C22.4526 16.4419 22.4526 16.9092 22.1301 17.1025L17.8923 19.6427C17.8221 19.6848 17.7634 19.7435 17.7213 19.8137L15.1811 24.0515C14.9878 24.374 14.5206 24.374 14.3273 24.0515L11.7871 19.8137C11.745 19.7435 11.6863 19.6848 11.6161 19.6427L7.37825 17.1025C7.0558 16.9092 7.0558 16.4419 7.37825 16.2487L11.6161 13.7085C11.6863 13.6664 11.745 13.6077 11.7871 13.5375L14.3273 9.29964Z" fill="#2D2D2D"/>
<path d="M22.7374 7.51156C22.7857 7.43094 22.9026 7.43094 22.9509 7.51156L23.7608 8.86276C23.7713 8.88032 23.786 8.895 23.8035 8.90552L25.1548 9.71544C25.2354 9.76376 25.2354 9.88058 25.1548 9.9289L23.8035 10.7388C23.786 10.7493 23.7713 10.764 23.7608 10.7816L22.9509 12.1328C22.9026 12.2134 22.7857 12.2134 22.7374 12.1328L21.9275 10.7816C21.917 10.764 21.9023 10.7493 21.8847 10.7388L20.5335 9.9289C20.4529 9.88058 20.4529 9.76376 20.5335 9.71544L21.8847 8.90552C21.9023 8.895 21.917 8.88032 21.9275 8.86276L22.7374 7.51156Z" fill="#2D2D2D"/>
</svg>
