<svg width="52" height="51" viewBox="0 0 52 51" fill="none" xmlns="http://www.w3.org/2000/svg">
<path d="M25.1186 1.50109C23.3805 0.147773 21.1954 -0.253724 19.1203 0.397437L5.08373 4.80289C2.19204 5.71105 0.248047 8.44236 0.248047 11.6022V42.9894C0.248047 45.2558 1.24465 47.3313 2.98266 48.6825C4.72099 50.036 6.9084 50.4373 8.98111 49.7863L19.4595 46.4967C19.1318 45.366 18.9658 44.1862 18.9658 42.9894V28.735C18.9658 25.7417 20.0093 22.8829 21.9088 20.6899C23.303 19.0744 25.1116 17.8826 27.1329 17.2463L27.8534 17.0309V7.19654C27.8534 4.93006 26.8568 2.85458 25.1185 1.50109H25.1186Z" fill="#1C2AC5"/>
<path d="M51.2479 24.3293V38.5836C51.2479 41.7411 49.3061 44.4749 46.4122 45.3806L32.3756 49.7862C31.7253 49.9917 31.0632 50.0922 30.4081 50.0922C28.9739 50.0922 27.5703 49.6125 26.3771 48.6824C25.832 48.2565 25.3595 47.7645 24.9711 47.2139C24.4986 46.553 24.1453 45.8164 23.923 45.0257C23.9206 45.0257 23.9184 45.0257 23.916 45.0281L23.9206 45.0232C23.7406 44.3746 23.6423 43.6917 23.6423 42.9893V28.7349C23.6423 27.2712 24.0588 25.8983 24.7935 24.7576C25.528 23.6169 26.5807 22.7066 27.8534 22.1656C28.057 22.08 28.2652 22.0015 28.4782 21.9356L30.1953 21.3971L42.515 17.53C44.5899 16.8788 46.7751 17.2803 48.5132 18.6338C50.2516 19.9873 51.248 22.0628 51.248 24.3293H51.2479Z" fill="#3E8AF5"/>
</svg>