<svg xmlns="http://www.w3.org/2000/svg" version="1.1" viewBox="308.71 -11.89 1072.14 1029.4">
<g stroke-width="2.00" fill="none" stroke-linecap="butt">
<path stroke="#7a685d" vector-effect="non-scaling-stroke" d="   M 462.39 270.10   Q 457.54 277.81 456.13 288.28   Q 454.21 302.53 457.60 316.32   A 3.76 3.75 9.9 0 0 459.17 318.55   C 469.65 325.47 479.54 332.19 488.53 339.32   Q 556.97 393.56 590.48 474.77   A 0.28 0.28 0.0 0 0 590.87 474.91   L 604.02 468.36"/>
<path stroke="#807a71" vector-effect="non-scaling-stroke" d="   M 604.02 468.36   Q 608.90 466.30 614.75 463.80   Q 642.73 451.86 671.83 446.17   A 0.51 0.51 0.0 0 0 672.21 445.50   C 654.92 397.27 626.46 352.72 591.23 315.79   C 573.64 297.34 553.16 280.64 530.56 268.94   C 511.90 259.29 477.28 247.00 462.39 270.10"/>
<path stroke="#f9e2ce" vector-effect="non-scaling-stroke" d="   M 604.02 468.36   Q 602.47 461.33 597.60 449.61   Q 571.52 386.80 525.97 340.78   C 510.85 325.51 495.37 310.62 481.09 294.41   Q 471.47 283.47 464.74 271.48   C 464.11 270.35 463.59 270.32 462.39 270.10"/>
<path stroke="#7a685d" vector-effect="non-scaling-stroke" d="   M 506.63 599.09   L 493.70 595.67   A 0.69 0.68 24.1 0 0 492.95 595.95   Q 491.90 597.52 490.14 600.64   C 466.91 641.85 452.99 688.64 447.22 735.67   A 0.25 0.25 0.0 0 0 447.61 735.91   Q 461.58 726.89 475.01 715.87"/>
<path stroke="#807a71" vector-effect="non-scaling-stroke" d="   M 475.01 715.87   L 473.80 730.00"/>
<path stroke="#7a685d" vector-effect="non-scaling-stroke" d="   M 473.80 730.00   Q 473.01 740.80 473.02 753.75   C 473.04 775.21 476.87 799.08 489.21 816.16   Q 498.10 828.45 510.80 839.57   Q 515.35 843.56 522.46 847.79   Q 532.44 853.74 535.84 855.48   A 0.65 0.65 0.0 0 1 535.80 856.65   C 524.19 861.65 511.60 862.91 500.46 855.78   Q 493.45 851.29 486.84 845.56   A 0.54 0.54 0.0 0 0 486.15 845.55   C 462.21 864.83 440.41 887.02 423.28 912.61   A 0.35 0.35 0.0 0 0 423.38 913.09   Q 436.85 921.81 452.11 929.78"/>
<path stroke="#807a71" vector-effect="non-scaling-stroke" d="   M 452.11 929.78   Q 473.38 941.07 496.63 950.61   C 605.05 995.10 729.15 1008.02 842.43 974.38   Q 866.26 967.30 889.62 956.56   A 1.27 1.26 -18.2 0 0 890.33 955.16   Q 885.17 930.27 876.21 905.91"/>
<path stroke="#7a685d" vector-effect="non-scaling-stroke" d="   M 876.21 905.91   Q 872.95 896.83 866.89 882.12   Q 863.79 874.61 860.99 863.33"/>
<path stroke="#807a71" vector-effect="non-scaling-stroke" d="   M 860.99 863.33   Q 905.26 849.84 941.63 820.13   Q 973.06 794.45 991.52 758.14   A 0.24 0.23 88.1 0 0 991.19 757.83   C 964.53 773.83 931.36 773.42 902.83 762.30   Q 882.26 754.28 870.15 739.70   A 0.78 0.77 -33.9 0 0 869.19 739.52   Q 861.46 743.76 855.37 739.49   C 848.47 734.66 852.05 726.51 855.36 720.89   C 859.88 713.22 868.91 701.52 878.70 702.49   C 884.55 703.06 889.75 708.14 888.70 714.50   Q 887.84 719.69 884.14 724.11   A 0.45 0.44 45.6 0 0 884.14 724.68   C 894.17 736.73 906.46 743.93 922.05 747.36   Q 932.95 749.76 942.01 750.04   C 966.99 750.81 989.38 739.69 1001.92 717.68   C 1010.13 703.28 1013.07 686.82 1013.92 670.02   A 1.18 1.18 0.0 0 0 1013.15 668.86   Q 1002.23 664.77 987.25 659.00   C 973.63 653.75 952.75 645.24 948.42 629.45   C 944.41 614.80 950.71 603.18 961.79 593.96   A 0.39 0.39 0.0 0 0 961.60 593.27   C 944.97 590.68 927.81 583.88 915.24 573.07   C 901.32 561.10 891.88 550.14 877.02 534.14   Q 859.19 514.96 837.78 499.83   C 802.17 474.68 759.36 464.07 715.38 465.63   C 665.86 467.39 619.22 483.52 577.98 510.43   A 0.57 0.57 0.0 0 1 577.13 510.12   C 556.96 445.90 515.85 388.61 461.50 349.52   C 440.66 334.52 417.09 321.71 392.25 317.29   C 374.06 314.06 347.71 315.92 338.58 335.35   C 333.26 346.65 332.84 360.55 334.34 372.74   Q 336.60 391.09 342.82 409.19   C 363.71 469.93 406.64 521.54 461.52 554.74   Q 479.83 565.81 499.92 572.35   Q 502.36 573.15 515.30 576.24   Q 520.02 577.36 521.67 578.65   C 530.01 585.19 526.12 599.44 515.47 600.35   Q 514.07 600.47 511.04 599.90   Q 508.50 599.41 506.63 599.09"/>
<path stroke="#f9e2ce" vector-effect="non-scaling-stroke" d="   M 860.99 863.33   Q 832.93 871.73 804.56 876.79   C 798.54 877.86 791.64 878.54 785.85 879.85   Q 783.51 880.37 783.51 881.42   A 1.56 1.54 25.3 0 0 783.89 882.46   Q 785.87 884.76 788.29 885.98   Q 800.49 892.17 815.09 895.62   Q 840.06 901.52 865.46 905.20   Q 867.64 905.52 872.13 906.35   Q 874.79 906.85 876.21 905.91"/>
<path stroke="#f9e2ce" vector-effect="non-scaling-stroke" d="   M 452.11 929.78   Q 458.59 920.64 463.68 914.42   Q 482.59 891.33 505.93 872.73   A 3.15 3.13 34.6 0 1 508.89 872.20   Q 517.99 875.20 526.67 877.08   Q 549.22 881.97 570.98 876.23   C 576.62 874.74 582.11 873.52 585.56 871.20   A 0.64 0.64 0.0 0 0 585.55 870.14   Q 583.41 868.75 582.06 868.17   Q 565.10 860.83 548.09 852.38   Q 536.65 846.71 527.97 841.02   C 510.04 829.28 494.48 812.76 486.10 793.19   C 479.88 778.68 476.22 762.12 475.09 745.50   Q 474.88 742.34 475.14 738.13   A 1.96 1.89 -57.3 0 0 474.95 737.17   Q 474.94 737.15 474.89 737.07   A 2.01 1.96 -60.1 0 1 474.61 735.98   Q 474.70 732.92 473.80 730.00"/>
<path stroke="#f9e2ce" vector-effect="non-scaling-stroke" d="   M 475.01 715.87   Q 477.31 677.88 489.14 640.72   Q 494.49 623.91 499.41 614.17   Q 505.00 603.09 506.63 599.09"/>
<path stroke="#804657" vector-effect="non-scaling-stroke" d="   M 1014.18 645.84   Q 1014.02 632.18 1010.34 618.93   C 1007.99 610.46 1003.32 604.16 993.80 604.09   Q 982.66 604.00 974.66 609.89   C 969.91 613.38 967.16 619.32 970.91 624.66   C 974.38 629.59 982.09 633.37 987.57 635.70   Q 998.36 640.29 1013.88 646.05   A 0.22 0.22 0.0 0 0 1014.18 645.84"/>
<path stroke="#ffc0c8" vector-effect="non-scaling-stroke" d="   M 559.55 559.81   Q 550.91 500.60 516.91 451.80   Q 486.95 408.81 446.94 378.57   C 433.52 368.42 418.05 359.67 402.11 355.21   Q 391.07 352.11 380.87 353.55   C 367.88 355.39 365.21 366.12 365.84 377.26   Q 366.59 390.40 371.48 403.56   C 384.38 438.21 407.11 469.50 433.37 495.38   Q 457.55 519.23 482.77 533.71   Q 502.48 545.04 519.36 551.29   Q 538.20 558.26 558.86 560.53   A 0.63 0.63 0.0 0 0 559.55 559.81"/>
<path stroke="#807a71" vector-effect="non-scaling-stroke" d="   M 739.09 626.00   C 741.40 638.59 758.69 638.41 761.48 625.62   C 763.76 615.18 766.65 603.22 777.32 597.56   C 786.07 592.91 795.37 595.86 802.29 602.49   Q 806.98 606.99 812.08 614.70   C 815.24 619.48 818.83 622.55 824.15 621.88   Q 833.64 620.68 834.78 611.01   C 835.15 607.94 833.59 604.28 832.08 601.47   C 822.02 582.67 803.12 568.74 781.03 571.29   Q 760.06 573.72 749.36 591.64   Q 741.64 604.55 739.26 618.48   Q 738.51 622.85 739.09 626.00"/>
<path stroke="#ffd9d7" vector-effect="non-scaling-stroke" d="   M 696.41 760.58   C 718.00 765.10 740.21 760.47 759.46 749.46   C 782.99 736.00 803.84 708.12 786.51 680.68   C 781.31 672.44 772.07 665.97 763.29 662.64   C 736.83 652.62 708.54 656.94 684.88 672.35   C 671.27 681.22 659.85 694.99 656.98 711.00   C 652.38 736.74 673.09 755.70 696.41 760.58"/>
</g>
<ellipse fill="#abd84c" cx="0.00" cy="0.00" transform="translate(890.46,127.22) rotate(-98.2)" rx="122.87" ry="122.68"/>
<path fill="#abd84c" d="   M 540.53 158.00   C 542.60 137.60 549.48 119.52 561.90 104.11   C 585.01 75.42 623.79 60.65 660.23 68.53   Q 690.20 75.00 710.49 95.56   C 731.18 116.54 741.93 146.11 738.95 175.53   C 736.88 195.93 730.00 214.00 717.58 229.42   C 694.47 258.11 655.69 272.88 619.25 265.00   Q 589.28 258.53 568.99 237.96   C 548.30 216.99 537.55 187.42 540.53 158.00   Z"/>
<path fill="#abd84c" d="   M 1086.42 128.73   Q 1110.87 114.43 1140.46 111.22   C 1204.59 104.26 1267.80 143.67 1288.94 205.14   C 1299.49 235.80 1298.25 271.40 1286.40 301.64   Q 1274.25 332.65 1249.84 354.47   C 1212.92 387.46 1163.33 397.90 1115.97 383.82   C 1069.07 369.89 1033.39 331.96 1020.88 284.84   C 1004.69 223.88 1033.28 159.81 1086.42 128.73   Z"/>
<path fill="#000000" d="   M 449.05 760.90   C 443.14 763.65 434.68 767.10 428.41 764.09   C 420.80 760.43 421.54 752.95 422.24 744.75   C 426.94 689.07 442.53 635.70 469.81 586.88   A 0.18 0.18 0.0 0 0 469.72 586.62   Q 460.33 582.45 451.56 577.44   Q 407.18 552.09 374.02 513.42   C 343.63 477.98 322.92 435.82 311.83 390.40   Q 307.84 374.05 308.96 355.76   C 310.52 330.40 320.86 308.58 344.89 297.89   C 371.75 285.94 405.14 292.65 430.89 304.09   A 0.52 0.52 0.0 0 0 431.62 303.61   Q 431.52 292.49 433.27 281.01   C 436.24 261.59 447.12 245.04 465.00 237.50   C 484.64 229.22 508.29 233.21 527.74 241.13   C 559.83 254.22 587.96 276.26 612.05 301.70   Q 670.03 362.93 697.08 442.54   A 0.59 0.59 0.0 0 0 697.69 442.94   Q 725.01 440.46 751.82 443.17   Q 764.08 444.41 780.22 448.02   C 807.08 454.03 832.17 466.03 854.39 482.16   C 876.18 497.97 894.46 517.55 913.13 538.21   Q 920.02 545.83 929.39 553.96   Q 944.31 566.90 963.35 570.16   Q 977.97 572.66 990.41 575.34   C 1004.15 578.31 1015.00 583.77 1023.82 594.68   C 1032.53 605.46 1035.49 619.61 1037.10 633.46   Q 1037.95 640.72 1038.08 643.20   Q 1041.20 702.88 1018.61 757.15   Q 1001.42 798.44 968.02 829.31   Q 934.52 860.28 892.31 877.45   A 0.86 0.85 -22.8 0 0 891.84 878.59   Q 906.37 911.63 913.04 945.98   C 914.01 950.99 914.40 955.80 912.80 960.84   Q 908.41 974.66 894.75 980.74   C 834.09 1007.78 765.75 1017.90 699.53 1017.50   C 640.02 1017.14 579.27 1005.43 521.65 985.88   C 480.24 971.82 441.35 953.45 404.75 929.53   Q 398.96 925.74 397.17 920.11   C 394.83 912.73 397.18 907.23 401.83 900.53   Q 430.32 859.46 469.22 827.85   A 0.58 0.58 0.0 0 0 469.35 827.09   Q 461.08 813.55 457.42 803.07   Q 451.00 784.74 449.81 761.35   A 0.53 0.53 0.0 0 0 449.05 760.90   Z   M 462.39 270.10   Q 457.54 277.81 456.13 288.28   Q 454.21 302.53 457.60 316.32   A 3.76 3.75 9.9 0 0 459.17 318.55   C 469.65 325.47 479.54 332.19 488.53 339.32   Q 556.97 393.56 590.48 474.77   A 0.28 0.28 0.0 0 0 590.87 474.91   L 604.02 468.36   Q 608.90 466.30 614.75 463.80   Q 642.73 451.86 671.83 446.17   A 0.51 0.51 0.0 0 0 672.21 445.50   C 654.92 397.27 626.46 352.72 591.23 315.79   C 573.64 297.34 553.16 280.64 530.56 268.94   C 511.90 259.29 477.28 247.00 462.39 270.10   Z   M 506.63 599.09   L 493.70 595.67   A 0.69 0.68 24.1 0 0 492.95 595.95   Q 491.90 597.52 490.14 600.64   C 466.91 641.85 452.99 688.64 447.22 735.67   A 0.25 0.25 0.0 0 0 447.61 735.91   Q 461.58 726.89 475.01 715.87   L 473.80 730.00   Q 473.01 740.80 473.02 753.75   C 473.04 775.21 476.87 799.08 489.21 816.16   Q 498.10 828.45 510.80 839.57   Q 515.35 843.56 522.46 847.79   Q 532.44 853.74 535.84 855.48   A 0.65 0.65 0.0 0 1 535.80 856.65   C 524.19 861.65 511.60 862.91 500.46 855.78   Q 493.45 851.29 486.84 845.56   A 0.54 0.54 0.0 0 0 486.15 845.55   C 462.21 864.83 440.41 887.02 423.28 912.61   A 0.35 0.35 0.0 0 0 423.38 913.09   Q 436.85 921.81 452.11 929.78   Q 473.38 941.07 496.63 950.61   C 605.05 995.10 729.15 1008.02 842.43 974.38   Q 866.26 967.30 889.62 956.56   A 1.27 1.26 -18.2 0 0 890.33 955.16   Q 885.17 930.27 876.21 905.91   Q 872.95 896.83 866.89 882.12   Q 863.79 874.61 860.99 863.33   Q 905.26 849.84 941.63 820.13   Q 973.06 794.45 991.52 758.14   A 0.24 0.23 88.1 0 0 991.19 757.83   C 964.53 773.83 931.36 773.42 902.83 762.30   Q 882.26 754.28 870.15 739.70   A 0.78 0.77 -33.9 0 0 869.19 739.52   Q 861.46 743.76 855.37 739.49   C 848.47 734.66 852.05 726.51 855.36 720.89   C 859.88 713.22 868.91 701.52 878.70 702.49   C 884.55 703.06 889.75 708.14 888.70 714.50   Q 887.84 719.69 884.14 724.11   A 0.45 0.44 45.6 0 0 884.14 724.68   C 894.17 736.73 906.46 743.93 922.05 747.36   Q 932.95 749.76 942.01 750.04   C 966.99 750.81 989.38 739.69 1001.92 717.68   C 1010.13 703.28 1013.07 686.82 1013.92 670.02   A 1.18 1.18 0.0 0 0 1013.15 668.86   Q 1002.23 664.77 987.25 659.00   C 973.63 653.75 952.75 645.24 948.42 629.45   C 944.41 614.80 950.71 603.18 961.79 593.96   A 0.39 0.39 0.0 0 0 961.60 593.27   C 944.97 590.68 927.81 583.88 915.24 573.07   C 901.32 561.10 891.88 550.14 877.02 534.14   Q 859.19 514.96 837.78 499.83   C 802.17 474.68 759.36 464.07 715.38 465.63   C 665.86 467.39 619.22 483.52 577.98 510.43   A 0.57 0.57 0.0 0 1 577.13 510.12   C 556.96 445.90 515.85 388.61 461.50 349.52   C 440.66 334.52 417.09 321.71 392.25 317.29   C 374.06 314.06 347.71 315.92 338.58 335.35   C 333.26 346.65 332.84 360.55 334.34 372.74   Q 336.60 391.09 342.82 409.19   C 363.71 469.93 406.64 521.54 461.52 554.74   Q 479.83 565.81 499.92 572.35   Q 502.36 573.15 515.30 576.24   Q 520.02 577.36 521.67 578.65   C 530.01 585.19 526.12 599.44 515.47 600.35   Q 514.07 600.47 511.04 599.90   Q 508.50 599.41 506.63 599.09   Z   M 1014.18 645.84   Q 1014.02 632.18 1010.34 618.93   C 1007.99 610.46 1003.32 604.16 993.80 604.09   Q 982.66 604.00 974.66 609.89   C 969.91 613.38 967.16 619.32 970.91 624.66   C 974.38 629.59 982.09 633.37 987.57 635.70   Q 998.36 640.29 1013.88 646.05   A 0.22 0.22 0.0 0 0 1014.18 645.84   Z"/>
<path fill="#fff3e2" d="   M 604.02 468.36   Q 602.47 461.33 597.60 449.61   Q 571.52 386.80 525.97 340.78   C 510.85 325.51 495.37 310.62 481.09 294.41   Q 471.47 283.47 464.74 271.48   C 464.11 270.35 463.59 270.32 462.39 270.10   C 477.28 247.00 511.90 259.29 530.56 268.94   C 553.16 280.64 573.64 297.34 591.23 315.79   C 626.46 352.72 654.92 397.27 672.21 445.50   A 0.51 0.51 0.0 0 1 671.83 446.17   Q 642.73 451.86 614.75 463.80   Q 608.90 466.30 604.02 468.36   Z"/>
<path fill="#f3d0b9" d="   M 462.39 270.10   C 463.59 270.32 464.11 270.35 464.74 271.48   Q 471.47 283.47 481.09 294.41   C 495.37 310.62 510.85 325.51 525.97 340.78   Q 571.52 386.80 597.60 449.61   Q 602.47 461.33 604.02 468.36   L 590.87 474.91   A 0.28 0.28 0.0 0 1 590.48 474.77   Q 556.97 393.56 488.53 339.32   C 479.54 332.19 469.65 325.47 459.17 318.55   A 3.76 3.75 9.9 0 1 457.60 316.32   Q 454.21 302.53 456.13 288.28   Q 457.54 277.81 462.39 270.10   Z"/>
<path fill="#fff3e2" d="   M 860.99 863.33   Q 832.93 871.73 804.56 876.79   C 798.54 877.86 791.64 878.54 785.85 879.85   Q 783.51 880.37 783.51 881.42   A 1.56 1.54 25.3 0 0 783.89 882.46   Q 785.87 884.76 788.29 885.98   Q 800.49 892.17 815.09 895.62   Q 840.06 901.52 865.46 905.20   Q 867.64 905.52 872.13 906.35   Q 874.79 906.85 876.21 905.91   Q 885.17 930.27 890.33 955.16   A 1.27 1.26 -18.2 0 1 889.62 956.56   Q 866.26 967.30 842.43 974.38   C 729.15 1008.02 605.05 995.10 496.63 950.61   Q 473.38 941.07 452.11 929.78   Q 458.59 920.64 463.68 914.42   Q 482.59 891.33 505.93 872.73   A 3.15 3.13 34.6 0 1 508.89 872.20   Q 517.99 875.20 526.67 877.08   Q 549.22 881.97 570.98 876.23   C 576.62 874.74 582.11 873.52 585.56 871.20   A 0.64 0.64 0.0 0 0 585.55 870.14   Q 583.41 868.75 582.06 868.17   Q 565.10 860.83 548.09 852.38   Q 536.65 846.71 527.97 841.02   C 510.04 829.28 494.48 812.76 486.10 793.19   C 479.88 778.68 476.22 762.12 475.09 745.50   Q 474.88 742.34 475.14 738.13   A 1.96 1.89 -57.3 0 0 474.95 737.17   Q 474.94 737.15 474.89 737.07   A 2.01 1.96 -60.1 0 1 474.61 735.98   Q 474.70 732.92 473.80 730.00   L 475.01 715.87   Q 477.31 677.88 489.14 640.72   Q 494.49 623.91 499.41 614.17   Q 505.00 603.09 506.63 599.09   Q 508.50 599.41 511.04 599.90   Q 514.07 600.47 515.47 600.35   C 526.12 599.44 530.01 585.19 521.67 578.65   Q 520.02 577.36 515.30 576.24   Q 502.36 573.15 499.92 572.35   Q 479.83 565.81 461.52 554.74   C 406.64 521.54 363.71 469.93 342.82 409.19   Q 336.60 391.09 334.34 372.74   C 332.84 360.55 333.26 346.65 338.58 335.35   C 347.71 315.92 374.06 314.06 392.25 317.29   C 417.09 321.71 440.66 334.52 461.50 349.52   C 515.85 388.61 556.96 445.90 577.13 510.12   A 0.57 0.57 0.0 0 0 577.98 510.43   C 619.22 483.52 665.86 467.39 715.38 465.63   C 759.36 464.07 802.17 474.68 837.78 499.83   Q 859.19 514.96 877.02 534.14   C 891.88 550.14 901.32 561.10 915.24 573.07   C 927.81 583.88 944.97 590.68 961.60 593.27   A 0.39 0.39 0.0 0 1 961.79 593.96   C 950.71 603.18 944.41 614.80 948.42 629.45   C 952.75 645.24 973.63 653.75 987.25 659.00   Q 1002.23 664.77 1013.15 668.86   A 1.18 1.18 0.0 0 1 1013.92 670.02   C 1013.07 686.82 1010.13 703.28 1001.92 717.68   C 989.38 739.69 966.99 750.81 942.01 750.04   Q 932.95 749.76 922.05 747.36   C 906.46 743.93 894.17 736.73 884.14 724.68   A 0.45 0.44 45.6 0 1 884.14 724.11   Q 887.84 719.69 888.70 714.50   C 889.75 708.14 884.55 703.06 878.70 702.49   C 868.91 701.52 859.88 713.22 855.36 720.89   C 852.05 726.51 848.47 734.66 855.37 739.49   Q 861.46 743.76 869.19 739.52   A 0.78 0.77 -33.9 0 1 870.15 739.70   Q 882.26 754.28 902.83 762.30   C 931.36 773.42 964.53 773.83 991.19 757.83   A 0.24 0.23 88.1 0 1 991.52 758.14   Q 973.06 794.45 941.63 820.13   Q 905.26 849.84 860.99 863.33   Z   M 559.55 559.81   Q 550.91 500.60 516.91 451.80   Q 486.95 408.81 446.94 378.57   C 433.52 368.42 418.05 359.67 402.11 355.21   Q 391.07 352.11 380.87 353.55   C 367.88 355.39 365.21 366.12 365.84 377.26   Q 366.59 390.40 371.48 403.56   C 384.38 438.21 407.11 469.50 433.37 495.38   Q 457.55 519.23 482.77 533.71   Q 502.48 545.04 519.36 551.29   Q 538.20 558.26 558.86 560.53   A 0.63 0.63 0.0 0 0 559.55 559.81   Z   M 739.09 626.00   C 741.40 638.59 758.69 638.41 761.48 625.62   C 763.76 615.18 766.65 603.22 777.32 597.56   C 786.07 592.91 795.37 595.86 802.29 602.49   Q 806.98 606.99 812.08 614.70   C 815.24 619.48 818.83 622.55 824.15 621.88   Q 833.64 620.68 834.78 611.01   C 835.15 607.94 833.59 604.28 832.08 601.47   C 822.02 582.67 803.12 568.74 781.03 571.29   Q 760.06 573.72 749.36 591.64   Q 741.64 604.55 739.26 618.48   Q 738.51 622.85 739.09 626.00   Z   M 696.41 760.58   C 718.00 765.10 740.21 760.47 759.46 749.46   C 782.99 736.00 803.84 708.12 786.51 680.68   C 781.31 672.44 772.07 665.97 763.29 662.64   C 736.83 652.62 708.54 656.94 684.88 672.35   C 671.27 681.22 659.85 694.99 656.98 711.00   C 652.38 736.74 673.09 755.70 696.41 760.58   Z"/>
<path fill="#ff8cae" d="   M 559.55 559.81   A 0.63 0.63 0.0 0 1 558.86 560.53   Q 538.20 558.26 519.36 551.29   Q 502.48 545.04 482.77 533.71   Q 457.55 519.23 433.37 495.38   C 407.11 469.50 384.38 438.21 371.48 403.56   Q 366.59 390.40 365.84 377.26   C 365.21 366.12 367.88 355.39 380.87 353.55   Q 391.07 352.11 402.11 355.21   C 418.05 359.67 433.52 368.42 446.94 378.57   Q 486.95 408.81 516.91 451.80   Q 550.91 500.60 559.55 559.81   Z"/>
<path fill="#abd84c" d="   M 1367.59 488.36   C 1389.73 532.92 1383.50 586.98 1353.80 626.54   C 1334.20 652.67 1305.60 671.06 1273.27 676.51   Q 1237.22 682.58 1202.57 668.88   Q 1173.98 657.57 1153.53 634.99   C 1121.91 600.08 1110.90 550.58 1125.81 505.40   Q 1138.35 467.40 1170.15 441.83   C 1211.89 408.27 1273.83 406.42 1319.21 434.46   Q 1350.38 453.73 1367.59 488.36   Z"/>
<path fill="#000000" d="   M 761.48 625.62   C 758.69 638.41 741.40 638.59 739.09 626.00   Q 738.51 622.85 739.26 618.48   Q 741.64 604.55 749.36 591.64   Q 760.06 573.72 781.03 571.29   C 803.12 568.74 822.02 582.67 832.08 601.47   C 833.59 604.28 835.15 607.94 834.78 611.01   Q 833.64 620.68 824.15 621.88   C 818.83 622.55 815.24 619.48 812.08 614.70   Q 806.98 606.99 802.29 602.49   C 795.37 595.86 786.07 592.91 777.32 597.56   C 766.65 603.22 763.76 615.18 761.48 625.62   Z"/>
<path fill="#f3d0b9" d="   M 506.63 599.09   Q 505.00 603.09 499.41 614.17   Q 494.49 623.91 489.14 640.72   Q 477.31 677.88 475.01 715.87   Q 461.58 726.89 447.61 735.91   A 0.25 0.25 0.0 0 1 447.22 735.67   C 452.99 688.64 466.91 641.85 490.14 600.64   Q 491.90 597.52 492.95 595.95   A 0.69 0.68 24.1 0 1 493.70 595.67   L 506.63 599.09   Z"/>
<path fill="#ff8cae" d="   M 1014.18 645.84   A 0.22 0.22 0.0 0 1 1013.88 646.05   Q 998.36 640.29 987.57 635.70   C 982.09 633.37 974.38 629.59 970.91 624.66   C 967.16 619.32 969.91 613.38 974.66 609.89   Q 982.66 604.00 993.80 604.09   C 1003.32 604.16 1007.99 610.46 1010.34 618.93   Q 1014.02 632.18 1014.18 645.84   Z"/>
<path fill="#ffbfcc" d="   M 696.41 760.58   C 673.09 755.70 652.38 736.74 656.98 711.00   C 659.85 694.99 671.27 681.22 684.88 672.35   C 708.54 656.94 736.83 652.62 763.29 662.64   C 772.07 665.97 781.31 672.44 786.51 680.68   C 803.84 708.12 782.99 736.00 759.46 749.46   C 740.21 760.47 718.00 765.10 696.41 760.58   Z"/>
<ellipse fill="#abd84c" cx="0.00" cy="0.00" transform="translate(1151.34,779.04) rotate(-88.8)" rx="69.36" ry="69.13"/>
<path fill="#f3d0b9" d="   M 452.11 929.78   Q 436.85 921.81 423.38 913.09   A 0.35 0.35 0.0 0 1 423.28 912.61   C 440.41 887.02 462.21 864.83 486.15 845.55   A 0.54 0.54 0.0 0 1 486.84 845.56   Q 493.45 851.29 500.46 855.78   C 511.60 862.91 524.19 861.65 535.80 856.65   A 0.65 0.65 0.0 0 0 535.84 855.48   Q 532.44 853.74 522.46 847.79   Q 515.35 843.56 510.80 839.57   Q 498.10 828.45 489.21 816.16   C 476.87 799.08 473.04 775.21 473.02 753.75   Q 473.01 740.80 473.80 730.00   Q 474.70 732.92 474.61 735.98   A 2.01 1.96 -60.1 0 0 474.89 737.07   Q 474.94 737.15 474.95 737.17   A 1.96 1.89 -57.3 0 1 475.14 738.13   Q 474.88 742.34 475.09 745.50   C 476.22 762.12 479.88 778.68 486.10 793.19   C 494.48 812.76 510.04 829.28 527.97 841.02   Q 536.65 846.71 548.09 852.38   Q 565.10 860.83 582.06 868.17   Q 583.41 868.75 585.55 870.14   A 0.64 0.64 0.0 0 1 585.56 871.20   C 582.11 873.52 576.62 874.74 570.98 876.23   Q 549.22 881.97 526.67 877.08   Q 517.99 875.20 508.89 872.20   A 3.15 3.13 34.6 0 0 505.93 872.73   Q 482.59 891.33 463.68 914.42   Q 458.59 920.64 452.11 929.78   Z"/>
<ellipse fill="#abd84c" cx="0.00" cy="0.00" transform="translate(1063.10,898.12) rotate(-112.3)" rx="40.67" ry="40.49"/>
<path fill="#f3d0b9" d="   M 860.99 863.33   Q 863.79 874.61 866.89 882.12   Q 872.95 896.83 876.21 905.91   Q 874.79 906.85 872.13 906.35   Q 867.64 905.52 865.46 905.20   Q 840.06 901.52 815.09 895.62   Q 800.49 892.17 788.29 885.98   Q 785.87 884.76 783.89 882.46   A 1.56 1.54 25.3 0 1 783.51 881.42   Q 783.51 880.37 785.85 879.85   C 791.64 878.54 798.54 877.86 804.56 876.79   Q 832.93 871.73 860.99 863.33   Z"/>
<circle fill="#abd84c" cx="983.07" cy="944.65" r="22.25"/>
</svg>