<svg width="530" height="327" viewBox="0 0 530 327" fill="none" xmlns="http://www.w3.org/2000/svg">
<path d="M422.241 193.254C420.224 191.824 418.075 190.535 415.795 189.386C414.68 188.824 413.632 188.329 412.651 187.901C412.614 187.885 412.585 187.855 412.57 187.818C412.555 187.78 412.555 187.739 412.57 187.701C417.714 175.203 425.829 163.68 436.608 155.457C440.792 152.264 445.543 149.591 450.665 148.14C452.769 147.544 454.731 147.307 456.551 147.428C458.421 147.551 459.985 148.512 460.493 150.33C460.986 152.094 460.843 154.286 460.473 156.055C460.428 156.278 460.269 156.449 459.998 156.569C446.468 162.556 435.146 172.523 427.018 184.928C425.098 187.858 423.544 190.623 422.355 193.223C422.351 193.233 422.344 193.243 422.335 193.25C422.326 193.257 422.316 193.263 422.305 193.265C422.294 193.268 422.283 193.269 422.272 193.267C422.26 193.265 422.25 193.26 422.241 193.254Z" stroke="#7A685D" stroke-width="2"/>
<path d="M444.447 249.083C444.088 252.926 443.373 256.792 442.302 260.681C442.299 260.693 442.293 260.704 442.284 260.713C442.275 260.721 442.264 260.727 442.252 260.73C442.241 260.734 442.228 260.734 442.216 260.73C442.204 260.727 442.193 260.721 442.184 260.712L441.534 260.072" stroke="#7A685D" stroke-width="2"/>
<path d="M441.534 260.072C440.456 259.071 439.391 258.054 438.339 257.021C437.748 256.441 437.156 255.984 436.563 255.65C436.53 255.631 436.493 255.621 436.455 255.62C436.417 255.619 436.38 255.628 436.346 255.645C436.312 255.662 436.283 255.687 436.261 255.718C436.239 255.749 436.225 255.785 436.221 255.823C436.144 256.458 436.091 257.169 436.061 257.955C435.887 262.485 434.63 266.859 432.153 270.649C430.187 273.657 427.901 276.243 424.99 278.306C422.906 279.784 420.483 281.028 417.721 282.037C415.754 282.755 413.985 283.307 412.413 283.691C410.229 284.225 408.849 284.566 408.272 284.717C408.046 284.775 407.888 284.85 407.798 284.94C407.726 285.011 407.684 285.108 407.682 285.21C407.68 285.312 407.718 285.41 407.787 285.484C408.409 286.146 409.179 286.57 410.097 286.755C414.746 287.696 419.265 286.366 423.611 284.583C423.651 284.566 423.696 284.564 423.737 284.576C423.779 284.588 423.816 284.614 423.84 284.65C426.229 288.02 428.179 290.79 430.186 293.994C431.746 296.486 433.383 299.202 435.096 302.142C435.112 302.168 435.116 302.2 435.109 302.23C435.102 302.261 435.084 302.287 435.058 302.304C430.478 305.366 425.772 307.46 420.436 309.458C411.817 312.688 402.685 314.881 393.449 315.782C391.055 316.015 388.941 316.161 387.107 316.22C383.407 316.338 379.589 316.219 375.653 315.865C363.246 314.744 351.294 310.965 340.505 304.501C338.778 303.466 337.44 302.666 336.05 301.554C335.996 301.511 335.955 301.453 335.933 301.387C335.911 301.321 335.909 301.25 335.926 301.183C337.238 296.137 338.64 291.221 340.134 286.436C340.44 285.453 341.238 282.967 342.528 278.977C342.949 277.672 343.107 276.25 341.891 275.275C341.836 275.232 340.81 274.474 338.812 273.003C335.773 270.764 332.898 268.279 330.187 265.545C328.009 263.349 326.172 261.2 324.678 259.097C320.152 252.73 317.49 245.618 316.69 237.763C316.534 236.237 316.435 234.798 316.39 233.445C316.39 233.437 316.392 233.429 316.397 233.422C316.401 233.415 316.408 233.409 316.416 233.406C316.423 233.403 316.432 233.403 316.44 233.405C316.448 233.407 316.455 233.412 316.46 233.418C319.156 236.682 323.198 238.709 327.373 239.176C332.043 239.699 336.498 238.988 340.736 237.042C342.6 236.186 345.541 234.473 345.781 232.283C345.961 230.665 344.676 229.52 343.159 229.381C341.303 229.212 340.451 230.155 339.147 231.519C336.342 234.453 330.869 235.177 327.076 234.658C323.266 234.139 319.672 232.063 318.306 228.327C317.838 227.048 317.57 225.687 317.501 224.245C317.37 221.546 317.608 218.791 318.214 215.981C318.268 215.727 318.312 215.568 318.347 215.503C318.391 215.422 318.462 215.358 318.547 215.323C318.632 215.289 318.727 215.285 318.815 215.312C320.124 215.723 321.315 215.654 322.716 215.316C325.277 214.693 327.749 213.846 330.132 212.773C332.347 211.774 334.592 210.45 335.508 208.024C336.001 206.718 336.039 205.353 335.623 203.93C335.619 203.914 335.618 203.898 335.621 203.883C335.623 203.867 335.63 203.852 335.64 203.839C335.649 203.827 335.662 203.817 335.676 203.81C335.69 203.803 335.706 203.799 335.722 203.8C341.344 203.901 347.055 201.702 351.576 198.411C354.048 196.612 355.494 195.571 355.912 195.29C362.259 191.041 369.06 188.448 376.316 187.512C381.768 186.809 387.271 186.822 392.825 187.55C401.39 188.673 410.031 191.466 417.38 196.124C418.514 196.843 419.468 197.523 420.243 198.165C421.419 199.139 423.993 201.601 425.081 199.239C425.551 198.221 426.017 197.217 426.479 196.227C427.631 193.758 429.017 191.248 430.638 188.696C435.517 181.01 441.854 174.057 449.171 168.708C455.911 163.781 463.601 159.791 471.747 157.915C472.77 157.68 473.949 157.54 475.283 157.497C478.352 157.396 480.613 158.47 481.415 161.572C481.837 163.209 482.01 164.986 481.935 166.903C481.591 175.65 478.201 184.237 473.515 191.556C466.494 202.519 456.422 210.908 444.687 216.736C442.553 217.797 440.174 218.797 437.551 219.738C436.896 219.974 436.499 220.413 436.36 221.057C436.222 221.692 436.341 222.614 436.898 223.05C437.802 223.759 439.474 223.425 440.509 223.079C440.536 223.07 440.566 223.072 440.592 223.084C440.619 223.095 440.64 223.116 440.652 223.142C441.146 224.219 441.616 225.433 442.062 226.785C444.424 233.934 445.114 241.542 444.447 249.083" stroke="#807A71" stroke-width="2"/>
<path d="M441.534 260.072C441.607 260.072 441.645 260.05 441.647 260.005C441.651 259.933 441.628 259.87 441.579 259.816C440.862 259.014 439.971 258.331 439.262 257.619C438.285 256.632 437.749 256.021 436.916 255.605C436.845 255.569 436.791 255.507 436.765 255.432C436.74 255.356 436.744 255.274 436.778 255.203C436.999 254.732 437.217 254.183 437.431 253.556C438.759 249.656 439.576 245.687 439.881 241.649C440.32 235.851 440.179 229.682 438.929 223.919C438.922 223.89 438.922 223.859 438.927 223.83C438.932 223.8 438.944 223.772 438.96 223.747C438.977 223.722 438.998 223.7 439.024 223.684C439.049 223.667 439.077 223.656 439.106 223.651L440.29 223.434C440.351 223.423 440.413 223.433 440.468 223.463C440.522 223.493 440.564 223.541 440.588 223.598C440.796 224.103 441.084 224.642 441.239 225.08C442.162 227.727 442.836 230.071 443.262 232.114C443.575 233.619 443.892 235.662 444.214 238.243C444.318 239.088 444.287 239.814 444.39 240.613C444.457 241.144 444.488 241.735 444.485 242.388C444.479 243.916 444.528 245.32 444.381 246.835C444.322 247.45 444.286 248.182 444.271 249.029C444.271 249.087 444.298 249.123 444.352 249.135C444.373 249.14 444.405 249.122 444.447 249.083" stroke="#F9E2CE" stroke-width="2"/>
<path d="M320.083 211.578C319.595 211.189 319.651 210.417 319.767 209.882C320.286 207.529 321.347 205.288 322.596 203.321C323.471 201.94 324.771 200.981 326.444 201.154C328.666 201.383 333.453 203.133 332.411 206.332C332.095 207.3 331.465 208.018 330.519 208.484C329.07 209.201 321.374 212.609 320.083 211.578Z" stroke="#804657" stroke-width="2"/>
<path d="M454.476 173.904C457.747 171.658 461.433 169.658 465.323 168.586C466.994 168.124 468.62 167.978 470.201 168.146C474.014 168.55 474.191 172.338 473.608 175.261C472.875 178.948 471.305 182.592 469.424 185.822C465.299 192.899 459.688 198.799 453.02 203.776C448.085 207.461 442.886 210.58 437.42 213.131C436.185 213.708 435.058 214.152 434.04 214.463C432.879 214.818 431.271 215.026 430.137 214.615C429.174 214.265 429.162 212.191 429.264 211.365C429.787 207.112 431.355 202.863 433.274 199.006C436.434 192.653 440.436 186.912 445.279 181.785C448.085 178.814 451.151 176.187 454.476 173.904Z" stroke="#FFC0C8" stroke-width="2"/>
<path d="M384.136 204.371C388.599 207.783 388.798 213.346 386.808 218.183C385.338 221.749 382.993 224.571 379.77 226.651C375.862 229.172 371.052 230.039 366.737 228.298C363.034 226.804 360.857 223.726 360.794 219.637C360.768 217.931 361.061 216.311 361.675 214.777C363.635 209.864 367.571 205.285 372.561 203.239C376.352 201.684 380.868 201.875 384.136 204.371Z" stroke="#807A71" stroke-width="2"/>
<path d="M365.56 239.111C366.379 236.296 368.65 234.032 371.874 232.818C375.098 231.605 379.01 231.54 382.75 232.639C384.602 233.183 386.356 233.997 387.911 235.033C389.467 236.069 390.794 237.308 391.816 238.678C392.839 240.049 393.537 241.524 393.871 243.02C394.205 244.516 394.168 246.004 393.762 247.398C392.943 250.213 390.672 252.477 387.448 253.691C384.224 254.904 380.312 254.969 376.572 253.87C374.72 253.326 372.966 252.512 371.411 251.476C369.855 250.44 368.528 249.201 367.506 247.831C366.483 246.46 365.785 244.985 365.451 243.489C365.117 241.992 365.154 240.505 365.56 239.111Z" stroke="#FFD9D7" stroke-width="2"/>
<path d="M435.821 258.063C435.854 258.298 435.811 258.68 435.691 259.207C435.664 259.327 435.662 259.563 435.684 259.914C435.69 259.999 435.686 260.084 435.672 260.168C435.484 261.292 435.364 261.99 435.313 262.26C435.132 263.199 434.804 264.392 434.327 265.837C433.52 268.281 432.054 270.649 430.367 272.853C428.071 275.846 425.035 278.436 421.584 280.143C418.817 281.512 415.919 282.525 413.446 283.167C410.376 283.961 408.712 284.396 408.451 284.473C408.096 284.577 407.805 284.726 407.578 284.922C407.538 284.956 407.51 285.001 407.495 285.051C407.48 285.101 407.479 285.154 407.493 285.205C407.99 286.96 411.832 287.355 413.282 287.364C413.987 287.369 415.207 287.238 416.945 286.971C419.064 286.647 420.82 286.036 422.861 285.173C423.153 285.049 423.437 285.004 423.715 285.037C423.757 285.043 423.797 285.056 423.834 285.078C423.871 285.099 423.903 285.128 423.928 285.162C425.02 286.631 426.281 288.439 427.712 290.584C430.205 294.323 432.554 298.133 434.757 302.014C434.774 302.044 434.782 302.08 434.779 302.115C434.775 302.15 434.762 302.183 434.739 302.21C434.588 302.389 434.41 302.541 434.203 302.666C432.615 303.624 431.248 304.423 430.101 305.063C430.055 305.088 430.005 305.104 429.953 305.11C429.9 305.115 429.848 305.11 429.798 305.094C429.748 305.078 429.702 305.053 429.662 305.019C429.622 304.984 429.59 304.942 429.567 304.895C425.887 297.332 419.886 291.062 411.842 288.364C411.229 288.159 410.161 287.887 408.639 287.548C406.299 287.027 403.829 286.459 401.745 285.32C401.475 285.173 401.262 284.992 401.105 284.778C401.058 284.713 401.038 284.631 401.05 284.552C401.062 284.472 401.105 284.399 401.17 284.351C401.302 284.251 401.44 284.174 401.582 284.118C401.94 283.983 402.982 283.677 404.71 283.201C409.56 281.866 414.092 280.042 418.304 277.73C425.04 274.03 430.207 268.813 433.803 262.076C434.457 260.852 435.107 259.511 435.752 258.054C435.756 258.047 435.761 258.041 435.768 258.037C435.774 258.033 435.782 258.032 435.79 258.033C435.797 258.034 435.805 258.037 435.81 258.043C435.816 258.048 435.819 258.055 435.821 258.063Z" stroke="#F9E2CE" stroke-width="2"/>
<path d="M342.992 276.182C343.04 276.192 343.086 276.21 343.131 276.236C347.454 278.708 351.92 280.752 356.527 282.368C356.82 282.471 357.07 282.629 357.275 282.842C357.299 282.867 357.317 282.896 357.327 282.928C357.337 282.96 357.34 282.995 357.336 283.028C357.331 283.062 357.319 283.094 357.3 283.123C357.281 283.151 357.256 283.175 357.227 283.192C357.039 283.303 356.83 283.398 356.599 283.479C354.467 284.22 352.467 284.709 350.597 284.947C349.275 285.114 347.691 285.243 345.844 285.335C343.954 285.428 342.362 285.428 341.068 285.335C341.025 285.332 340.984 285.318 340.947 285.296C340.911 285.274 340.879 285.244 340.856 285.208C340.833 285.172 340.819 285.131 340.814 285.088C340.809 285.045 340.815 285.002 340.83 284.962C341.018 284.455 341.116 284.189 341.124 284.165C341.729 282.214 342.296 280.407 342.826 278.744C343.092 277.909 343.123 277.081 342.917 276.259C342.914 276.249 342.914 276.237 342.917 276.227C342.92 276.216 342.925 276.207 342.933 276.199C342.94 276.191 342.95 276.185 342.96 276.182C342.971 276.179 342.982 276.179 342.992 276.182Z" stroke="#F9E2CE" stroke-width="2"/>
<path d="M379.735 209.113C379.758 209.537 379.694 209.962 379.548 210.363C379.402 210.764 379.175 211.134 378.882 211.45C378.589 211.767 378.234 212.025 377.839 212.21C377.443 212.394 377.014 212.501 376.576 212.525C375.693 212.573 374.826 212.279 374.169 211.707C373.511 211.135 373.116 210.333 373.07 209.476C373.047 209.052 373.11 208.627 373.257 208.226C373.403 207.825 373.629 207.456 373.923 207.139C374.216 206.822 374.571 206.564 374.966 206.38C375.362 206.195 375.791 206.088 376.228 206.065C377.112 206.016 377.978 206.311 378.636 206.882C379.293 207.454 379.689 208.257 379.735 209.113Z" stroke="#808080" stroke-width="2"/>
<path d="M449.721 241.656L449.698 240.755C449.634 239.897 449.56 239.021 449.478 238.126C448.965 232.511 447.707 227.097 445.706 221.883C445.692 221.846 445.693 221.805 445.708 221.769C445.724 221.733 445.752 221.704 445.788 221.688C447.596 220.91 449.283 220.077 450.848 219.19C456.064 216.235 460.648 213.032 464.6 209.581C471.591 203.481 477.315 196.207 481.336 187.835C481.639 187.206 482.171 186.013 482.934 184.254C483.301 183.408 483.616 182.518 483.879 181.583C484.389 179.783 484.64 178.889 485.09 177.701C485.258 177.258 485.365 176.864 485.409 176.519C485.515 175.709 485.688 174.756 485.926 173.661C486.185 172.468 486.351 171.577 486.424 170.99C486.563 169.885 486.683 168.986 486.785 168.296C486.795 168.22 486.812 167.378 486.835 165.771C486.848 164.828 486.788 163.99 486.654 163.257C486.387 161.793 486.112 160.679 485.829 159.912C485.101 157.942 484.241 155.576 482.444 154.273C480.742 153.04 478.66 152.458 476.544 152.406C474.427 152.354 472.28 152.612 470.106 153.179C468.732 153.537 467.299 153.955 465.809 154.433C465.791 154.439 465.773 154.439 465.755 154.434C465.738 154.429 465.722 154.419 465.71 154.406C465.698 154.392 465.69 154.375 465.687 154.357C465.684 154.339 465.686 154.32 465.694 154.304C465.752 154.174 465.783 154.032 465.785 153.877C465.866 150.364 465.412 147.216 462.729 144.799C460.556 142.844 457.647 142.199 454.811 142.323C453.049 142.401 451.386 142.646 449.824 143.056C445.596 144.165 441.531 145.969 437.63 148.468C431.724 152.253 426.622 156.989 422.077 162.388C416.124 169.461 411.429 177.274 407.99 185.827C407.972 185.871 407.939 185.906 407.896 185.926C407.853 185.945 407.803 185.947 407.759 185.932C400.941 183.569 393.924 182.254 386.706 181.985C383.48 181.866 380.372 181.959 377.381 182.264C368.904 183.133 361.118 185.851 354.022 190.419C352.126 191.641 350.008 193.275 348.218 194.546C347.954 194.733 347.359 195.113 346.432 195.685C343.279 197.631 339.934 198.635 336.396 198.696C335.669 198.709 334.89 198.579 334.057 198.305C331.665 197.521 329.857 196.78 327.75 196.429C325.481 196.049 323.449 196.456 321.656 197.649C320.433 198.462 319.351 199.58 318.41 201.001C316.991 203.143 315.839 205.516 314.954 208.118C312.577 215.101 311.65 222.391 311.399 229.839C311.298 232.876 311.389 235.893 311.674 238.89C311.714 239.32 311.832 240.175 312.027 241.454C313.385 250.368 317.24 258.456 323.006 265.282C325.101 267.76 327.022 269.836 329.508 272.02C331.916 274.137 334.494 276.201 337.244 278.211C337.311 278.26 337.361 278.329 337.385 278.408C337.41 278.488 337.408 278.573 337.381 278.651C334.886 285.719 333.541 290.858 330.738 300.792C330.25 302.522 331.08 303.706 332.32 304.807C333.1 305.5 333.766 306.048 334.316 306.449C338.332 309.384 342.663 311.867 347.309 313.897C359.192 319.089 372.118 321.448 385.073 321.383C390.205 321.357 395.457 320.895 400.831 319.999C408.556 318.711 416.123 316.656 423.532 313.834C427.083 312.481 430.464 310.907 433.674 309.111C435.876 307.88 438.066 306.505 439.755 304.641C440.935 303.342 440.579 301.949 439.888 300.473C439.623 299.908 439.205 299.125 438.636 298.123C435.486 292.576 432.048 287.279 428.322 282.231C428.305 282.208 428.292 282.18 428.285 282.151C428.278 282.123 428.277 282.093 428.281 282.063C428.286 282.034 428.296 282.006 428.312 281.98C428.328 281.955 428.348 281.933 428.372 281.916C433.778 278.095 437.627 272.781 439.493 266.414C439.801 265.364 439.963 264.821 439.981 264.787C439.987 264.776 439.995 264.766 440.004 264.759C440.014 264.751 440.025 264.746 440.037 264.744C440.049 264.742 440.062 264.742 440.073 264.746C440.085 264.749 440.096 264.755 440.105 264.763C440.378 265.009 441.107 265.474 442.293 266.158C443.269 266.722 444.61 267.016 445.501 266.264C445.92 265.91 446.208 265.522 446.366 265.102C446.802 263.94 447.168 262.759 447.462 261.559C448.563 257.069 449.283 252.473 449.623 247.771C449.686 246.893 449.677 246.003 449.754 245.01C449.819 244.168 449.825 243.424 449.772 242.779C449.726 242.238 449.709 241.864 449.721 241.656ZM422.241 193.254C420.224 191.824 418.075 190.535 415.795 189.386C414.68 188.824 413.632 188.329 412.651 187.901C412.614 187.885 412.585 187.855 412.57 187.818C412.555 187.78 412.555 187.739 412.57 187.701C417.714 175.203 425.829 163.68 436.608 155.457C440.792 152.264 445.543 149.591 450.665 148.14C452.769 147.544 454.731 147.307 456.551 147.428C458.421 147.551 459.985 148.512 460.493 150.33C460.986 152.094 460.843 154.286 460.473 156.055C460.428 156.278 460.269 156.449 459.998 156.569C446.468 162.556 435.146 172.523 427.018 184.928C425.098 187.858 423.544 190.623 422.355 193.223C422.351 193.233 422.344 193.243 422.335 193.25C422.326 193.257 422.316 193.263 422.305 193.265C422.294 193.268 422.283 193.269 422.272 193.267C422.26 193.265 422.25 193.26 422.241 193.254ZM444.447 249.083C444.088 252.926 443.373 256.792 442.302 260.681C442.299 260.693 442.293 260.704 442.284 260.713C442.275 260.721 442.264 260.727 442.252 260.73C442.24 260.734 442.228 260.733 442.216 260.73C442.204 260.727 442.193 260.721 442.184 260.712L441.534 260.072C440.456 259.071 439.391 258.054 438.339 257.021C437.748 256.441 437.156 255.984 436.563 255.65C436.53 255.631 436.493 255.621 436.455 255.62C436.417 255.619 436.38 255.628 436.346 255.645C436.312 255.662 436.283 255.687 436.261 255.718C436.239 255.749 436.225 255.785 436.22 255.823C436.144 256.458 436.091 257.169 436.061 257.955C435.887 262.485 434.63 266.859 432.153 270.649C430.187 273.657 427.901 276.243 424.99 278.306C422.906 279.784 420.483 281.028 417.721 282.037C415.754 282.755 413.985 283.307 412.413 283.691C410.229 284.225 408.849 284.566 408.272 284.717C408.046 284.775 407.888 284.85 407.798 284.94C407.726 285.011 407.684 285.108 407.682 285.21C407.68 285.312 407.718 285.41 407.787 285.484C408.409 286.146 409.179 286.57 410.097 286.755C414.746 287.696 419.265 286.366 423.611 284.583C423.651 284.566 423.696 284.564 423.737 284.576C423.779 284.588 423.815 284.614 423.84 284.65C426.229 288.02 428.179 290.79 430.186 293.994C431.746 296.486 433.383 299.202 435.096 302.142C435.112 302.168 435.116 302.2 435.109 302.23C435.102 302.261 435.084 302.287 435.058 302.304C430.478 305.366 425.772 307.46 420.436 309.458C411.817 312.688 402.685 314.881 393.449 315.782C391.055 316.015 388.941 316.161 387.107 316.22C383.407 316.338 379.589 316.219 375.653 315.865C363.246 314.744 351.294 310.965 340.505 304.501C338.778 303.466 337.44 302.666 336.05 301.554C335.996 301.511 335.955 301.453 335.933 301.387C335.911 301.321 335.909 301.25 335.926 301.183C337.238 296.137 338.64 291.221 340.134 286.436C340.44 285.453 341.238 282.967 342.528 278.977C342.949 277.672 343.107 276.25 341.891 275.275C341.836 275.232 340.81 274.474 338.812 273.003C335.773 270.764 332.898 268.279 330.187 265.545C328.009 263.349 326.172 261.2 324.678 259.097C320.152 252.73 317.49 245.618 316.69 237.763C316.534 236.237 316.435 234.798 316.39 233.445C316.39 233.437 316.392 233.429 316.397 233.422C316.401 233.415 316.408 233.409 316.416 233.406C316.423 233.403 316.432 233.403 316.44 233.405C316.448 233.407 316.455 233.412 316.46 233.418C319.156 236.682 323.198 238.709 327.373 239.176C332.043 239.699 336.498 238.988 340.736 237.042C342.6 236.186 345.541 234.473 345.781 232.283C345.96 230.665 344.676 229.52 343.159 229.381C341.303 229.212 340.451 230.155 339.147 231.519C336.342 234.453 330.869 235.177 327.076 234.658C323.266 234.139 319.672 232.063 318.306 228.327C317.838 227.048 317.57 225.687 317.5 224.245C317.37 221.546 317.608 218.791 318.214 215.981C318.268 215.727 318.312 215.568 318.347 215.503C318.391 215.422 318.462 215.358 318.547 215.323C318.632 215.289 318.727 215.285 318.815 215.312C320.124 215.723 321.315 215.654 322.716 215.316C325.277 214.693 327.749 213.846 330.132 212.773C332.347 211.774 334.592 210.45 335.508 208.024C336.001 206.718 336.039 205.353 335.623 203.93C335.619 203.914 335.618 203.898 335.621 203.883C335.623 203.867 335.63 203.852 335.64 203.84C335.649 203.827 335.662 203.817 335.676 203.81C335.69 203.803 335.706 203.799 335.722 203.8C341.344 203.901 347.054 201.702 351.576 198.411C354.048 196.612 355.494 195.571 355.912 195.29C362.259 191.041 369.06 188.448 376.316 187.512C381.768 186.809 387.271 186.822 392.825 187.55C401.39 188.673 410.031 191.466 417.38 196.124C418.514 196.843 419.468 197.523 420.243 198.165C421.419 199.14 423.993 201.601 425.081 199.239C425.551 198.221 426.017 197.217 426.479 196.227C427.631 193.758 429.017 191.248 430.638 188.696C435.517 181.01 441.854 174.057 449.171 168.708C455.911 163.781 463.601 159.791 471.747 157.915C472.77 157.68 473.949 157.54 475.283 157.497C478.352 157.396 480.613 158.47 481.415 161.572C481.837 163.209 482.01 164.986 481.935 166.903C481.591 175.65 478.201 184.237 473.515 191.556C466.494 202.519 456.422 210.908 444.687 216.736C442.553 217.797 440.174 218.797 437.551 219.738C436.896 219.974 436.499 220.413 436.36 221.057C436.222 221.692 436.341 222.614 436.898 223.05C437.802 223.759 439.474 223.425 440.509 223.079C440.536 223.07 440.566 223.072 440.592 223.084C440.619 223.095 440.64 223.116 440.652 223.142C441.146 224.219 441.616 225.433 442.062 226.785C444.424 233.934 445.114 241.542 444.447 249.083ZM320.083 211.578C319.595 211.189 319.651 210.417 319.767 209.882C320.286 207.529 321.347 205.288 322.596 203.32C323.471 201.94 324.771 200.981 326.444 201.154C328.666 201.383 333.453 203.133 332.411 206.332C332.095 207.3 331.465 208.018 330.519 208.484C329.07 209.201 321.374 212.609 320.083 211.578Z" fill="black"/>
<path d="M422.355 193.223C423.544 190.623 425.098 187.858 427.018 184.928C435.146 172.523 446.468 162.556 459.998 156.569C460.269 156.449 460.428 156.278 460.473 156.055C460.843 154.286 460.986 152.094 460.493 150.33C459.985 148.512 458.421 147.551 456.551 147.428C454.731 147.307 452.769 147.544 450.665 148.14C445.543 149.591 440.792 152.264 436.608 155.457C425.829 163.68 417.714 175.203 412.57 187.701C412.555 187.739 412.555 187.78 412.57 187.818C412.585 187.855 412.614 187.885 412.651 187.901C413.632 188.329 414.68 188.824 415.795 189.386C418.075 190.535 420.224 191.824 422.241 193.254C422.25 193.26 422.26 193.265 422.272 193.267C422.283 193.269 422.294 193.268 422.305 193.265C422.316 193.263 422.326 193.257 422.335 193.25C422.344 193.243 422.351 193.233 422.355 193.223Z" fill="#F3D0B9"/>
<path d="M441.534 260.072C441.607 260.072 441.645 260.05 441.647 260.005C441.651 259.933 441.628 259.87 441.579 259.816C440.862 259.014 439.971 258.331 439.262 257.619C438.285 256.632 437.749 256.021 436.916 255.605C436.845 255.569 436.791 255.507 436.765 255.432C436.74 255.356 436.744 255.274 436.778 255.203C436.999 254.732 437.217 254.183 437.431 253.556C438.759 249.656 439.576 245.687 439.881 241.649C440.32 235.851 440.179 229.682 438.929 223.919C438.922 223.89 438.922 223.859 438.927 223.83C438.932 223.8 438.944 223.772 438.96 223.747C438.977 223.722 438.998 223.7 439.024 223.684C439.049 223.667 439.077 223.656 439.106 223.651L440.29 223.434C440.351 223.423 440.413 223.433 440.468 223.463C440.522 223.493 440.564 223.541 440.588 223.598C440.796 224.103 441.084 224.642 441.239 225.08C442.162 227.726 442.836 230.071 443.262 232.114C443.575 233.619 443.892 235.662 444.214 238.243C444.318 239.088 444.287 239.814 444.39 240.612C444.457 241.144 444.488 241.735 444.485 242.388C444.479 243.916 444.528 245.32 444.381 246.835C444.322 247.45 444.286 248.182 444.271 249.029C444.271 249.087 444.298 249.123 444.352 249.135C444.373 249.14 444.405 249.122 444.447 249.083C445.114 241.542 444.424 233.934 442.062 226.785C441.616 225.433 441.146 224.219 440.652 223.142C440.64 223.116 440.619 223.095 440.592 223.084C440.566 223.072 440.536 223.07 440.509 223.079C439.474 223.425 437.802 223.759 436.898 223.051C436.341 222.614 436.222 221.692 436.36 221.057C436.499 220.413 436.896 219.974 437.551 219.738C440.174 218.797 442.553 217.797 444.687 216.736C456.422 210.908 466.494 202.519 473.515 191.556C478.201 184.237 481.591 175.65 481.935 166.903C482.01 164.986 481.837 163.209 481.415 161.572C480.613 158.47 478.352 157.396 475.283 157.497C473.949 157.54 472.77 157.68 471.747 157.915C463.601 159.791 455.911 163.781 449.171 168.708C441.854 174.057 435.517 181.01 430.638 188.696C429.017 191.248 427.631 193.758 426.479 196.227C426.017 197.217 425.551 198.221 425.081 199.239C423.993 201.601 421.419 199.14 420.243 198.165C419.468 197.523 418.514 196.843 417.38 196.125C410.031 191.466 401.39 188.673 392.825 187.55C387.271 186.822 381.768 186.809 376.316 187.512C369.06 188.448 362.259 191.041 355.912 195.29C355.494 195.571 354.048 196.612 351.576 198.411C347.055 201.702 341.344 203.901 335.722 203.8C335.706 203.8 335.69 203.803 335.676 203.81C335.662 203.817 335.649 203.827 335.64 203.84C335.63 203.852 335.623 203.867 335.621 203.883C335.618 203.898 335.619 203.914 335.623 203.93C336.039 205.353 336.001 206.718 335.508 208.024C334.592 210.45 332.347 211.774 330.132 212.773C327.749 213.846 325.277 214.693 322.716 215.316C321.315 215.654 320.124 215.723 318.815 215.312C318.727 215.285 318.632 215.289 318.547 215.323C318.462 215.358 318.391 215.422 318.347 215.503C318.312 215.568 318.268 215.727 318.214 215.981C317.608 218.791 317.37 221.546 317.501 224.245C317.57 225.687 317.838 227.048 318.306 228.327C319.672 232.063 323.266 234.139 327.076 234.658C330.869 235.177 336.342 234.453 339.147 231.519C340.451 230.155 341.303 229.212 343.159 229.381C344.676 229.52 345.961 230.665 345.781 232.283C345.541 234.473 342.6 236.186 340.736 237.042C336.498 238.988 332.043 239.699 327.373 239.176C323.198 238.709 319.156 236.682 316.46 233.418C316.455 233.412 316.448 233.407 316.44 233.405C316.432 233.403 316.423 233.403 316.416 233.406C316.408 233.409 316.401 233.415 316.397 233.422C316.392 233.429 316.39 233.437 316.39 233.445C316.435 234.798 316.534 236.237 316.69 237.763C317.49 245.618 320.152 252.73 324.678 259.097C326.172 261.2 328.009 263.349 330.187 265.545C332.898 268.279 335.773 270.764 338.812 273.003C340.81 274.474 341.836 275.232 341.891 275.275C343.107 276.25 342.949 277.672 342.528 278.977C341.238 282.967 340.44 285.453 340.134 286.436C338.64 291.221 337.238 296.137 335.926 301.183C335.909 301.25 335.911 301.321 335.933 301.387C335.955 301.453 335.996 301.511 336.05 301.554C337.44 302.666 338.778 303.466 340.505 304.501C351.294 310.965 363.246 314.744 375.653 315.865C379.589 316.219 383.407 316.338 387.107 316.22C388.941 316.161 391.055 316.015 393.449 315.782C402.685 314.881 411.817 312.688 420.436 309.458C425.772 307.46 430.478 305.366 435.058 302.304C435.084 302.287 435.102 302.261 435.109 302.23C435.116 302.2 435.112 302.168 435.096 302.142C433.383 299.202 431.746 296.486 430.186 293.994C428.179 290.79 426.229 288.02 423.84 284.65C423.816 284.614 423.779 284.588 423.737 284.576C423.696 284.564 423.651 284.566 423.611 284.583C419.265 286.366 414.746 287.696 410.097 286.755C409.179 286.57 408.409 286.146 407.787 285.484C407.718 285.41 407.68 285.312 407.682 285.21C407.684 285.108 407.726 285.011 407.798 284.94C407.888 284.85 408.046 284.776 408.272 284.717C408.849 284.566 410.229 284.225 412.413 283.691C413.985 283.307 415.754 282.755 417.721 282.037C420.483 281.028 422.906 279.784 424.99 278.306C427.901 276.243 430.187 273.657 432.153 270.649C434.63 266.859 435.887 262.485 436.061 257.955C436.091 257.169 436.144 256.458 436.221 255.823C436.225 255.785 436.239 255.749 436.261 255.718C436.283 255.687 436.312 255.662 436.346 255.645C436.38 255.628 436.417 255.619 436.455 255.62C436.493 255.621 436.53 255.631 436.563 255.65C437.156 255.984 437.748 256.441 438.339 257.021C439.391 258.054 440.456 259.071 441.534 260.072ZM454.476 173.904C457.747 171.658 461.433 169.658 465.323 168.586C466.994 168.124 468.62 167.978 470.201 168.146C474.014 168.55 474.191 172.338 473.608 175.261C472.875 178.948 471.305 182.592 469.424 185.822C465.299 192.899 459.688 198.799 453.02 203.776C448.085 207.461 442.886 210.58 437.42 213.131C436.185 213.708 435.058 214.152 434.04 214.463C432.879 214.818 431.271 215.026 430.137 214.615C429.174 214.265 429.162 212.191 429.264 211.365C429.787 207.112 431.355 202.863 433.274 199.006C436.434 192.653 440.436 186.912 445.279 181.785C448.085 178.814 451.151 176.187 454.476 173.904ZM384.136 204.371C388.599 207.783 388.799 213.346 386.808 218.183C385.338 221.749 382.993 224.572 379.77 226.651C375.862 229.172 371.052 230.039 366.737 228.298C363.034 226.804 360.857 223.726 360.794 219.637C360.768 217.931 361.061 216.311 361.675 214.777C363.635 209.864 367.571 205.285 372.561 203.239C376.352 201.684 380.868 201.875 384.136 204.371ZM365.56 239.111C366.379 236.296 368.65 234.032 371.874 232.818C375.098 231.605 379.01 231.54 382.75 232.639C384.602 233.183 386.356 233.997 387.911 235.033C389.467 236.069 390.794 237.308 391.816 238.678C392.839 240.049 393.537 241.524 393.871 243.02C394.205 244.516 394.168 246.004 393.762 247.398C392.943 250.213 390.672 252.477 387.448 253.691C384.224 254.904 380.312 254.969 376.572 253.87C374.72 253.326 372.966 252.512 371.411 251.476C369.855 250.44 368.528 249.201 367.506 247.831C366.483 246.46 365.785 244.985 365.451 243.489C365.117 241.992 365.154 240.505 365.56 239.111ZM435.821 258.063C435.854 258.298 435.811 258.68 435.691 259.207C435.664 259.327 435.662 259.563 435.684 259.914C435.69 259.999 435.686 260.084 435.672 260.168C435.484 261.292 435.364 261.99 435.313 262.26C435.132 263.2 434.804 264.392 434.327 265.837C433.52 268.281 432.054 270.649 430.367 272.853C428.071 275.846 425.035 278.436 421.584 280.143C418.817 281.512 415.919 282.525 413.446 283.167C410.377 283.961 408.712 284.396 408.451 284.473C408.096 284.577 407.805 284.726 407.578 284.922C407.538 284.956 407.51 285.001 407.495 285.051C407.48 285.101 407.479 285.154 407.493 285.205C407.99 286.96 411.832 287.355 413.282 287.364C413.987 287.369 415.207 287.238 416.945 286.971C419.065 286.647 420.82 286.036 422.861 285.173C423.153 285.049 423.438 285.004 423.715 285.037C423.757 285.043 423.797 285.056 423.834 285.078C423.871 285.099 423.903 285.128 423.928 285.162C425.02 286.631 426.281 288.439 427.712 290.584C430.205 294.323 432.554 298.133 434.757 302.014C434.774 302.044 434.782 302.08 434.779 302.115C434.775 302.15 434.762 302.183 434.739 302.21C434.588 302.389 434.41 302.541 434.203 302.666C432.615 303.624 431.248 304.423 430.101 305.063C430.055 305.088 430.005 305.104 429.953 305.11C429.9 305.115 429.848 305.11 429.798 305.094C429.748 305.078 429.702 305.053 429.662 305.019C429.622 304.984 429.59 304.942 429.567 304.895C425.887 297.332 419.886 291.062 411.842 288.364C411.229 288.159 410.161 287.887 408.639 287.548C406.299 287.027 403.829 286.459 401.745 285.32C401.475 285.173 401.262 284.992 401.105 284.778C401.058 284.713 401.038 284.631 401.05 284.552C401.062 284.472 401.105 284.399 401.17 284.351C401.302 284.251 401.44 284.174 401.582 284.118C401.94 283.983 402.982 283.677 404.71 283.201C409.561 281.866 414.092 280.042 418.304 277.73C425.04 274.03 430.207 268.813 433.803 262.076C434.457 260.852 435.107 259.511 435.752 258.054C435.756 258.047 435.761 258.041 435.768 258.037C435.774 258.033 435.782 258.032 435.79 258.033C435.797 258.034 435.805 258.037 435.81 258.043C435.816 258.048 435.819 258.055 435.821 258.063ZM342.992 276.182C343.04 276.192 343.086 276.21 343.13 276.236C347.454 278.708 351.92 280.752 356.527 282.368C356.82 282.471 357.07 282.629 357.275 282.842C357.299 282.867 357.316 282.896 357.327 282.928C357.337 282.96 357.34 282.995 357.336 283.028C357.331 283.062 357.319 283.094 357.3 283.123C357.281 283.151 357.256 283.175 357.227 283.192C357.039 283.303 356.83 283.398 356.599 283.479C354.467 284.22 352.467 284.709 350.597 284.947C349.275 285.114 347.691 285.243 345.844 285.335C343.954 285.428 342.362 285.428 341.068 285.335C341.025 285.332 340.984 285.318 340.947 285.296C340.91 285.274 340.879 285.244 340.856 285.208C340.833 285.172 340.819 285.131 340.814 285.088C340.809 285.045 340.815 285.002 340.83 284.962C341.018 284.455 341.116 284.189 341.124 284.165C341.729 282.214 342.296 280.407 342.826 278.744C343.092 277.909 343.123 277.081 342.917 276.259C342.914 276.249 342.914 276.237 342.917 276.227C342.92 276.216 342.925 276.207 342.933 276.199C342.94 276.191 342.95 276.185 342.96 276.182C342.971 276.179 342.982 276.179 342.992 276.182Z" fill="#FFF3E2"/>
<path d="M454.476 173.904C451.151 176.187 448.085 178.814 445.279 181.785C440.436 186.912 436.434 192.653 433.274 199.006C431.355 202.863 429.787 207.112 429.264 211.365C429.162 212.191 429.174 214.265 430.137 214.615C431.271 215.026 432.879 214.818 434.04 214.463C435.058 214.152 436.185 213.708 437.42 213.131C442.886 210.58 448.085 207.461 453.02 203.776C459.688 198.799 465.299 192.899 469.424 185.822C471.305 182.592 472.875 178.948 473.608 175.261C474.191 172.338 474.014 168.55 470.201 168.146C468.62 167.978 466.994 168.124 465.323 168.586C461.433 169.658 457.747 171.658 454.476 173.904Z" fill="#FF8CAE"/>
<path d="M320.083 211.578C321.374 212.609 329.07 209.201 330.519 208.484C331.465 208.018 332.095 207.3 332.411 206.332C333.453 203.133 328.666 201.383 326.444 201.154C324.771 200.981 323.471 201.94 322.596 203.321C321.347 205.288 320.286 207.529 319.767 209.882C319.651 210.417 319.595 211.189 320.083 211.578Z" fill="#FF8CAE"/>
<path d="M384.136 204.371C380.868 201.875 376.352 201.684 372.561 203.239C367.571 205.285 363.635 209.864 361.675 214.777C361.061 216.311 360.768 217.931 360.794 219.637C360.857 223.726 363.034 226.804 366.737 228.298C371.052 230.039 375.862 229.172 379.77 226.651C382.993 224.572 385.338 221.749 386.808 218.183C388.798 213.346 388.599 207.783 384.136 204.371ZM379.735 209.113C379.758 209.537 379.694 209.962 379.548 210.363C379.402 210.764 379.175 211.134 378.882 211.45C378.589 211.767 378.234 212.025 377.838 212.21C377.443 212.394 377.014 212.501 376.576 212.525C375.692 212.573 374.826 212.279 374.169 211.707C373.511 211.135 373.116 210.333 373.07 209.476C373.047 209.052 373.11 208.627 373.257 208.226C373.403 207.825 373.629 207.456 373.923 207.139C374.216 206.822 374.57 206.564 374.966 206.38C375.362 206.196 375.791 206.088 376.228 206.065C377.112 206.016 377.978 206.311 378.636 206.882C379.293 207.454 379.689 208.257 379.735 209.113Z" fill="black"/>
<path d="M376.228 206.065C378.069 205.964 379.639 207.329 379.735 209.113C379.831 210.897 378.417 212.425 376.576 212.525C374.736 212.625 373.166 211.26 373.07 209.476C372.973 207.692 374.388 206.165 376.228 206.065Z" fill="white"/>
<path d="M441.534 260.072L442.184 260.712C442.193 260.721 442.204 260.727 442.216 260.73C442.228 260.733 442.24 260.734 442.252 260.73C442.264 260.727 442.275 260.721 442.284 260.713C442.293 260.704 442.299 260.693 442.302 260.681C443.373 256.792 444.088 252.926 444.447 249.083C444.405 249.122 444.373 249.14 444.352 249.135C444.298 249.123 444.271 249.087 444.271 249.029C444.286 248.182 444.322 247.45 444.381 246.835C444.528 245.32 444.479 243.916 444.485 242.388C444.488 241.735 444.457 241.144 444.39 240.613C444.287 239.814 444.318 239.088 444.214 238.243C443.892 235.662 443.575 233.619 443.262 232.114C442.836 230.071 442.162 227.727 441.239 225.08C441.084 224.642 440.796 224.103 440.588 223.598C440.564 223.541 440.522 223.493 440.468 223.463C440.413 223.433 440.351 223.423 440.29 223.434L439.106 223.651C439.077 223.656 439.049 223.667 439.024 223.684C438.998 223.7 438.977 223.722 438.96 223.747C438.944 223.772 438.932 223.8 438.927 223.83C438.922 223.859 438.922 223.89 438.929 223.919C440.179 229.682 440.32 235.851 439.881 241.649C439.576 245.687 438.759 249.656 437.431 253.556C437.217 254.183 436.999 254.732 436.778 255.203C436.744 255.274 436.74 255.356 436.765 255.432C436.791 255.507 436.845 255.569 436.916 255.605C437.749 256.021 438.285 256.632 439.262 257.619C439.971 258.331 440.862 259.014 441.579 259.816C441.628 259.87 441.651 259.933 441.647 260.005C441.645 260.05 441.607 260.072 441.534 260.072Z" fill="#F3D0B9"/>
<path d="M376.572 253.87C368.784 251.581 363.854 244.974 365.56 239.111C367.266 233.248 374.962 230.351 382.75 232.639C390.538 234.928 395.468 241.535 393.762 247.398C392.056 253.261 384.36 256.158 376.572 253.87Z" fill="#FFBFCC"/>
<path d="M449.698 240.755L449.721 241.656C449.858 241.348 449.85 241.048 449.698 240.755Z" fill="#FFBFCC"/>
<path d="M435.752 258.054C435.107 259.511 434.457 260.852 433.803 262.076C430.207 268.813 425.04 274.03 418.304 277.73C414.092 280.042 409.56 281.866 404.71 283.201C402.982 283.677 401.94 283.983 401.582 284.118C401.44 284.174 401.302 284.251 401.17 284.351C401.105 284.399 401.062 284.472 401.05 284.552C401.038 284.632 401.058 284.713 401.105 284.778C401.262 284.992 401.475 285.173 401.745 285.32C403.829 286.459 406.299 287.027 408.639 287.548C410.161 287.887 411.229 288.159 411.842 288.364C419.886 291.062 425.887 297.332 429.567 304.895C429.59 304.943 429.622 304.984 429.662 305.019C429.702 305.053 429.748 305.078 429.798 305.094C429.848 305.11 429.9 305.115 429.953 305.11C430.005 305.104 430.055 305.089 430.101 305.063C431.248 304.423 432.615 303.624 434.203 302.666C434.41 302.541 434.588 302.389 434.739 302.21C434.762 302.183 434.775 302.15 434.779 302.115C434.782 302.08 434.774 302.044 434.757 302.014C432.554 298.133 430.205 294.323 427.712 290.584C426.281 288.439 425.02 286.631 423.928 285.162C423.903 285.128 423.871 285.099 423.834 285.078C423.797 285.056 423.757 285.043 423.715 285.037C423.437 285.004 423.153 285.049 422.861 285.173C420.82 286.036 419.064 286.647 416.945 286.971C415.207 287.238 413.987 287.369 413.282 287.364C411.832 287.355 407.99 286.96 407.493 285.205C407.479 285.154 407.48 285.101 407.495 285.051C407.51 285.001 407.538 284.956 407.578 284.922C407.805 284.726 408.096 284.577 408.451 284.473C408.712 284.396 410.376 283.961 413.446 283.167C415.919 282.525 418.817 281.512 421.584 280.143C425.035 278.436 428.071 275.846 430.367 272.853C432.054 270.649 433.52 268.281 434.327 265.837C434.804 264.392 435.132 263.2 435.313 262.26C435.364 261.99 435.484 261.292 435.672 260.168C435.686 260.084 435.69 259.999 435.684 259.914C435.662 259.563 435.664 259.327 435.691 259.207C435.811 258.68 435.854 258.298 435.821 258.063C435.819 258.055 435.816 258.048 435.81 258.043C435.805 258.037 435.797 258.034 435.79 258.033C435.782 258.032 435.774 258.033 435.768 258.037C435.761 258.041 435.756 258.047 435.752 258.054Z" fill="#F3D0B9"/>
<path d="M342.992 276.182C342.982 276.179 342.971 276.179 342.96 276.182C342.95 276.185 342.94 276.191 342.933 276.199C342.925 276.207 342.92 276.216 342.917 276.227C342.914 276.237 342.914 276.249 342.917 276.259C343.123 277.081 343.092 277.909 342.826 278.744C342.296 280.407 341.729 282.214 341.124 284.165C341.116 284.189 341.018 284.455 340.829 284.962C340.815 285.002 340.809 285.045 340.814 285.088C340.819 285.131 340.833 285.172 340.856 285.208C340.879 285.244 340.91 285.274 340.947 285.296C340.984 285.318 341.025 285.332 341.068 285.335C342.362 285.428 343.954 285.428 345.844 285.335C347.691 285.243 349.275 285.114 350.597 284.947C352.466 284.709 354.467 284.22 356.599 283.479C356.83 283.398 357.039 283.303 357.227 283.192C357.256 283.175 357.281 283.151 357.3 283.123C357.319 283.094 357.331 283.062 357.336 283.028C357.34 282.995 357.337 282.96 357.327 282.928C357.316 282.896 357.299 282.867 357.275 282.842C357.07 282.629 356.82 282.471 356.527 282.368C351.919 280.752 347.454 278.708 343.13 276.236C343.086 276.21 343.04 276.192 342.992 276.182Z" fill="#F3D0B9"/>
<mask id="mask0_10_2" style="mask-type:alpha" maskUnits="userSpaceOnUse" x="41" y="3" width="254" height="180">
<path d="M144.993 117.25C145.14 116.012 145.25 114.775 145.25 113.5C145.25 112.225 145.14 110.988 144.993 109.75H151.19C151.483 110.95 151.667 112.206 151.667 113.5C151.667 114.794 151.483 116.05 151.19 117.25M141.748 127.675C142.848 125.594 143.692 123.344 144.278 121H149.687C147.91 124.128 145.093 126.497 141.748 127.675ZM141.29 117.25H132.71C132.527 116.012 132.417 114.775 132.417 113.5C132.417 112.225 132.527 110.969 132.71 109.75H141.29C141.455 110.969 141.583 112.225 141.583 113.5C141.583 114.775 141.455 116.012 141.29 117.25ZM137 128.425C135.478 126.175 134.25 123.681 133.498 121H140.502C139.75 123.681 138.522 126.175 137 128.425ZM129.667 106H124.313C126.071 102.863 128.887 100.49 132.233 99.325C131.133 101.406 130.308 103.656 129.667 106ZM124.313 121H129.667C130.308 123.344 131.133 125.594 132.233 127.675C128.893 126.498 126.081 124.128 124.313 121ZM122.81 117.25C122.517 116.05 122.333 114.794 122.333 113.5C122.333 112.206 122.517 110.95 122.81 109.75H129.007C128.86 110.988 128.75 112.225 128.75 113.5C128.75 114.775 128.86 116.012 129.007 117.25M137 98.5563C138.522 100.806 139.75 103.319 140.502 106H133.498C134.25 103.319 135.478 100.806 137 98.5563ZM149.687 106H144.278C143.704 103.678 142.854 101.436 141.748 99.325C145.122 100.506 147.927 102.888 149.687 106ZM137 94.75C126.862 94.75 118.667 103.188 118.667 113.5C118.667 118.473 120.598 123.242 124.036 126.758C125.739 128.499 127.76 129.88 129.984 130.823C132.208 131.765 134.592 132.25 137 132.25C141.862 132.25 146.525 130.275 149.964 126.758C153.402 123.242 155.333 118.473 155.333 113.5C155.333 111.038 154.859 108.6 153.938 106.325C153.016 104.05 151.666 101.983 149.964 100.242C148.261 98.5006 146.24 97.1195 144.016 96.1773C141.792 95.235 139.408 94.75 137 94.75Z" fill="#FF45AC"/>
<path d="M260.625 83.4167V75.5833C260.625 75.0285 260.813 74.5637 261.189 74.189C261.565 73.8143 262.03 73.6263 262.583 73.625H270.417C270.972 73.625 271.437 73.813 271.813 74.189C272.189 74.565 272.376 75.0298 272.375 75.5833V83.4167C272.375 83.9715 272.187 84.437 271.811 84.813C271.435 85.189 270.97 85.3763 270.417 85.375H262.583C262.028 85.375 261.564 85.187 261.189 84.811C260.814 84.435 260.626 83.9702 260.625 83.4167ZM264.542 81.4583H268.458V77.5417H264.542V81.4583ZM260.625 95.1667V93.2083H256.708C255.631 93.2083 254.71 92.8252 253.943 92.0588C253.177 91.2924 252.793 90.3701 252.792 89.2917V85.375H250.833C250.278 85.375 249.814 85.187 249.439 84.811C249.064 84.435 248.876 83.9702 248.875 83.4167C248.874 82.8631 249.062 82.3983 249.439 82.0223C249.816 81.6463 250.281 81.4583 250.833 81.4583H252.792V77.5417H250.833C250.278 77.5417 249.814 77.3537 249.439 76.9777C249.064 76.6017 248.876 76.1369 248.875 75.5833C248.874 75.0298 249.062 74.565 249.439 74.189C249.816 73.813 250.281 73.625 250.833 73.625H252.792V69.7083C252.792 68.6313 253.176 67.7095 253.943 66.9432C254.711 66.1768 255.633 65.793 256.708 65.7917H260.625V63.8333C260.625 63.2785 260.813 62.8137 261.189 62.439C261.565 62.0643 262.03 61.8763 262.583 61.875C263.137 61.8737 263.602 62.0617 263.98 62.439C264.357 62.8163 264.544 63.2811 264.542 63.8333V65.7917H268.458V63.8333C268.458 63.2785 268.646 62.8137 269.022 62.439C269.398 62.0643 269.863 61.8763 270.417 61.875C270.97 61.8737 271.436 62.0617 271.813 62.439C272.19 62.8163 272.378 63.2811 272.375 63.8333V65.7917H276.292C277.369 65.7917 278.291 66.1755 279.059 66.9432C279.826 67.7108 280.21 68.6326 280.208 69.7083V73.625H282.167C282.722 73.625 283.187 73.813 283.563 74.189C283.939 74.565 284.126 75.0298 284.125 75.5833C284.124 76.1369 283.936 76.6023 283.561 76.9796C283.186 77.3569 282.722 77.5443 282.167 77.5417H280.208V81.4583H282.167C282.722 81.4583 283.187 81.6463 283.563 82.0223C283.939 82.3983 284.126 82.8631 284.125 83.4167C284.124 83.9702 283.936 84.4357 283.561 84.813C283.186 85.1903 282.722 85.3776 282.167 85.375H280.208V89.2917C280.208 90.3688 279.825 91.2911 279.059 92.0588C278.292 92.8265 277.37 93.2096 276.292 93.2083H272.375V95.1667C272.375 95.7215 272.187 96.187 271.811 96.563C271.435 96.939 270.97 97.1263 270.417 97.125C269.863 97.1237 269.398 96.9357 269.022 96.561C268.646 96.1863 268.458 95.7215 268.458 95.1667V93.2083H264.542V95.1667C264.542 95.7215 264.354 96.187 263.978 96.563C263.602 96.939 263.137 97.1263 262.583 97.125C262.03 97.1237 261.565 96.9357 261.189 96.561C260.813 96.1863 260.625 95.7215 260.625 95.1667ZM276.292 89.2917V69.7083H256.708V89.2917H276.292Z" fill="#FF45AC"/>
<path d="M216.714 69.3696L212.78 47.7371C212.602 46.7586 212.086 45.8737 211.322 45.2366C210.558 44.5994 209.595 44.2503 208.601 44.25H182.399C181.404 44.2499 180.44 44.5994 179.675 45.2375C178.911 45.8756 178.395 46.7617 178.217 47.7414L174.286 69.3696L174.327 69.376C174.301 69.5035 174.25 69.6183 174.25 69.75V80.375C174.25 82.7189 176.156 84.625 178.5 84.625H212.5C214.844 84.625 216.75 82.7189 216.75 80.375V69.75C216.75 69.6161 216.699 69.5035 216.676 69.376L216.714 69.3696ZM182.399 48.5H208.603L212.081 67.625H178.921L182.399 48.5ZM178.5 80.375V71.875H212.5L212.504 80.375H178.5Z" fill="#FF45AC"/>
<path d="M206.125 74H210.375V78.25H206.125V74ZM199.75 74H204V78.25H199.75V74Z" fill="#FF45AC"/>
<path d="M229.769 10.644C231.664 8.74753 234.129 7.52513 236.786 7.16428C239.442 6.80343 242.144 7.32407 244.476 8.64634C246.808 9.96861 248.642 12.0195 249.697 14.4844C250.751 16.9493 250.968 19.692 250.314 22.292L250.193 22.74L256.143 30.391C256.644 31.0349 256.97 31.7976 257.089 32.6048C257.207 33.412 257.115 34.2361 256.821 34.997C256.996 35.0495 257.209 35.0775 257.472 35.025L257.678 34.9707C258.115 34.8358 258.588 34.8774 258.994 35.0865C259.401 35.2957 259.71 35.6558 259.854 36.0898C259.999 36.5237 259.968 36.997 259.768 37.4084C259.568 37.8197 259.215 38.1363 258.784 38.2905C258.042 38.5463 257.248 38.618 256.472 38.4994C255.696 38.3809 254.961 38.0755 254.329 37.6097C253.603 37.9309 252.807 38.0639 252.016 37.9967C251.226 37.9294 250.464 37.6639 249.803 37.2247L249.516 37.02L241.865 31.0682C239.254 31.8307 236.463 31.7024 233.933 30.7035C231.403 29.7046 229.277 27.892 227.891 25.5514C226.505 23.2108 225.937 20.4754 226.278 17.7765C226.618 15.0777 227.847 12.5689 229.771 10.6457L229.769 10.644ZM248.51 26.275C247.669 27.4907 246.616 28.5442 245.4 29.3847L251.665 34.2567C251.901 34.4349 252.193 34.5216 252.488 34.5011C252.783 34.4805 253.061 34.354 253.27 34.1448C253.479 33.9356 253.605 33.658 253.625 33.363C253.645 33.0681 253.558 32.7758 253.38 32.54L248.51 26.275ZM245.61 14.3032L245.255 14.8912C243.843 17.1651 242.176 19.2695 240.285 21.1632C238.391 23.0535 236.288 24.7205 234.015 26.1315L233.427 26.4867C235.112 27.6607 237.156 28.2045 239.202 28.0229C241.248 27.8414 243.165 26.9462 244.617 25.4939C246.069 24.0416 246.965 22.1247 247.146 20.0789C247.328 18.0331 246.784 15.9886 245.61 14.3032ZM242.989 11.8357C241.313 10.815 239.343 10.3869 237.394 10.6201C235.446 10.8533 233.633 11.7344 232.245 13.1219C230.858 14.5094 229.977 16.3228 229.743 18.2711C229.51 20.2193 229.938 22.1895 230.959 23.8652L231.526 23.545C233.818 22.198 235.93 20.5663 237.812 18.6887C239.511 16.9854 241.01 15.093 242.278 13.0485L242.481 12.716L242.836 12.1087L242.989 11.8357Z" fill="#FF45AC"/>
<path fill-rule="evenodd" clip-rule="evenodd" d="M122.292 62.8333H106.833C105.076 62.8333 103.391 62.1485 102.149 60.9295C100.906 59.7105 100.208 58.0572 100.208 56.3333V39C100.208 37.2761 100.906 35.6228 102.149 34.4038C103.391 33.1848 105.076 32.5 106.833 32.5H142.167C143.924 32.5 145.609 33.1848 146.851 34.4038C148.094 35.6228 148.792 37.2761 148.792 39V56.3333C148.792 58.0572 148.094 59.7105 146.851 60.9295C145.609 62.1485 143.924 62.8333 142.167 62.8333H126.708V67.1667H133.333C133.919 67.1667 134.481 67.3949 134.895 67.8013C135.309 68.2076 135.542 68.7587 135.542 69.3333C135.542 69.908 135.309 70.4591 134.895 70.8654C134.481 71.2717 133.919 71.5 133.333 71.5H115.667C115.081 71.5 114.519 71.2717 114.105 70.8654C113.691 70.4591 113.458 69.908 113.458 69.3333C113.458 68.7587 113.691 68.2076 114.105 67.8013C114.519 67.3949 115.081 67.1667 115.667 67.1667H122.292V62.8333ZM106.833 36.8333H142.167C142.752 36.8333 143.314 37.0616 143.728 37.4679C144.142 37.8743 144.375 38.4254 144.375 39V56.3333C144.375 56.908 144.142 57.4591 143.728 57.8654C143.314 58.2717 142.752 58.5 142.167 58.5H106.833C106.248 58.5 105.686 58.2717 105.272 57.8654C104.858 57.4591 104.625 56.908 104.625 56.3333V39C104.625 38.4254 104.858 37.8743 105.272 37.4679C105.686 37.0616 106.248 36.8333 106.833 36.8333Z" fill="#FF45AC"/>
<path d="M67.125 155.5H75.2917L81.4167 171.833L89.5833 139.167L95.7083 155.5H103.875" stroke="#FF45AC" stroke-width="4.5" stroke-linecap="round" stroke-linejoin="round"/>
<path fill-rule="evenodd" clip-rule="evenodd" d="M76.3334 78.0417C83.6511 78.0417 89.5834 83.974 89.5834 91.2917C89.5834 98.6094 83.6511 104.542 76.3334 104.542H58.6667C51.349 104.542 45.4167 98.6094 45.4167 91.2917C45.4167 83.974 51.349 78.0417 58.6667 78.0417H76.3334ZM76.3334 82.4584H58.6667C53.7882 82.4584 49.8334 86.4132 49.8334 91.2917C49.8334 96.0224 53.5521 99.8845 58.2258 100.114L58.6667 100.125H76.3334C81.2119 100.125 85.1667 96.1702 85.1667 91.2917C85.1667 86.561 81.4479 82.6989 76.7743 82.4692L76.3334 82.4584ZM67.5 84.6667C71.159 84.6667 74.125 87.6328 74.125 91.2917C74.125 94.9506 71.159 97.9167 67.5 97.9167C63.8411 97.9167 60.875 94.9506 60.875 91.2917C60.875 87.6328 63.8411 84.6667 67.5 84.6667ZM67.5 89.0834C66.2804 89.0834 65.2917 90.072 65.2917 91.2917C65.2917 92.5114 66.2804 93.5 67.5 93.5C68.7196 93.5 69.7084 92.5114 69.7084 91.2917C69.7084 90.072 68.7196 89.0834 67.5 89.0834ZM80.75 106.75V111.167H54.25V106.75H80.75Z" fill="#FF45AC"/>
<path d="M293.19 180.387C293.956 180.282 294.492 179.576 294.387 178.81L292.674 166.327C292.569 165.561 291.862 165.025 291.096 165.13C290.33 165.235 289.795 165.941 289.9 166.707L291.423 177.803L280.327 179.326C279.561 179.431 279.025 180.138 279.13 180.904C279.235 181.67 279.941 182.205 280.707 182.1L293.19 180.387ZM205.81 111.613C205.044 111.718 204.508 112.424 204.613 113.19L206.326 125.673C206.431 126.439 207.138 126.975 207.904 126.87C208.67 126.765 209.205 126.059 209.1 125.293L207.577 114.197L218.673 112.674C219.439 112.569 219.975 111.862 219.87 111.096C219.765 110.33 219.059 109.795 218.293 109.9L205.81 111.613ZM293 179L293.846 177.885L291.671 176.235L290.825 177.35L289.979 178.465L292.154 180.115L293 179ZM286.475 174.05L287.321 172.935L282.971 169.635L282.125 170.75L281.279 171.865L285.629 175.165L286.475 174.05ZM277.775 167.45L278.621 166.335L274.271 163.035L273.425 164.15L272.579 165.265L276.929 168.565L277.775 167.45ZM269.075 160.85L269.921 159.735L265.571 156.435L264.725 157.55L263.879 158.665L268.229 161.965L269.075 160.85ZM260.375 154.25L261.221 153.135L256.871 149.835L256.025 150.95L255.179 152.065L259.529 155.365L260.375 154.25ZM251.675 147.65L252.521 146.535L248.171 143.235L247.325 144.35L246.479 145.465L250.829 148.765L251.675 147.65ZM242.975 141.05L243.821 139.935L239.471 136.635L238.625 137.75L237.779 138.865L242.129 142.165L242.975 141.05ZM234.275 134.45L235.121 133.335L230.771 130.035L229.925 131.15L229.079 132.265L233.429 135.565L234.275 134.45ZM225.575 127.85L226.421 126.735L222.071 123.435L221.225 124.55L220.379 125.665L224.729 128.965L225.575 127.85ZM216.875 121.25L217.721 120.135L213.371 116.835L212.525 117.95L211.679 119.065L216.029 122.365L216.875 121.25ZM208.175 114.65L209.021 113.535L206.846 111.885L206 113L205.154 114.115L207.329 115.765L208.175 114.65ZM293.19 180.387C293.956 180.282 294.492 179.576 294.387 178.81L292.674 166.327C292.569 165.561 291.862 165.025 291.096 165.13C290.33 165.235 289.795 165.941 289.9 166.707L291.423 177.803L280.327 179.326C279.561 179.431 279.025 180.138 279.13 180.904C279.235 181.67 279.941 182.205 280.707 182.1L293.19 180.387ZM205.81 111.613C205.044 111.718 204.508 112.424 204.613 113.19L206.326 125.673C206.431 126.439 207.138 126.975 207.904 126.87C208.67 126.765 209.205 126.059 209.1 125.293L207.577 114.197L218.673 112.674C219.439 112.569 219.975 111.862 219.87 111.096C219.765 110.33 219.059 109.795 218.293 109.9L205.81 111.613ZM293 179L293.846 177.885L291.671 176.235L290.825 177.35L289.979 178.465L292.154 180.115L293 179ZM286.475 174.05L287.321 172.935L282.971 169.635L282.125 170.75L281.279 171.865L285.629 175.165L286.475 174.05ZM277.775 167.45L278.621 166.335L274.271 163.035L273.425 164.15L272.579 165.265L276.929 168.565L277.775 167.45ZM269.075 160.85L269.921 159.735L265.571 156.435L264.725 157.55L263.879 158.665L268.229 161.965L269.075 160.85ZM260.375 154.25L261.221 153.135L256.871 149.835L256.025 150.95L255.179 152.065L259.529 155.365L260.375 154.25ZM251.675 147.65L252.521 146.535L248.171 143.235L247.325 144.35L246.479 145.465L250.829 148.765L251.675 147.65ZM242.975 141.05L243.821 139.935L239.471 136.635L238.625 137.75L237.779 138.865L242.129 142.165L242.975 141.05ZM234.275 134.45L235.121 133.335L230.771 130.035L229.925 131.15L229.079 132.265L233.429 135.565L234.275 134.45ZM225.575 127.85L226.421 126.735L222.071 123.435L221.225 124.55L220.379 125.665L224.729 128.965L225.575 127.85ZM216.875 121.25L217.721 120.135L213.371 116.835L212.525 117.95L211.679 119.065L216.029 122.365L216.875 121.25ZM208.175 114.65L209.021 113.535L206.846 111.885L206 113L205.154 114.115L207.329 115.765L208.175 114.65Z" fill="#FF45AC"/>
</mask>
<g mask="url(#mask0_10_2)">
<rect x="-12" width="316" height="209" fill="url(#paint0_linear_10_2)"/>
</g>
<defs>
<linearGradient id="paint0_linear_10_2" x1="-9.5" y1="103.439" x2="304.001" y2="104.853" gradientUnits="userSpaceOnUse">
<stop stop-color="#FF45AC"/>
<stop offset="1" stop-color="#FF78C2"/>
</linearGradient>
</defs>
</svg>
