<svg xmlns="http://www.w3.org/2000/svg" version="1.1" viewBox="100.06 0 995.44 928">
<g stroke-width="2.00" fill="none" stroke-linecap="butt">
<path stroke="#64696a" vector-effect="non-scaling-stroke" d="   M 288.02 36.12   Q 284.06 53.72 286.29 72.00   Q 289.24 96.09 296.59 119.18   A 4.40 4.37 -74.5 0 0 297.50 120.80   C 311.98 137.26 324.17 155.08 335.20 173.93   A 0.61 0.60 -39.4 0 0 336.18 174.02   L 348.13 160.49"/>
<path stroke="#75797a" vector-effect="non-scaling-stroke" d="   M 348.13 160.49   Q 352.44 156.31 355.77 153.28   Q 381.00 130.29 412.61 122.58"/>
<path stroke="#7e7e7e" vector-effect="non-scaling-stroke" d="   M 412.61 122.58   Q 423.43 119.72 433.12 119.04"/>
<path stroke="#75797a" vector-effect="non-scaling-stroke" d="   M 433.12 119.04   L 443.20 118.68   A 0.30 0.29 -17.1 0 0 443.44 118.23   Q 421.56 82.90 390.42 56.84   C 371.25 40.81 350.08 28.42 326.02 22.48   C 311.76 18.96 292.24 17.26 288.02 36.12"/>
<path stroke="#f3f7f8" vector-effect="non-scaling-stroke" d="   M 433.12 119.04   C 426.34 102.45 413.54 90.72 399.04 76.54   Q 393.29 70.91 386.50 67.11   C 384.11 65.77 383.61 66.04 381.47 67.37   Q 380.07 68.25 380.73 70.57   Q 381.84 74.48 382.41 75.33   Q 398.02 98.82 412.61 122.58"/>
<path stroke="#d8e2e3" vector-effect="non-scaling-stroke" d="   M 348.13 160.49   Q 344.82 153.69 341.34 147.29   C 335.38 136.33 330.44 126.44 325.60 117.15   Q 306.53 80.50 293.84 49.33   C 293.09 47.50 291.47 44.19 290.51 42.93   C 289.57 41.70 290.30 40.32 288.96 39.06   A 1.95 1.94 -74.1 0 1 288.38 38.01   L 288.02 36.12"/>
<path stroke="#64696a" vector-effect="non-scaling-stroke" d="   M 123.48 161.25   Q 123.55 163.53 123.91 165.76   C 133.68 226.11 161.25 284.03 204.07 327.86   C 219.48 343.64 237.45 359.22 255.64 372.15   Q 259.22 374.69 275.03 385.29   C 283.80 391.16 296.89 398.29 303.54 402.19   Q 311.01 406.57 308.51 414.99   A 0.60 0.60 0.0 0 0 309.12 415.76   Q 320.24 415.21 331.19 411.32"/>
<path stroke="#75797a" vector-effect="non-scaling-stroke" d="   M 331.19 411.32   Q 334.27 410.29 337.50 408.76   C 356.14 399.92 373.30 385.82 383.21 367.48   Q 385.33 363.56 386.56 358.31   A 0.41 0.40 85.2 0 0 386.01 357.84   C 379.15 360.72 373.26 355.27 372.32 348.69   Q 370.04 332.69 367.54 321.45   C 361.11 292.57 353.22 263.98 342.69 236.07   Q 323.77 185.94 291.14 144.34   C 277.25 126.63 259.49 109.07 242.13 96.64   C 221.57 81.91 200.73 70.42 177.48 66.12   C 158.18 62.55 130.89 66.82 124.46 88.72   Q 119.85 104.45 119.91 121.51   Q 119.99 141.55 123.48 161.25"/>
<path stroke="#d8e2e3" vector-effect="non-scaling-stroke" d="   M 331.19 411.32   Q 326.54 407.63 321.74 404.39   Q 315.45 400.15 312.28 397.55   Q 303.29 390.20 294.11 384.48   Q 292.34 383.38 284.74 376.64   Q 278.63 371.23 275.47 368.72   C 269.22 363.75 264.38 360.33 258.97 355.26   Q 257.01 353.41 249.46 346.80   C 237.99 336.74 224.01 323.16 212.98 310.61   Q 180.65 273.81 157.17 231.26   Q 149.36 217.10 141.27 198.78   Q 133.17 180.45 127.39 165.37   Q 125.94 161.59 123.48 161.25"/>
<path stroke="#7e7e7e" vector-effect="non-scaling-stroke" d="   M 436.41 123.80   Q 425.71 124.71 414.80 127.18"/>
<path stroke="#75797a" vector-effect="non-scaling-stroke" d="   M 414.80 127.18   Q 412.28 127.73 409.53 128.57   Q 375.05 139.06 350.81 165.11"/>
<path stroke="#64696a" vector-effect="non-scaling-stroke" d="   M 350.81 165.11   Q 343.91 171.71 338.69 179.06   A 0.92 0.92 0.0 0 0 338.64 180.05   C 348.43 197.54 356.42 215.81 363.39 234.62   Q 365.93 241.47 368.15 250.17   A 8.85 8.78 17.9 0 0 369.96 253.68   Q 385.18 271.76 398.80 287.20   Q 405.99 295.37 413.89 302.60   A 1.76 1.76 0.0 0 0 415.59 302.99   C 443.02 294.67 471.52 290.98 500.45 290.13   A 0.42 0.41 85.6 0 0 500.85 289.66   L 499.85 281.39"/>
<path stroke="#75797a" vector-effect="non-scaling-stroke" d="   M 499.85 281.39   C 497.61 262.49 493.15 242.61 488.73 225.26   C 481.73 197.77 472.22 170.89 459.33 145.81   Q 453.25 133.98 447.46 123.95   A 1.24 1.24 0.0 0 0 446.32 123.33   L 436.41 123.80"/>
<path stroke="#d8e2e3" vector-effect="non-scaling-stroke" d="   M 499.85 281.39   Q 495.10 280.56 490.46 280.37   Q 483.23 280.07 481.07 279.86   Q 455.82 277.39 431.70 282.93   A 3.38 3.36 60.6 0 1 428.59 282.05   Q 427.46 280.93 426.21 279.34   Q 420.65 272.29 413.13 261.63   Q 391.49 230.96 371.51 199.61   Q 367.71 193.65 361.11 182.39   Q 356.02 173.72 350.81 165.11"/>
<path stroke="#f3f7f8" vector-effect="non-scaling-stroke" d="   M 414.80 127.18   Q 418.42 130.96 421.90 137.31   Q 443.01 175.85 452.07 194.95   C 453.89 198.79 455.85 201.53 459.22 203.34   A 2.32 2.31 -45.6 0 0 461.47 203.31   L 465.01 201.26   A 1.65 1.64 -14.7 0 0 465.84 199.85   Q 465.92 193.71 464.24 187.77   Q 461.07 176.51 455.10 160.92   C 452.30 153.63 447.93 144.47 444.62 136.17   Q 442.82 131.66 436.41 123.80"/>
<path stroke="#75797a" vector-effect="non-scaling-stroke" d="   M 428.71 318.90   Q 409.03 323.89 390.05 331.37   A 0.39 0.39 0.0 0 0 390.19 332.13   Q 411.31 332.18 432.26 335.72   Q 511.43 349.13 579.36 391.61   A 1.31 1.30 44.0 0 0 580.78 391.59   Q 600.10 378.63 622.02 370.34"/>
<path stroke="#7e7e7e" vector-effect="non-scaling-stroke" d="   M 622.02 370.34   Q 638.80 363.66 656.54 360.11"/>
<path stroke="#75797a" vector-effect="non-scaling-stroke" d="   M 656.54 360.11   L 670.49 358.09   A 0.49 0.48 60.2 0 0 670.72 357.23   Q 655.01 344.63 637.81 335.91   C 597.30 315.35 549.80 307.69 504.69 309.37"/>
<path stroke="#7e7e7e" vector-effect="non-scaling-stroke" d="   M 504.69 309.37   Q 466.20 309.43 428.71 318.90"/>
<path stroke="#f3f7f8" vector-effect="non-scaling-stroke" d="   M 504.69 309.37   Q 507.82 311.83 511.61 313.03   A 3.34 3.29 54.9 0 0 512.49 313.19   C 517.68 313.43 521.87 314.48 523.72 319.56   A 2.07 2.06 58.6 0 1 523.19 321.78   Q 519.14 325.53 512.80 325.30   Q 498.72 324.80 479.85 322.82   Q 455.01 320.21 434.66 320.19   Q 433.31 320.19 428.71 318.90"/>
<path stroke="#f3f7f8" vector-effect="non-scaling-stroke" d="   M 656.54 360.11   Q 650.59 358.16 646.86 355.15   Q 635.26 345.80 625.26 340.61   C 609.46 332.41 593.44 326.10 575.25 322.32   Q 561.14 319.39 549.90 318.41   C 544.87 317.97 539.55 318.49 535.67 321.91   A 2.01 2.01 0.0 0 0 535.07 323.94   Q 536.36 328.72 541.06 330.45   Q 564.56 339.06 566.44 339.79   C 577.31 344.03 590.08 350.54 601.70 357.53   C 605.87 360.04 615.12 365.25 622.02 370.34"/>
<path stroke="#64696a" vector-effect="non-scaling-stroke" d="   M 302.32 427.11   Q 291.97 424.36 288.33 415.19"/>
<path stroke="#75797a" vector-effect="non-scaling-stroke" d="   M 288.33 415.19   L 285.37 413.68   A 0.64 0.63 -59.1 0 0 284.55 413.89   Q 280.54 419.69 277.76 424.98   C 271.96 436.04 266.78 446.26 262.55 457.07   Q 261.35 460.13 255.60 478.10   C 252.01 489.31 249.40 503.04 247.52 511.74   Q 247.48 511.90 247.57 512.29   A 0.37 0.37 0.0 0 0 248.15 512.51   L 256.63 506.47"/>
<path stroke="#64696a" vector-effect="non-scaling-stroke" d="   M 256.63 506.47   Q 268.99 499.48 282.97 497.13"/>
<path stroke="#75797a" vector-effect="non-scaling-stroke" d="   M 282.97 497.13   C 308.71 493.68 334.01 503.50 351.68 522.34   C 371.63 543.61 382.02 573.47 383.07 602.46   Q 383.96 627.09 374.49 650.09   A 0.64 0.63 26.3 0 0 374.76 650.88   Q 410.70 671.66 451.24 682.99   C 468.70 687.87 484.90 691.74 502.55 693.33   A 2.21 2.21 0.0 0 1 504.43 694.76   Q 506.38 700.05 507.46 706.01   Q 509.00 714.56 509.86 722.07"/>
<path stroke="#64696a" vector-effect="non-scaling-stroke" d="   M 509.86 722.07   Q 511.38 744.38 507.70 765.21   A 0.80 0.79 7.5 0 0 508.42 766.14   Q 564.93 770.76 620.20 762.86   C 646.43 759.11 672.61 752.32 696.71 742.22   Q 732.33 727.30 759.23 700.98   Q 765.99 694.37 775.60 682.04"/>
<path stroke="#75797a" vector-effect="non-scaling-stroke" d="   M 775.60 682.04   L 784.16 668.68   A 0.23 0.23 0.0 0 0 783.87 668.35   C 757.76 680.67 728.05 681.06 701.28 670.48   C 683.36 663.40 668.70 653.68 658.54 637.71   A 0.99 0.99 0.0 0 0 657.15 637.43   C 654.51 639.25 651.77 640.62 648.53 640.64   C 640.59 640.69 637.81 631.74 640.48 625.26   C 644.38 615.82 654.77 600.57 666.38 600.35   A 0.74 0.73 -3.3 0 0 667.10 599.55   C 665.85 585.42 667.32 573.25 670.73 559.40   C 680.83 518.42 711.07 480.12 755.87 475.71   A 0.20 0.20 0.0 0 0 756.00 475.37   Q 742.67 461.21 732.78 443.22   Q 723.22 425.84 716.54 413.46   Q 701.14 384.89 677.56 362.75   A 1.93 1.91 63.2 0 0 676.03 362.24   C 641.80 366.16 609.10 378.44 580.90 397.51   A 1.59 1.58 -45.8 0 1 579.17 397.54   Q 503.27 349.34 413.77 338.39   Q 401.79 336.93 391.19 337.35   A 0.91 0.91 0.0 0 0 390.71 339.01   C 398.09 344.04 400.71 352.05 399.20 360.66   C 397.11 372.48 390.05 382.97 381.62 391.90   C 366.12 408.31 347.70 420.32 326.40 426.12   Q 314.22 429.44 302.32 427.11"/>
<path stroke="#d8e2e3" vector-effect="non-scaling-stroke" d="   M 775.60 682.04   Q 765.63 684.60 757.31 689.88   Q 751.78 693.40 749.29 694.54   Q 729.36 703.67 708.64 710.91   Q 694.66 715.80 674.88 720.23   C 654.30 724.84 632.16 727.37 612.25 728.64   Q 589.80 730.06 564.51 728.71   Q 549.14 727.89 527.31 724.85   Q 522.33 724.16 509.86 722.07"/>
<path stroke="#d8e2e3" vector-effect="non-scaling-stroke" d="   M 282.97 497.13   Q 282.97 490.54 284.72 482.44   C 288.92 463.00 294.15 444.34 302.32 427.11"/>
<path stroke="#64696a" vector-effect="non-scaling-stroke" d="   M 261.24 486.60   Q 263.91 492.41 268.67 493.36   C 275.50 494.71 281.89 489.65 280.86 482.64   C 279.34 472.26 266.12 470.43 261.81 479.96"/>
<path stroke="#d8e2e3" vector-effect="non-scaling-stroke" d="   M 288.33 415.19   Q 287.98 415.81 287.30 415.87   A 0.84 0.83 3.9 0 0 286.57 416.50   Q 285.05 422.57 281.68 427.75   C 278.53 432.61 276.21 438.31 274.65 442.68   Q 271.19 452.34 265.81 465.72   C 264.87 468.08 263.10 470.48 262.64 472.92   C 262.14 475.60 260.88 477.05 261.81 479.96"/>
<path stroke="#75797a" vector-effect="non-scaling-stroke" d="   M 261.81 479.96   L 261.24 486.60"/>
<path stroke="#d8e2e3" vector-effect="non-scaling-stroke" d="   M 261.24 486.60   Q 257.66 496.24 256.63 506.47"/>
<path stroke="#7e7e7e" vector-effect="non-scaling-stroke" d="   M 779.87 493.84   A 0.40 0.40 0.0 0 0 779.97 493.10   Q 770.05 487.62 761.94 481.01   A 1.95 1.95 0.0 0 0 760.68 480.57   C 743.86 480.62 727.89 487.81 714.30 497.65   A 0.93 0.93 0.0 0 0 714.13 498.99   Q 716.69 502.16 720.62 505.14   Q 734.11 515.38 750.50 520.17   A 0.55 0.54 13.5 0 0 751.19 519.75   C 753.82 505.87 766.71 496.75 779.87 493.84"/>
<path stroke="#75797a" vector-effect="non-scaling-stroke" d="   M 709.26 502.34   Q 708.70 502.65 708.03 503.28   Q 695.74 514.90 687.60 530.08   C 677.31 549.29 671.10 571.60 671.49 593.25   Q 671.54 595.94 672.34 601.06   A 2.56 2.50 -72.4 0 0 673.03 602.43   C 674.57 603.98 677.87 608.03 677.35 610.29   Q 676.23 615.14 678.96 621.53   Q 682.68 630.21 683.77 632.13   C 686.21 636.42 688.17 638.06 692.50 641.03   C 708.43 651.98 727.29 656.28 746.38 655.62   C 761.38 655.09 775.89 649.90 789.36 642.90   A 1.95 1.95 0.0 0 0 790.13 642.16   Q 797.69 629.08 799.48 625.18   Q 808.90 604.79 810.24 581.50   A 0.34 0.33 12.7 0 0 810.03 581.18   C 793.79 574.69 778.12 565.65 765.83 553.24   C 757.79 545.13 751.39 537.13 750.80 526.05   A 0.96 0.95 7.9 0 0 750.16 525.21   Q 746.67 524.04 743.49 523.00   Q 724.30 516.74 710.18 502.47   A 0.76 0.76 0.0 0 0 709.26 502.34"/>
<path stroke="#7e7e7e" vector-effect="non-scaling-stroke" d="   M 292.77 536.75   Q 305.81 545.42 314.45 558.57"/>
<path stroke="#75797a" vector-effect="non-scaling-stroke" d="   M 314.45 558.57   Q 328.70 581.38 329.55 608.50   Q 329.93 620.58 326.91 632.27"/>
<path stroke="#64696a" vector-effect="non-scaling-stroke" d="   M 326.91 632.27   Q 323.00 649.42 311.78 660.26   C 303.01 668.73 291.78 672.74 279.37 672.28   A 0.49 0.48 61.3 0 0 279.11 673.18   Q 297.91 684.27 318.86 680.59   C 327.48 679.08 336.19 675.08 342.49 669.48   Q 357.30 656.33 362.48 636.75"/>
<path stroke="#75797a" vector-effect="non-scaling-stroke" d="   M 362.48 636.75   Q 368.99 615.32 366.68 595.75   C 364.40 576.41 358.38 557.51 347.03 541.51"/>
<path stroke="#7e7e7e" vector-effect="non-scaling-stroke" d="   M 347.03 541.51   Q 336.04 525.46 318.79 516.35"/>
<path stroke="#75797a" vector-effect="non-scaling-stroke" d="   M 318.79 516.35   C 293.18 503.32 263.47 511.10 246.03 533.39   A 0.25 0.25 0.0 0 0 246.34 533.76   Q 251.96 530.96 258.23 529.51   C 270.03 526.79 282.47 530.79 292.77 536.75"/>
<path stroke="#f3f7f8" vector-effect="non-scaling-stroke" d="   M 318.79 516.35   Q 304.79 525.30 292.77 536.75"/>
<path stroke="#f3f7f8" vector-effect="non-scaling-stroke" d="   M 347.03 541.51   C 338.44 543.44 330.26 547.64 322.62 551.86   Q 317.95 554.45 314.45 558.57"/>
<path stroke="#d8e2e3" vector-effect="non-scaling-stroke" d="   M 362.48 636.75   Q 352.99 636.55 343.36 636.64   Q 335.19 636.72 326.91 632.27"/>
<path stroke="#75797a" vector-effect="non-scaling-stroke" d="   M 821.08 520.96   Q 818.59 516.68 814.00 513.97"/>
<path stroke="#7e4855" vector-effect="non-scaling-stroke" d="   M 814.00 513.97   Q 798.83 508.42 783.50 514.45   C 778.23 516.52 768.63 523.45 774.10 530.07   C 780.72 538.08 789.80 544.78 798.83 551.40   Q 807.26 557.57 816.09 561.18   A 2.34 2.34 0.0 0 0 818.77 560.52   C 828.11 549.40 827.25 533.33 821.08 520.96"/>
<path stroke="#f2c0ce" vector-effect="non-scaling-stroke" d="   M 814.00 513.97   Q 809.74 515.13 805.31 514.89   A 3.44 3.30 38.6 0 0 804.31 514.98   C 800.06 515.97 789.90 515.87 790.17 522.60   C 790.39 528.09 799.10 528.24 802.77 527.78   C 808.88 527.00 816.57 525.11 821.08 520.96"/>
<path stroke="#41474a" vector-effect="non-scaling-stroke" d="   M 236.70 552.98   A 64.65 45.57 75.0 0 0 226.73 584.78   A 64.60 45.53 75.1 0 0 235.89 628.83   A 64.62 45.53 75.1 0 0 258.88 656.35   A 64.51 45.42 75.0 0 0 277.59 663.72   A 64.75 45.61 75.0 0 0 294.67 661.39   A 64.60 45.50 75.1 0 0 317.00 634.94"/>
<path stroke="#64696a" vector-effect="non-scaling-stroke" d="   M 317.00 634.94   A 64.74 45.56 75.1 0 0 320.64 613.73   A 64.61 45.52 75.0 0 0 308.10 566.08   A 64.49 45.36 75.1 0 0 293.24 548.26   A 64.67 45.57 75.1 0 0 273.77 537.95   A 64.58 45.47 74.9 0 0 257.96 537.78   A 64.64 45.54 75.1 0 0 236.70 552.98"/>
<path stroke="#a5b0b3" vector-effect="non-scaling-stroke" d="   M 317.00 634.94   Q 312.32 635.01 306.92 637.19   Q 302.92 638.80 298.33 638.10"/>
<path stroke="#64696a" vector-effect="non-scaling-stroke" d="   M 298.33 638.10   C 307.37 615.24 301.90 587.23 288.59 567.72   C 281.55 557.40 272.44 549.89 259.76 548.77   C 251.26 548.02 244.01 553.60 239.31 560.29"/>
<path stroke="#a5b0b3" vector-effect="non-scaling-stroke" d="   M 239.31 560.29   Q 237.22 557.05 236.70 552.98"/>
<path stroke="#41474a" vector-effect="non-scaling-stroke" d="   M 298.33 638.10   Q 296.06 642.44 293.23 646.20   Q 286.75 654.82 276.68 655.15   C 268.79 655.41 259.37 650.13 253.90 644.65   Q 245.90 636.65 240.46 625.51   Q 228.64 601.31 233.20 575.14   Q 234.53 567.51 239.31 560.29"/>
<path stroke="#75797a" vector-effect="non-scaling-stroke" d="   M 797.90 640.45   L 803.54 640.45   A 0.93 0.92 -71.3 0 0 804.28 640.08   Q 813.09 628.54 816.54 620.27   Q 824.42 601.32 825.56 580.00   A 0.27 0.27 0.0 0 0 825.13 579.77   Q 820.91 582.94 815.58 582.47   A 0.60 0.60 0.0 0 0 814.93 583.05   Q 813.71 613.44 797.46 639.66   A 0.52 0.52 0.0 0 0 797.90 640.45"/>
<path stroke="#64696a" vector-effect="non-scaling-stroke" d="   M 365.52 666.40   Q 342.22 697.13 302.65 694.81   A 0.28 0.28 0.0 0 0 302.46 695.30   Q 310.07 701.70 318.42 707.10   C 348.86 726.80 382.18 740.73 416.76 750.25   Q 459.09 761.91 502.23 765.40   A 0.28 0.27 -81.7 0 0 502.52 765.18   Q 506.58 743.10 504.73 720.72"/>
<path stroke="#75797a" vector-effect="non-scaling-stroke" d="   M 504.73 720.72   Q 503.75 709.88 500.89 699.46   A 1.68 1.66 -3.6 0 0 499.50 698.25   Q 461.00 693.16 423.01 679.21   Q 396.43 669.45 372.39 655.28   A 0.48 0.48 0.0 0 0 371.73 655.45   L 365.52 666.40"/>
<path stroke="#d8e2e3" vector-effect="non-scaling-stroke" d="   M 504.73 720.72   Q 495.83 719.72 487.85 717.21"/>
<path stroke="#75797a" vector-effect="non-scaling-stroke" d="   M 487.85 717.21   C 489.81 704.07 472.97 700.53 468.79 711.91"/>
<path stroke="#d8e2e3" vector-effect="non-scaling-stroke" d="   M 468.79 711.91   Q 431.11 701.02 396.56 682.93   C 388.05 678.47 377.83 671.94 369.80 667.45   Q 368.41 666.68 365.52 666.40"/>
<path stroke="#64696a" vector-effect="non-scaling-stroke" d="   M 468.79 711.91   C 466.19 720.88 474.86 728.20 483.10 723.52   Q 486.75 721.45 487.85 717.21"/>
<path stroke="#41474a" vector-effect="non-scaling-stroke" d="   M 314.75 730.45   A 1.50 1.50 0.0 0 0 315.35 731.65   Q 322.21 736.77 328.78 740.25   Q 361.06 757.33 397.24 770.00   Q 411.70 775.06 439.13 783.52   C 450.64 787.07 462.36 788.94 473.35 791.35   C 503.23 797.89 534.31 799.62 564.72 797.44   Q 568.71 797.16 587.56 794.37   Q 610.95 790.91 627.40 784.08   Q 627.41 784.07 628.05 783.88   Q 629.33 783.50 629.11 782.05   A 1.34 1.34 0.0 0 0 627.54 780.93   Q 621.28 782.06 613.81 782.81   Q 591.40 785.05 570.51 786.00   C 540.24 787.37 510.69 785.05 478.61 781.23   C 468.15 779.98 454.86 776.99 446.28 775.49   Q 436.02 773.70 422.25 770.10   Q 381.51 759.43 345.80 742.72   Q 335.13 737.72 315.45 726.37   A 0.47 0.46 15.0 0 0 314.75 726.77   L 314.75 730.45"/>
<path stroke="#75797a" vector-effect="non-scaling-stroke" d="   M 403.53 805.91   Q 431.99 817.72 461.97 826.45   Q 482.74 832.50 504.91 837.33   Q 545.62 846.20 585.51 844.56   C 615.07 843.35 657.74 834.10 666.15 801.13   A 1.18 1.17 -56.5 0 0 665.95 800.13   Q 658.36 790.10 648.44 783.55   Q 647.60 783.00 647.09 782.86   A 0.46 0.46 0.0 0 0 646.52 783.39   C 646.97 785.80 648.10 789.07 648.42 792.12   C 650.92 815.58 629.06 826.57 609.75 831.01   C 579.49 837.98 550.88 836.59 518.86 830.37   C 495.37 825.80 473.58 819.25 451.33 811.88   C 436.44 806.94 420.99 800.63 405.84 794.51"/>
<path stroke="#64696a" vector-effect="non-scaling-stroke" d="   M 405.84 794.51   Q 370.57 779.40 336.12 760.31   Q 319.13 750.89 307.67 743.35   A 0.52 0.51 -47.8 0 0 307.07 743.38   L 298.87 749.85   A 0.57 0.56 43.4 0 0 298.90 750.76   Q 347.95 784.26 403.53 805.91"/>
<path stroke="#d8e2e3" vector-effect="non-scaling-stroke" d="   M 405.84 794.51   Q 403.99 799.13 403.53 805.91"/>
<path stroke="#75797a" vector-effect="non-scaling-stroke" d="   M 394.47 901.81   Q 433.29 906.81 472.82 907.95   A 0.58 0.57 2.1 0 0 473.41 907.41   Q 475.77 871.12 471.32 834.76   A 0.78 0.78 0.0 0 0 470.73 834.09   Q 450.50 829.03 427.53 820.60   Q 416.34 816.50 403.68 811.63"/>
<path stroke="#64696a" vector-effect="non-scaling-stroke" d="   M 403.68 811.63   Q 365.33 796.60 328.22 775.20   Q 308.95 764.08 295.10 754.52   A 0.51 0.50 38.3 0 0 294.45 754.59   Q 286.24 763.40 278.22 775.61   A 0.33 0.33 0.0 0 0 278.55 776.12   Q 316.69 769.65 344.03 793.35   C 369.19 815.16 377.48 850.19 371.08 881.62   Q 369.66 888.61 366.92 897.03   A 0.52 0.52 0.0 0 0 367.34 897.71   L 394.47 901.81"/>
<path stroke="#d8e2e3" vector-effect="non-scaling-stroke" d="   M 403.68 811.63   Q 403.94 839.36 400.55 864.28   Q 398.55 878.98 397.65 885.78   C 396.95 891.13 395.57 896.41 394.47 901.81"/>
<path stroke="#41474a" vector-effect="non-scaling-stroke" d="   M 406.97 779.60   A 0.22 0.22 0.0 0 0 407.19 779.25   Q 406.86 778.89 406.60 778.85   A 0.31 0.31 0.0 0 0 406.33 779.37   Q 406.41 779.45 406.97 779.60"/>
<path stroke="#41474a" vector-effect="non-scaling-stroke" d="   M 407.59 779.56   A 0.23 0.22 -69.0 0 0 407.71 779.84   Q 420.74 785.55 434.55 791.19   C 443.24 794.75 452.15 797.22 460.76 800.44   Q 470.43 804.04 480.55 806.92   Q 502.94 813.28 527.99 817.98   Q 560.29 824.03 590.02 820.52   Q 606.01 818.62 619.28 813.26   C 624.84 811.02 630.97 807.86 632.97 802.07   C 634.27 798.34 633.21 792.62 632.15 788.75   A 0.54 0.54 0.0 0 0 631.45 788.38   C 616.90 793.40 600.66 798.06 584.39 800.11   C 554.06 803.94 524.71 804.59 494.91 800.12   C 477.11 797.45 462.24 795.37 444.84 790.30   Q 433.19 786.91 421.49 783.78   Q 420.04 783.39 407.84 779.44   A 0.19 0.18 18.9 0 0 407.60 779.55   L 407.59 779.56"/>
<path stroke="#64696a" vector-effect="non-scaling-stroke" d="   M 336.72 892.05   L 350.63 894.78   A 0.66 0.64 -72.5 0 0 351.36 894.39   C 356.93 880.92 357.99 867.17 357.06 852.75   Q 356.49 843.75 353.55 836.04"/>
<path stroke="#75797a" vector-effect="non-scaling-stroke" d="   M 353.55 836.04   C 347.30 814.44 331.51 797.06 309.48 791.51   C 270.24 781.62 235.50 811.86 220.24 844.76   Q 219.54 846.27 219.17 847.58   A 0.91 0.91 0.0 0 0 219.59 848.60   L 229.82 854.51   A 1.10 1.09 21.4 0 0 231.43 853.81   Q 236.61 831.47 254.88 818.21   Q 262.39 812.75 271.21 811.55   Q 290.10 808.98 301.05 823.72   C 313.70 840.74 309.43 864.13 298.81 881.27   A 0.60 0.60 0.0 0 0 299.17 882.17   L 336.72 892.05"/>
<path stroke="#d8e2e3" vector-effect="non-scaling-stroke" d="   M 353.55 836.04   Q 351.31 840.20 351.34 843.75   Q 351.36 847.53 350.97 850.26   Q 349.29 862.00 345.44 873.16   Q 345.24 873.75 343.20 880.64   Q 341.28 887.12 336.72 892.05"/>
<path stroke="#7e7e7e" vector-effect="non-scaling-stroke" d="   M 664.26 888.78   Q 677.41 885.18 689.97 879.54"/>
<path stroke="#75797a" vector-effect="non-scaling-stroke" d="   M 689.97 879.54   L 699.90 874.11   A 0.55 0.55 0.0 0 0 700.17 873.51   Q 696.94 857.83 691.20 843.62   C 685.71 830.01 679.42 817.03 670.34 805.43   A 0.23 0.22 33.2 0 0 669.94 805.51   Q 668.07 812.81 663.34 818.85   C 651.18 834.38 633.96 842.11 614.67 845.89   C 587.20 851.28 559.22 850.55 531.81 847.11   Q 510.12 844.39 477.05 835.94   A 0.39 0.38 3.6 0 0 476.57 836.36   Q 480.82 871.64 478.31 907.36   A 0.69 0.69 0.0 0 0 478.98 908.10   C 535.55 909.30 592.64 905.09 648.67 892.89   Q 656.42 891.20 664.26 888.78"/>
<path stroke="#f3f7f8" vector-effect="non-scaling-stroke" d="   M 689.97 879.54   C 687.02 865.80 683.16 851.87 677.09 839.58   C 674.81 834.97 671.45 830.37 666.25 829.55   C 657.52 828.16 652.92 836.22 654.46 843.85   Q 655.79 850.45 658.49 860.27   Q 660.44 867.31 664.26 888.78"/>
<path stroke="#64696a" vector-effect="non-scaling-stroke" d="   M 291.29 878.67   C 299.92 866.70 303.85 851.27 299.62 836.70   C 296.74 826.79 288.99 818.75 278.47 818.20   C 257.00 817.08 241.60 838.77 237.86 857.41   A 0.85 0.85 0.0 0 0 238.32 858.34   Q 262.59 870.29 289.91 879.12   A 1.24 1.23 -62.8 0 0 291.29 878.67"/>
<path stroke="#75797a" vector-effect="non-scaling-stroke" d="   M 331.38 385.50   C 344.12 386.48 358.21 376.77 357.74 362.66   Q 357.60 358.54 357.06 355.74   Q 340.60 270.27 291.75 198.26   C 274.58 172.95 253.48 149.41 229.19 131.65   C 213.50 120.19 178.06 100.23 162.16 122.13   C 157.16 129.02 155.61 138.96 155.90 147.51   C 156.75 172.16 163.99 197.28 172.95 219.27   Q 207.33 303.66 280.95 357.55   Q 302.37 373.23 327.17 384.35   Q 329.41 385.35 331.38 385.50"/>
<path stroke="#7e2554" vector-effect="non-scaling-stroke" d="   M 826.68 365.09   L 840.66 382.80   A 2.42 2.40 -20.2 0 0 842.65 383.71   Q 888.78 381.65 932.15 366.18   Q 956.94 357.34 978.86 343.35   C 1005.57 326.30 1024.40 300.48 1022.33 267.40   C 1021.21 249.65 1014.56 233.64 1005.93 218.10   Q 996.71 201.50 996.59 181.48   Q 996.52 170.08 997.30 147.25   Q 997.60 138.47 996.07 127.72   Q 994.41 116.09 987.75 107.53   Q 980.96 98.80 969.61 100.59   Q 959.34 102.20 950.20 107.71   Q 937.34 115.44 925.94 126.46   Q 903.75 147.93 886.86 173.58   C 867.57 202.88 852.18 236.38 841.58 271.12   C 832.57 300.62 828.23 331.80 826.19 363.50   A 2.32 2.32 0.0 0 0 826.68 365.09"/>
<path stroke="#46123a" vector-effect="non-scaling-stroke" d="   M 785.1899 334.5059   A 18.89 17.19 -74.4 0 0 763.5532 348.0773   A 18.89 17.19 -74.4 0 0 775.0301 370.8941   A 18.89 17.19 -74.4 0 0 796.6668 357.3227   A 18.89 17.19 -74.4 0 0 785.1899 334.5059"/>
<path stroke="#7e2554" vector-effect="non-scaling-stroke" d="   M 856.12 405.29   Q 856.25 405.90 856.59 406.46   Q 863.13 417.18 872.23 433.79   Q 874.43 437.81 882.30 456.47   C 884.19 460.93 886.02 464.21 888.83 467.65   C 909.50 492.91 935.56 512.97 966.70 523.54   Q 987.92 530.74 1008.99 528.60   Q 1013.04 528.19 1017.34 525.62   C 1028.34 519.06 1020.55 506.04 1025.12 497.16   C 1032.23 483.35 1037.45 468.29 1038.31 452.82   C 1039.72 427.08 1021.73 404.83 1000.27 392.72   C 989.58 386.69 977.17 381.73 964.63 380.70   Q 958.38 380.18 955.14 381.37   Q 949.40 383.48 934.80 388.52   Q 896.71 401.67 856.42 404.88   A 0.34 0.34 0.0 0 0 856.12 405.29"/>
<path stroke="#46123a" vector-effect="non-scaling-stroke" d="   M 808.04 382.47   L 800.11 387.06   A 1.84 1.84 0.0 0 0 799.22 389.02   Q 799.76 391.72 803.29 407.73   Q 804.51 413.24 807.87 421.38   C 814.15 436.57 821.93 450.39 832.74 462.47   C 843.52 474.50 853.03 483.97 865.24 492.36   Q 867.42 493.86 869.31 494.58   A 0.63 0.62 -85.9 0 0 870.14 493.86   Q 866.94 479.20 862.86 467.89   Q 860.57 461.53 853.62 446.63   C 846.84 432.10 839.44 420.97 830.53 408.05   C 824.89 399.86 816.94 391.28 809.57 382.73   A 1.23 1.21 -35.0 0 0 808.04 382.47"/>
<path stroke="#fb69b8" vector-effect="non-scaling-stroke" d="   M 966.97 245.72   A 1.24 1.23 18.1 0 1 966.27 244.36   Q 968.81 231.77 969.64 220.00   C 970.55 207.22 969.84 195.57 963.95 183.92   Q 960.23 176.56 953.87 174.58   Q 942.63 171.07 931.74 175.35   Q 924.69 178.12 915.90 186.81   Q 908.17 194.44 902.93 201.67   C 891.34 217.67 881.44 236.38 873.47 254.31   Q 860.20 284.13 853.83 317.54   Q 851.77 328.34 851.40 338.24   C 851.20 343.72 850.52 352.62 856.65 355.28   Q 858.82 356.22 865.50 356.49   Q 881.50 357.13 899.33 351.78   Q 908.75 348.96 911.93 347.66   Q 928.77 340.79 947.95 329.46   Q 962.79 320.69 973.47 308.99   Q 990.27 290.58 986.27 265.51   Q 984.38 253.68 972.79 247.74   C 971.17 246.91 968.71 246.50 966.97 245.72"/>
<path stroke="#7e4855" vector-effect="non-scaling-stroke" d="   M 350.24 365.78   A 8.13 8.10 -39.9 0 0 350.54 362.50   Q 349.46 352.59 347.12 342.32   Q 335.05 289.23 308.44 239.06   Q 297.09 217.66 280.62 194.39   Q 267.29 175.56 247.36 155.91   Q 232.83 141.59 216.07 131.21   Q 202.05 122.52 187.61 119.71   C 162.02 114.73 161.25 141.91 163.51 158.76   C 167.78 190.64 179.79 222.28 195.22 250.29   Q 235.82 324.00 308.01 367.01   Q 314.03 370.60 323.49 374.92   Q 330.17 377.97 331.67 378.23   C 339.97 379.67 347.96 373.38 350.24 365.78"/>
<path stroke="#f3f7f8" vector-effect="non-scaling-stroke" d="   M 468.6599 219.8630   A 10.53 6.57 -106.1 0 0 465.2677 231.8020   A 10.53 6.57 -106.1 0 0 474.5001 240.0970   A 10.53 6.57 -106.1 0 0 477.8923 228.1580   A 10.53 6.57 -106.1 0 0 468.6599 219.8630"/>
<path stroke="#75797a" vector-effect="non-scaling-stroke" d="   M 587.8403 369.5966   A 9.91 9.76 -6.8 0 0 576.8444 361.0787   A 9.91 9.76 -6.8 0 0 568.1597 371.9434   A 9.91 9.76 -6.8 0 0 579.1556 380.4613   A 9.91 9.76 -6.8 0 0 587.8403 369.5966"/>
<path stroke="#f3f7f8" vector-effect="non-scaling-stroke" d="   M 678.41 405.66   C 684.17 402.92 684.77 395.83 682.63 390.45   C 679.39 382.31 672.11 374.91 662.63 374.64   C 653.45 374.38 646.37 380.56 649.10 390.21   C 652.02 400.52 668.15 410.53 678.41 405.66"/>
<path stroke="#75797a" vector-effect="non-scaling-stroke" d="   M 620.76 502.44   C 624.79 511.05 636.70 511.35 640.21 502.14   Q 641.70 498.21 641.00 495.56   Q 634.39 470.68 613.46 455.81   C 595.46 443.02 572.79 444.65 556.74 459.85   Q 539.62 476.05 535.96 499.52   C 534.85 506.61 538.47 514.94 546.89 514.40   C 553.85 513.96 556.50 509.44 558.18 502.99   C 561.33 490.88 567.57 480.79 579.32 476.90   C 593.39 472.25 607.02 478.84 614.57 490.96   Q 617.90 496.31 620.76 502.44"/>
<path stroke="#f2d9de" vector-effect="non-scaling-stroke" d="   M 578.2947 579.2412   A 73.16 50.86 -2.6 0 0 502.9028 531.7524   A 73.16 50.86 -2.6 0 0 432.1253 585.8788   A 73.16 50.86 -2.6 0 0 507.5172 633.3676   A 73.16 50.86 -2.6 0 0 578.2947 579.2412"/>
<path stroke="#64696a" vector-effect="non-scaling-stroke" d="   M 582.98 370.79   A 4.85 4.85 0.0 0 0 578.13 365.94   A 4.85 4.85 0.0 0 0 573.28 370.79   A 4.85 4.85 0.0 0 0 578.13 375.64   A 4.85 4.85 0.0 0 0 582.98 370.79"/>
<path stroke="#fb69b8" vector-effect="non-scaling-stroke" d="   M 1004.72 470.25   C 1009.75 461.19 1010.15 451.10 1006.13 441.37   Q 1000.25 427.17 988.72 420.09   C 965.04 405.55 930.58 406.75 905.43 415.81   C 899.95 417.78 894.28 420.90 896.95 427.56   Q 902.77 442.05 910.37 451.67   Q 920.03 463.89 934.67 474.97   Q 942.42 480.84 950.85 484.04   C 960.71 487.78 970.66 489.95 980.57 488.56   C 990.64 487.16 1000.06 478.62 1004.72 470.25"/>
<path stroke="#64696a" vector-effect="non-scaling-stroke" d="   M 276.15 483.54   A 5.04 5.04 0.0 0 0 271.11 478.50   A 5.04 5.04 0.0 0 0 266.07 483.54   A 5.04 5.04 0.0 0 0 271.11 488.58   A 5.04 5.04 0.0 0 0 276.15 483.54"/>
<path stroke="#64696a" vector-effect="non-scaling-stroke" d="   M 240.74 568.33   A 48.98 28.55 75.0 0 0 237.06 586.51   A 48.90 28.61 74.9 0 0 253.40 636.58   A 48.78 28.59 75.0 0 0 269.35 648.50   A 48.90 28.60 74.9 0 0 282.35 648.25   A 48.96 28.64 74.9 0 0 293.45 636.74"/>
<path stroke="#75797a" vector-effect="non-scaling-stroke" d="   M 293.45 636.74   A 48.65 28.04 75.4 0 0 296.36 628.38   A 48.93 28.58 74.9 0 0 296.62 601.29   A 48.93 28.61 74.8 0 0 287.56 575.91   A 48.85 28.57 74.9 0 0 273.61 559.40   A 48.80 28.61 75.1 0 0 265.99 555.23   A 48.96 28.65 75.0 0 0 251.05 556.03   A 48.98 28.66 74.9 0 0 240.74 568.33"/>
<path stroke="#d8e2e3" vector-effect="non-scaling-stroke" d="   M 293.45 636.74   C 285.76 636.12 280.40 633.60 273.61 629.77   Q 268.13 626.68 265.39 623.89   C 256.72 615.05 250.42 604.04 246.94 592.29   Q 244.59 584.37 242.80 574.73   Q 242.28 571.91 240.74 568.33"/>
<path stroke="#64696a" vector-effect="non-scaling-stroke" d="   M 483.14 715.06   A 4.82 4.82 0.0 0 0 478.32 710.24   A 4.82 4.82 0.0 0 0 473.50 715.06   A 4.82 4.82 0.0 0 0 478.32 719.88   A 4.82 4.82 0.0 0 0 483.14 715.06"/>
</g>
<path fill="#000000" d="   M 315.61 0.00   Q 336.30 2.58 353.26 9.95   C 378.36 20.84 400.65 37.14 419.83 56.46   Q 457.19 94.09 480.21 142.59   Q 494.53 172.78 503.41 203.60   Q 515.36 245.07 520.56 289.50   A 0.85 0.84 -3.1 0 0 521.39 290.24   Q 563.92 290.50 604.54 302.21   C 648.89 314.99 688.51 340.07 715.75 377.23   Q 726.97 392.52 733.66 405.14   Q 747.92 432.03 756.19 445.86   C 766.22 462.63 783.56 474.69 800.90 483.35   Q 818.84 492.31 825.54 496.20   Q 833.79 500.97 837.96 508.58   C 842.87 517.54 845.39 528.10 845.97 538.24   Q 846.70 551.07 841.27 562.98   A 7.98 7.94 55.5 0 0 840.57 566.80   C 841.62 582.01 839.66 595.94 835.79 610.52   C 832.09 624.50 824.44 640.05 814.02 650.44   A 4.04 3.99 78.3 0 0 813.15 651.78   Q 797.08 693.59 763.57 722.83   Q 748.38 736.08 734.68 744.19   Q 702.31 763.36 665.10 773.06   A 0.51 0.51 0.0 0 0 664.89 773.94   Q 682.14 788.62 693.98 808.17   C 706.26 828.44 715.06 851.64 719.27 875.01   Q 720.10 879.65 719.88 882.71   A 2.60 2.58 72.2 0 1 718.97 884.50   Q 714.85 888.01 708.22 891.72   C 685.93 904.22 659.17 911.40 633.79 916.03   Q 599.57 922.26 563.88 925.12   Q 556.19 925.73 525.00 927.45   Q 522.94 927.56 521.00 928.00   L 472.77 928.00   Q 456.03 926.69 439.27 925.76   Q 374.47 922.14 314.57 906.42   C 272.52 895.38 233.64 880.04 196.93 857.83   A 0.79 0.78 25.2 0 1 196.59 856.91   C 202.40 839.86 211.03 822.78 223.11 809.20   C 231.38 799.88 240.58 791.57 251.44 785.89   A 3.34 3.34 0.0 0 0 252.87 784.43   Q 257.36 775.56 261.28 768.79   Q 273.20 748.26 290.79 733.88   C 292.70 732.32 295.56 730.69 297.75 729.01   A 1.00 0.99 -18.9 0 0 298.14 728.22   L 298.14 715.69   A 0.84 0.81 18.3 0 0 297.79 715.02   Q 283.29 704.88 271.17 693.08   C 264.09 686.17 258.81 679.42 253.22 671.98   A 23.96 23.70 1.5 0 0 249.36 667.95   Q 245.62 664.88 242.86 662.38   Q 229.61 650.35 221.21 631.33   C 208.71 603.01 208.56 569.42 224.94 542.73   A 4.16 4.15 62.6 0 0 225.56 540.77   C 228.57 493.32 242.54 445.48 267.95 405.03   A 0.94 0.93 32.4 0 0 267.66 403.75   C 238.55 385.32 209.95 363.77 186.79 339.01   Q 147.79 297.32 125.52 244.68   C 115.24 220.36 108.46 195.18 104.02 169.24   Q 99.72 144.18 100.09 115.76   C 100.43 89.63 107.26 64.41 132.02 52.33   C 148.90 44.10 167.33 43.37 185.93 47.38   C 217.40 54.15 244.84 72.04 269.01 92.86   A 0.51 0.51 0.0 0 0 269.83 92.36   Q 265.09 71.83 265.91 51.63   C 266.84 28.60 274.04 6.74 299.29 1.42   Q 302.78 0.68 306.25 0.00   L 315.61 0.00   Z   M 288.02 36.12   Q 284.06 53.72 286.29 72.00   Q 289.24 96.09 296.59 119.18   A 4.40 4.37 -74.5 0 0 297.50 120.80   C 311.98 137.26 324.17 155.08 335.20 173.93   A 0.61 0.60 -39.4 0 0 336.18 174.02   L 348.13 160.49   Q 352.44 156.31 355.77 153.28   Q 381.00 130.29 412.61 122.58   Q 423.43 119.72 433.12 119.04   L 443.20 118.68   A 0.30 0.29 -17.1 0 0 443.44 118.23   Q 421.56 82.90 390.42 56.84   C 371.25 40.81 350.08 28.42 326.02 22.48   C 311.76 18.96 292.24 17.26 288.02 36.12   Z   M 123.48 161.25   Q 123.55 163.53 123.91 165.76   C 133.68 226.11 161.25 284.03 204.07 327.86   C 219.48 343.64 237.45 359.22 255.64 372.15   Q 259.22 374.69 275.03 385.29   C 283.80 391.16 296.89 398.29 303.54 402.19   Q 311.01 406.57 308.51 414.99   A 0.60 0.60 0.0 0 0 309.12 415.76   Q 320.24 415.21 331.19 411.32   Q 334.27 410.29 337.50 408.76   C 356.14 399.92 373.30 385.82 383.21 367.48   Q 385.33 363.56 386.56 358.31   A 0.41 0.40 85.2 0 0 386.01 357.84   C 379.15 360.72 373.26 355.27 372.32 348.69   Q 370.04 332.69 367.54 321.45   C 361.11 292.57 353.22 263.98 342.69 236.07   Q 323.77 185.94 291.14 144.34   C 277.25 126.63 259.49 109.07 242.13 96.64   C 221.57 81.91 200.73 70.42 177.48 66.12   C 158.18 62.55 130.89 66.82 124.46 88.72   Q 119.85 104.45 119.91 121.51   Q 119.99 141.55 123.48 161.25   Z   M 436.41 123.80   Q 425.71 124.71 414.80 127.18   Q 412.28 127.73 409.53 128.57   Q 375.05 139.06 350.81 165.11   Q 343.91 171.71 338.69 179.06   A 0.92 0.92 0.0 0 0 338.64 180.05   C 348.43 197.54 356.42 215.81 363.39 234.62   Q 365.93 241.47 368.15 250.17   A 8.85 8.78 17.9 0 0 369.96 253.68   Q 385.18 271.76 398.80 287.20   Q 405.99 295.37 413.89 302.60   A 1.76 1.76 0.0 0 0 415.59 302.99   C 443.02 294.67 471.52 290.98 500.45 290.13   A 0.42 0.41 85.6 0 0 500.85 289.66   L 499.85 281.39   C 497.61 262.49 493.15 242.61 488.73 225.26   C 481.73 197.77 472.22 170.89 459.33 145.81   Q 453.25 133.98 447.46 123.95   A 1.24 1.24 0.0 0 0 446.32 123.33   L 436.41 123.80   Z   M 380.19 290.13   Q 379.91 290.33 380.03 290.74   Q 383.12 301.59 385.09 312.06   A 0.67 0.67 0.0 0 0 385.98 312.56   L 396.57 308.64   A 0.60 0.60 0.0 0 0 396.81 307.67   L 380.58 290.16   A 0.29 0.29 0.0 0 0 380.19 290.13   Z   M 428.71 318.90   Q 409.03 323.89 390.05 331.37   A 0.39 0.39 0.0 0 0 390.19 332.13   Q 411.31 332.18 432.26 335.72   Q 511.43 349.13 579.36 391.61   A 1.31 1.30 44.0 0 0 580.78 391.59   Q 600.10 378.63 622.02 370.34   Q 638.80 363.66 656.54 360.11   L 670.49 358.09   A 0.49 0.48 60.2 0 0 670.72 357.23   Q 655.01 344.63 637.81 335.91   C 597.30 315.35 549.80 307.69 504.69 309.37   Q 466.20 309.43 428.71 318.90   Z   M 302.32 427.11   Q 291.97 424.36 288.33 415.19   L 285.37 413.68   A 0.64 0.63 -59.1 0 0 284.55 413.89   Q 280.54 419.69 277.76 424.98   C 271.96 436.04 266.78 446.26 262.55 457.07   Q 261.35 460.13 255.60 478.10   C 252.01 489.31 249.40 503.04 247.52 511.74   Q 247.48 511.90 247.57 512.29   A 0.37 0.37 0.0 0 0 248.15 512.51   L 256.63 506.47   Q 268.99 499.48 282.97 497.13   C 308.71 493.68 334.01 503.50 351.68 522.34   C 371.63 543.61 382.02 573.47 383.07 602.46   Q 383.96 627.09 374.49 650.09   A 0.64 0.63 26.3 0 0 374.76 650.88   Q 410.70 671.66 451.24 682.99   C 468.70 687.87 484.90 691.74 502.55 693.33   A 2.21 2.21 0.0 0 1 504.43 694.76   Q 506.38 700.05 507.46 706.01   Q 509.00 714.56 509.86 722.07   Q 511.38 744.38 507.70 765.21   A 0.80 0.79 7.5 0 0 508.42 766.14   Q 564.93 770.76 620.20 762.86   C 646.43 759.11 672.61 752.32 696.71 742.22   Q 732.33 727.30 759.23 700.98   Q 765.99 694.37 775.60 682.04   L 784.16 668.68   A 0.23 0.23 0.0 0 0 783.87 668.35   C 757.76 680.67 728.05 681.06 701.28 670.48   C 683.36 663.40 668.70 653.68 658.54 637.71   A 0.99 0.99 0.0 0 0 657.15 637.43   C 654.51 639.25 651.77 640.62 648.53 640.64   C 640.59 640.69 637.81 631.74 640.48 625.26   C 644.38 615.82 654.77 600.57 666.38 600.35   A 0.74 0.73 -3.3 0 0 667.10 599.55   C 665.85 585.42 667.32 573.25 670.73 559.40   C 680.83 518.42 711.07 480.12 755.87 475.71   A 0.20 0.20 0.0 0 0 756.00 475.37   Q 742.67 461.21 732.78 443.22   Q 723.22 425.84 716.54 413.46   Q 701.14 384.89 677.56 362.75   A 1.93 1.91 63.2 0 0 676.03 362.24   C 641.80 366.16 609.10 378.44 580.90 397.51   A 1.59 1.58 -45.8 0 1 579.17 397.54   Q 503.27 349.34 413.77 338.39   Q 401.79 336.93 391.19 337.35   A 0.91 0.91 0.0 0 0 390.71 339.01   C 398.09 344.04 400.71 352.05 399.20 360.66   C 397.11 372.48 390.05 382.97 381.62 391.90   C 366.12 408.31 347.70 420.32 326.40 426.12   Q 314.22 429.44 302.32 427.11   Z   M 779.87 493.84   A 0.40 0.40 0.0 0 0 779.97 493.10   Q 770.05 487.62 761.94 481.01   A 1.95 1.95 0.0 0 0 760.68 480.57   C 743.86 480.62 727.89 487.81 714.30 497.65   A 0.93 0.93 0.0 0 0 714.13 498.99   Q 716.69 502.16 720.62 505.14   Q 734.11 515.38 750.50 520.17   A 0.55 0.54 13.5 0 0 751.19 519.75   C 753.82 505.87 766.71 496.75 779.87 493.84   Z   M 709.26 502.34   Q 708.70 502.65 708.03 503.28   Q 695.74 514.90 687.60 530.08   C 677.31 549.29 671.10 571.60 671.49 593.25   Q 671.54 595.94 672.34 601.06   A 2.56 2.50 -72.4 0 0 673.03 602.43   C 674.57 603.98 677.87 608.03 677.35 610.29   Q 676.23 615.14 678.96 621.53   Q 682.68 630.21 683.77 632.13   C 686.21 636.42 688.17 638.06 692.50 641.03   C 708.43 651.98 727.29 656.28 746.38 655.62   C 761.38 655.09 775.89 649.90 789.36 642.90   A 1.95 1.95 0.0 0 0 790.13 642.16   Q 797.69 629.08 799.48 625.18   Q 808.90 604.79 810.24 581.50   A 0.34 0.33 12.7 0 0 810.03 581.18   C 793.79 574.69 778.12 565.65 765.83 553.24   C 757.79 545.13 751.39 537.13 750.80 526.05   A 0.96 0.95 7.9 0 0 750.16 525.21   Q 746.67 524.04 743.49 523.00   Q 724.30 516.74 710.18 502.47   A 0.76 0.76 0.0 0 0 709.26 502.34   Z   M 292.77 536.75   Q 305.81 545.42 314.45 558.57   Q 328.70 581.38 329.55 608.50   Q 329.93 620.58 326.91 632.27   Q 323.00 649.42 311.78 660.26   C 303.01 668.73 291.78 672.74 279.37 672.28   A 0.49 0.48 61.3 0 0 279.11 673.18   Q 297.91 684.27 318.86 680.59   C 327.48 679.08 336.19 675.08 342.49 669.48   Q 357.30 656.33 362.48 636.75   Q 368.99 615.32 366.68 595.75   C 364.40 576.41 358.38 557.51 347.03 541.51   Q 336.04 525.46 318.79 516.35   C 293.18 503.32 263.47 511.10 246.03 533.39   A 0.25 0.25 0.0 0 0 246.34 533.76   Q 251.96 530.96 258.23 529.51   C 270.03 526.79 282.47 530.79 292.77 536.75   Z   M 821.08 520.96   Q 818.59 516.68 814.00 513.97   Q 798.83 508.42 783.50 514.45   C 778.23 516.52 768.63 523.45 774.10 530.07   C 780.72 538.08 789.80 544.78 798.83 551.40   Q 807.26 557.57 816.09 561.18   A 2.34 2.34 0.0 0 0 818.77 560.52   C 828.11 549.40 827.25 533.33 821.08 520.96   Z   M 236.70 552.98   A 64.65 45.57 75.0 0 0 226.73 584.78   A 64.60 45.53 75.1 0 0 235.89 628.83   A 64.62 45.53 75.1 0 0 258.88 656.35   A 64.51 45.42 75.0 0 0 277.59 663.72   A 64.75 45.61 75.0 0 0 294.67 661.39   A 64.60 45.50 75.1 0 0 317.00 634.94   A 64.74 45.56 75.1 0 0 320.64 613.73   A 64.61 45.52 75.0 0 0 308.10 566.08   A 64.49 45.36 75.1 0 0 293.24 548.26   A 64.67 45.57 75.1 0 0 273.77 537.95   A 64.58 45.47 74.9 0 0 257.96 537.78   A 64.64 45.54 75.1 0 0 236.70 552.98   Z   M 797.90 640.45   L 803.54 640.45   A 0.93 0.92 -71.3 0 0 804.28 640.08   Q 813.09 628.54 816.54 620.27   Q 824.42 601.32 825.56 580.00   A 0.27 0.27 0.0 0 0 825.13 579.77   Q 820.91 582.94 815.58 582.47   A 0.60 0.60 0.0 0 0 814.93 583.05   Q 813.71 613.44 797.46 639.66   A 0.52 0.52 0.0 0 0 797.90 640.45   Z   M 365.52 666.40   Q 342.22 697.13 302.65 694.81   A 0.28 0.28 0.0 0 0 302.46 695.30   Q 310.07 701.70 318.42 707.10   C 348.86 726.80 382.18 740.73 416.76 750.25   Q 459.09 761.91 502.23 765.40   A 0.28 0.27 -81.7 0 0 502.52 765.18   Q 506.58 743.10 504.73 720.72   Q 503.75 709.88 500.89 699.46   A 1.68 1.66 -3.6 0 0 499.50 698.25   Q 461.00 693.16 423.01 679.21   Q 396.43 669.45 372.39 655.28   A 0.48 0.48 0.0 0 0 371.73 655.45   L 365.52 666.40   Z   M 314.75 730.45   A 1.50 1.50 0.0 0 0 315.35 731.65   Q 322.21 736.77 328.78 740.25   Q 361.06 757.33 397.24 770.00   Q 411.70 775.06 439.13 783.52   C 450.64 787.07 462.36 788.94 473.35 791.35   C 503.23 797.89 534.31 799.62 564.72 797.44   Q 568.71 797.16 587.56 794.37   Q 610.95 790.91 627.40 784.08   Q 627.41 784.07 628.05 783.88   Q 629.33 783.50 629.11 782.05   A 1.34 1.34 0.0 0 0 627.54 780.93   Q 621.28 782.06 613.81 782.81   Q 591.40 785.05 570.51 786.00   C 540.24 787.37 510.69 785.05 478.61 781.23   C 468.15 779.98 454.86 776.99 446.28 775.49   Q 436.02 773.70 422.25 770.10   Q 381.51 759.43 345.80 742.72   Q 335.13 737.72 315.45 726.37   A 0.47 0.46 15.0 0 0 314.75 726.77   L 314.75 730.45   Z   M 403.53 805.91   Q 431.99 817.72 461.97 826.45   Q 482.74 832.50 504.91 837.33   Q 545.62 846.20 585.51 844.56   C 615.07 843.35 657.74 834.10 666.15 801.13   A 1.18 1.17 -56.5 0 0 665.95 800.13   Q 658.36 790.10 648.44 783.55   Q 647.60 783.00 647.09 782.86   A 0.46 0.46 0.0 0 0 646.52 783.39   C 646.97 785.80 648.10 789.07 648.42 792.12   C 650.92 815.58 629.06 826.57 609.75 831.01   C 579.49 837.98 550.88 836.59 518.86 830.37   C 495.37 825.80 473.58 819.25 451.33 811.88   C 436.44 806.94 420.99 800.63 405.84 794.51   Q 370.57 779.40 336.12 760.31   Q 319.13 750.89 307.67 743.35   A 0.52 0.51 -47.8 0 0 307.07 743.38   L 298.87 749.85   A 0.57 0.56 43.4 0 0 298.90 750.76   Q 347.95 784.26 403.53 805.91   Z   M 394.47 901.81   Q 433.29 906.81 472.82 907.95   A 0.58 0.57 2.1 0 0 473.41 907.41   Q 475.77 871.12 471.32 834.76   A 0.78 0.78 0.0 0 0 470.73 834.09   Q 450.50 829.03 427.53 820.60   Q 416.34 816.50 403.68 811.63   Q 365.33 796.60 328.22 775.20   Q 308.95 764.08 295.10 754.52   A 0.51 0.50 38.3 0 0 294.45 754.59   Q 286.24 763.40 278.22 775.61   A 0.33 0.33 0.0 0 0 278.55 776.12   Q 316.69 769.65 344.03 793.35   C 369.19 815.16 377.48 850.19 371.08 881.62   Q 369.66 888.61 366.92 897.03   A 0.52 0.52 0.0 0 0 367.34 897.71   L 394.47 901.81   Z   M 406.97 779.60   A 0.22 0.22 0.0 0 0 407.19 779.25   Q 406.86 778.89 406.60 778.85   A 0.31 0.31 0.0 0 0 406.33 779.37   Q 406.41 779.45 406.97 779.60   Z   M 407.59 779.56   A 0.23 0.22 -69.0 0 0 407.71 779.84   Q 420.74 785.55 434.55 791.19   C 443.24 794.75 452.15 797.22 460.76 800.44   Q 470.43 804.04 480.55 806.92   Q 502.94 813.28 527.99 817.98   Q 560.29 824.03 590.02 820.52   Q 606.01 818.62 619.28 813.26   C 624.84 811.02 630.97 807.86 632.97 802.07   C 634.27 798.34 633.21 792.62 632.15 788.75   A 0.54 0.54 0.0 0 0 631.45 788.38   C 616.90 793.40 600.66 798.06 584.39 800.11   C 554.06 803.94 524.71 804.59 494.91 800.12   C 477.11 797.45 462.24 795.37 444.84 790.30   Q 433.19 786.91 421.49 783.78   Q 420.04 783.39 407.84 779.44   A 0.19 0.18 18.9 0 0 407.60 779.55   L 407.59 779.56   Z   M 336.72 892.05   L 350.63 894.78   A 0.66 0.64 -72.5 0 0 351.36 894.39   C 356.93 880.92 357.99 867.17 357.06 852.75   Q 356.49 843.75 353.55 836.04   C 347.30 814.44 331.51 797.06 309.48 791.51   C 270.24 781.62 235.50 811.86 220.24 844.76   Q 219.54 846.27 219.17 847.58   A 0.91 0.91 0.0 0 0 219.59 848.60   L 229.82 854.51   A 1.10 1.09 21.4 0 0 231.43 853.81   Q 236.61 831.47 254.88 818.21   Q 262.39 812.75 271.21 811.55   Q 290.10 808.98 301.05 823.72   C 313.70 840.74 309.43 864.13 298.81 881.27   A 0.60 0.60 0.0 0 0 299.17 882.17   L 336.72 892.05   Z   M 664.26 888.78   Q 677.41 885.18 689.97 879.54   L 699.90 874.11   A 0.55 0.55 0.0 0 0 700.17 873.51   Q 696.94 857.83 691.20 843.62   C 685.71 830.01 679.42 817.03 670.34 805.43   A 0.23 0.22 33.2 0 0 669.94 805.51   Q 668.07 812.81 663.34 818.85   C 651.18 834.38 633.96 842.11 614.67 845.89   C 587.20 851.28 559.22 850.55 531.81 847.11   Q 510.12 844.39 477.05 835.94   A 0.39 0.38 3.6 0 0 476.57 836.36   Q 480.82 871.64 478.31 907.36   A 0.69 0.69 0.0 0 0 478.98 908.10   C 535.55 909.30 592.64 905.09 648.67 892.89   Q 656.42 891.20 664.26 888.78   Z   M 291.29 878.67   C 299.92 866.70 303.85 851.27 299.62 836.70   C 296.74 826.79 288.99 818.75 278.47 818.20   C 257.00 817.08 241.60 838.77 237.86 857.41   A 0.85 0.85 0.0 0 0 238.32 858.34   Q 262.59 870.29 289.91 879.12   A 1.24 1.23 -62.8 0 0 291.29 878.67   Z"/>
<path fill="#e9f1f3" d="   M 433.12 119.04   C 426.34 102.45 413.54 90.72 399.04 76.54   Q 393.29 70.91 386.50 67.11   C 384.11 65.77 383.61 66.04 381.47 67.37   Q 380.07 68.25 380.73 70.57   Q 381.84 74.48 382.41 75.33   Q 398.02 98.82 412.61 122.58   Q 381.00 130.29 355.77 153.28   Q 352.44 156.31 348.13 160.49   Q 344.82 153.69 341.34 147.29   C 335.38 136.33 330.44 126.44 325.60 117.15   Q 306.53 80.50 293.84 49.33   C 293.09 47.50 291.47 44.19 290.51 42.93   C 289.57 41.70 290.30 40.32 288.96 39.06   A 1.95 1.94 -74.1 0 1 288.38 38.01   L 288.02 36.12   C 292.24 17.26 311.76 18.96 326.02 22.48   C 350.08 28.42 371.25 40.81 390.42 56.84   Q 421.56 82.90 443.44 118.23   A 0.30 0.29 -17.1 0 1 443.20 118.68   L 433.12 119.04   Z"/>
<path fill="#c7d2d3" d="   M 348.13 160.49   L 336.18 174.02   A 0.61 0.60 -39.4 0 1 335.20 173.93   C 324.17 155.08 311.98 137.26 297.50 120.80   A 4.40 4.37 -74.5 0 1 296.59 119.18   Q 289.24 96.09 286.29 72.00   Q 284.06 53.72 288.02 36.12   L 288.38 38.01   A 1.95 1.94 -74.1 0 0 288.96 39.06   C 290.30 40.32 289.57 41.70 290.51 42.93   C 291.47 44.19 293.09 47.50 293.84 49.33   Q 306.53 80.50 325.60 117.15   C 330.44 126.44 335.38 136.33 341.34 147.29   Q 344.82 153.69 348.13 160.49   Z"/>
<path fill="#e9f1f3" d="   M 331.19 411.32   Q 326.54 407.63 321.74 404.39   Q 315.45 400.15 312.28 397.55   Q 303.29 390.20 294.11 384.48   Q 292.34 383.38 284.74 376.64   Q 278.63 371.23 275.47 368.72   C 269.22 363.75 264.38 360.33 258.97 355.26   Q 257.01 353.41 249.46 346.80   C 237.99 336.74 224.01 323.16 212.98 310.61   Q 180.65 273.81 157.17 231.26   Q 149.36 217.10 141.27 198.78   Q 133.17 180.45 127.39 165.37   Q 125.94 161.59 123.48 161.25   Q 119.99 141.55 119.91 121.51   Q 119.85 104.45 124.46 88.72   C 130.89 66.82 158.18 62.55 177.48 66.12   C 200.73 70.42 221.57 81.91 242.13 96.64   C 259.49 109.07 277.25 126.63 291.14 144.34   Q 323.77 185.94 342.69 236.07   C 353.22 263.98 361.11 292.57 367.54 321.45   Q 370.04 332.69 372.32 348.69   C 373.26 355.27 379.15 360.72 386.01 357.84   A 0.41 0.40 85.2 0 1 386.56 358.31   Q 385.33 363.56 383.21 367.48   C 373.30 385.82 356.14 399.92 337.50 408.76   Q 334.27 410.29 331.19 411.32   Z   M 331.38 385.50   C 344.12 386.48 358.21 376.77 357.74 362.66   Q 357.60 358.54 357.06 355.74   Q 340.60 270.27 291.75 198.26   C 274.58 172.95 253.48 149.41 229.19 131.65   C 213.50 120.19 178.06 100.23 162.16 122.13   C 157.16 129.02 155.61 138.96 155.90 147.51   C 156.75 172.16 163.99 197.28 172.95 219.27   Q 207.33 303.66 280.95 357.55   Q 302.37 373.23 327.17 384.35   Q 329.41 385.35 331.38 385.50   Z"/>
<path fill="#fcfcfc" d="   M 433.12 119.04   Q 423.43 119.72 412.61 122.58   Q 398.02 98.82 382.41 75.33   Q 381.84 74.48 380.73 70.57   Q 380.07 68.25 381.47 67.37   C 383.61 66.04 384.11 65.77 386.50 67.11   Q 393.29 70.91 399.04 76.54   C 413.54 90.72 426.34 102.45 433.12 119.04   Z"/>
<path fill="#000000" d="   M 991.10 363.14   A 0.27 0.27 0.0 0 0 991.19 363.61   C 1034.76 378.02 1068.13 417.54 1059.66 465.20   Q 1056.92 480.62 1050.30 493.82   Q 1049.68 495.05 1046.02 502.19   A 3.56 3.56 0.0 0 0 1045.62 503.87   Q 1045.63 506.17 1045.95 510.48   C 1047.20 527.30 1037.78 541.81 1022.50 548.49   Q 1012.88 552.70 999.98 552.62   Q 974.78 552.48 951.32 542.45   Q 929.85 533.27 912.29 520.45   Q 902.82 513.53 893.37 505.24   A 0.59 0.59 0.0 0 0 892.41 505.81   C 893.55 510.65 894.58 517.26 891.94 521.37   C 887.50 528.28 880.34 527.63 873.71 523.78   Q 864.31 518.32 848.83 506.36   Q 835.23 495.85 825.70 486.58   Q 787.32 449.24 778.56 393.97   A 0.88 0.87 87.5 0 0 777.76 393.23   C 767.20 392.45 757.38 387.90 750.61 379.60   C 736.76 362.61 739.61 340.08 753.27 324.06   A 2.42 2.41 -38.0 0 0 753.60 321.43   Q 744.70 303.56 735.58 288.67   C 726.40 273.66 715.04 258.68 701.31 248.08   C 690.98 240.11 678.16 233.75 665.29 236.32   C 658.20 237.73 652.08 245.94 659.06 252.03   A 1.23 1.23 0.0 0 0 660.40 252.21   C 662.04 251.41 664.24 250.32 665.98 250.19   C 673.67 249.63 678.10 255.94 676.52 262.95   C 675.04 269.50 669.42 273.49 662.87 274.38   C 651.17 275.98 640.23 267.66 636.22 256.96   C 630.67 242.15 636.82 226.41 650.70 218.67   C 662.55 212.06 678.74 212.93 691.43 217.59   C 727.37 230.80 749.62 267.59 767.54 300.76   C 769.31 304.04 771.79 308.02 774.02 311.40   A 1.46 1.45 -61.5 0 0 776.69 310.61   C 776.93 278.67 772.37 245.10 760.11 215.64   C 752.18 196.60 735.17 174.77 713.00 172.82   A 0.33 0.33 0.0 0 0 712.71 173.35   Q 714.67 175.88 716.36 178.62   C 722.67 188.89 714.00 200.92 702.22 199.37   C 695.92 198.55 690.67 192.64 688.47 186.71   C 682.17 169.74 691.19 154.65 708.51 151.52   C 723.66 148.79 740.54 157.15 751.99 167.06   Q 763.92 177.39 771.45 189.54   C 785.02 211.44 792.20 237.69 795.59 263.98   Q 799.25 292.39 798.49 314.31   A 2.72 2.70 -68.2 0 0 799.38 316.41   L 807.93 324.14   A 0.48 0.48 0.0 0 0 808.73 323.84   C 813.11 281.93 825.89 240.36 844.40 202.80   C 863.34 164.38 886.47 130.36 918.16 102.67   C 935.77 87.28 959.06 73.75 982.72 78.29   C 995.37 80.73 1006.42 91.35 1012.00 103.05   C 1023.18 126.54 1018.61 151.55 1018.40 176.46   Q 1018.29 188.83 1021.42 197.82   Q 1022.70 201.53 1029.23 213.74   C 1036.57 227.49 1042.17 242.51 1044.20 258.24   C 1048.26 289.66 1038.57 318.77 1016.95 341.46   Q 1007.72 351.14 999.42 356.92   Q 995.55 359.62 991.10 363.14   Z   M 826.68 365.09   L 840.66 382.80   A 2.42 2.40 -20.2 0 0 842.65 383.71   Q 888.78 381.65 932.15 366.18   Q 956.94 357.34 978.86 343.35   C 1005.57 326.30 1024.40 300.48 1022.33 267.40   C 1021.21 249.65 1014.56 233.64 1005.93 218.10   Q 996.71 201.50 996.59 181.48   Q 996.52 170.08 997.30 147.25   Q 997.60 138.47 996.07 127.72   Q 994.41 116.09 987.75 107.53   Q 980.96 98.80 969.61 100.59   Q 959.34 102.20 950.20 107.71   Q 937.34 115.44 925.94 126.46   Q 903.75 147.93 886.86 173.58   C 867.57 202.88 852.18 236.38 841.58 271.12   C 832.57 300.62 828.23 331.80 826.19 363.50   A 2.32 2.32 0.0 0 0 826.68 365.09   Z   M 785.1899 334.5059   A 18.89 17.19 -74.4 0 0 763.5532 348.0773   A 18.89 17.19 -74.4 0 0 775.0301 370.8941   A 18.89 17.19 -74.4 0 0 796.6668 357.3227   A 18.89 17.19 -74.4 0 0 785.1899 334.5059   Z   M 856.12 405.29   Q 856.25 405.90 856.59 406.46   Q 863.13 417.18 872.23 433.79   Q 874.43 437.81 882.30 456.47   C 884.19 460.93 886.02 464.21 888.83 467.65   C 909.50 492.91 935.56 512.97 966.70 523.54   Q 987.92 530.74 1008.99 528.60   Q 1013.04 528.19 1017.34 525.62   C 1028.34 519.06 1020.55 506.04 1025.12 497.16   C 1032.23 483.35 1037.45 468.29 1038.31 452.82   C 1039.72 427.08 1021.73 404.83 1000.27 392.72   C 989.58 386.69 977.17 381.73 964.63 380.70   Q 958.38 380.18 955.14 381.37   Q 949.40 383.48 934.80 388.52   Q 896.71 401.67 856.42 404.88   A 0.34 0.34 0.0 0 0 856.12 405.29   Z   M 808.04 382.47   L 800.11 387.06   A 1.84 1.84 0.0 0 0 799.22 389.02   Q 799.76 391.72 803.29 407.73   Q 804.51 413.24 807.87 421.38   C 814.15 436.57 821.93 450.39 832.74 462.47   C 843.52 474.50 853.03 483.97 865.24 492.36   Q 867.42 493.86 869.31 494.58   A 0.63 0.62 -85.9 0 0 870.14 493.86   Q 866.94 479.20 862.86 467.89   Q 860.57 461.53 853.62 446.63   C 846.84 432.10 839.44 420.97 830.53 408.05   C 824.89 399.86 816.94 391.28 809.57 382.73   A 1.23 1.21 -35.0 0 0 808.04 382.47   Z"/>
<path fill="#fb4aa8" d="   M 826.68 365.09   A 2.32 2.32 0.0 0 1 826.19 363.50   C 828.23 331.80 832.57 300.62 841.58 271.12   C 852.18 236.38 867.57 202.88 886.86 173.58   Q 903.75 147.93 925.94 126.46   Q 937.34 115.44 950.20 107.71   Q 959.34 102.20 969.61 100.59   Q 980.96 98.80 987.75 107.53   Q 994.41 116.09 996.07 127.72   Q 997.60 138.47 997.30 147.25   Q 996.52 170.08 996.59 181.48   Q 996.71 201.50 1005.93 218.10   C 1014.56 233.64 1021.21 249.65 1022.33 267.40   C 1024.40 300.48 1005.57 326.30 978.86 343.35   Q 956.94 357.34 932.15 366.18   Q 888.78 381.65 842.65 383.71   A 2.42 2.40 -20.2 0 1 840.66 382.80   L 826.68 365.09   Z   M 966.97 245.72   A 1.24 1.23 18.1 0 1 966.27 244.36   Q 968.81 231.77 969.64 220.00   C 970.55 207.22 969.84 195.57 963.95 183.92   Q 960.23 176.56 953.87 174.58   Q 942.63 171.07 931.74 175.35   Q 924.69 178.12 915.90 186.81   Q 908.17 194.44 902.93 201.67   C 891.34 217.67 881.44 236.38 873.47 254.31   Q 860.20 284.13 853.83 317.54   Q 851.77 328.34 851.40 338.24   C 851.20 343.72 850.52 352.62 856.65 355.28   Q 858.82 356.22 865.50 356.49   Q 881.50 357.13 899.33 351.78   Q 908.75 348.96 911.93 347.66   Q 928.77 340.79 947.95 329.46   Q 962.79 320.69 973.47 308.99   Q 990.27 290.58 986.27 265.51   Q 984.38 253.68 972.79 247.74   C 971.17 246.91 968.71 246.50 966.97 245.72   Z"/>
<path fill="#000000" d="   M 331.38 385.50   Q 329.41 385.35 327.17 384.35   Q 302.37 373.23 280.95 357.55   Q 207.33 303.66 172.95 219.27   C 163.99 197.28 156.75 172.16 155.90 147.51   C 155.61 138.96 157.16 129.02 162.16 122.13   C 178.06 100.23 213.50 120.19 229.19 131.65   C 253.48 149.41 274.58 172.95 291.75 198.26   Q 340.60 270.27 357.06 355.74   Q 357.60 358.54 357.74 362.66   C 358.21 376.77 344.12 386.48 331.38 385.50   Z   M 350.24 365.78   A 8.13 8.10 -39.9 0 0 350.54 362.50   Q 349.46 352.59 347.12 342.32   Q 335.05 289.23 308.44 239.06   Q 297.09 217.66 280.62 194.39   Q 267.29 175.56 247.36 155.91   Q 232.83 141.59 216.07 131.21   Q 202.05 122.52 187.61 119.71   C 162.02 114.73 161.25 141.91 163.51 158.76   C 167.78 190.64 179.79 222.28 195.22 250.29   Q 235.82 324.00 308.01 367.01   Q 314.03 370.60 323.49 374.92   Q 330.17 377.97 331.67 378.23   C 339.97 379.67 347.96 373.38 350.24 365.78   Z"/>
<path fill="#fb8fa9" d="   M 350.24 365.78   C 347.96 373.38 339.97 379.67 331.67 378.23   Q 330.17 377.97 323.49 374.92   Q 314.03 370.60 308.01 367.01   Q 235.82 324.00 195.22 250.29   C 179.79 222.28 167.78 190.64 163.51 158.76   C 161.25 141.91 162.02 114.73 187.61 119.71   Q 202.05 122.52 216.07 131.21   Q 232.83 141.59 247.36 155.91   Q 267.29 175.56 280.62 194.39   Q 297.09 217.66 308.44 239.06   Q 335.05 289.23 347.12 342.32   Q 349.46 352.59 350.54 362.50   A 8.13 8.10 -39.9 0 1 350.24 365.78   Z"/>
<path fill="#e9f1f3" d="   M 499.85 281.39   Q 495.10 280.56 490.46 280.37   Q 483.23 280.07 481.07 279.86   Q 455.82 277.39 431.70 282.93   A 3.38 3.36 60.6 0 1 428.59 282.05   Q 427.46 280.93 426.21 279.34   Q 420.65 272.29 413.13 261.63   Q 391.49 230.96 371.51 199.61   Q 367.71 193.65 361.11 182.39   Q 356.02 173.72 350.81 165.11   Q 375.05 139.06 409.53 128.57   Q 412.28 127.73 414.80 127.18   Q 418.42 130.96 421.90 137.31   Q 443.01 175.85 452.07 194.95   C 453.89 198.79 455.85 201.53 459.22 203.34   A 2.32 2.31 -45.6 0 0 461.47 203.31   L 465.01 201.26   A 1.65 1.64 -14.7 0 0 465.84 199.85   Q 465.92 193.71 464.24 187.77   Q 461.07 176.51 455.10 160.92   C 452.30 153.63 447.93 144.47 444.62 136.17   Q 442.82 131.66 436.41 123.80   L 446.32 123.33   A 1.24 1.24 0.0 0 1 447.46 123.95   Q 453.25 133.98 459.33 145.81   C 472.22 170.89 481.73 197.77 488.73 225.26   C 493.15 242.61 497.61 262.49 499.85 281.39   Z   M 468.6599 219.8630   A 10.53 6.57 -106.1 0 0 465.2677 231.8020   A 10.53 6.57 -106.1 0 0 474.5001 240.0970   A 10.53 6.57 -106.1 0 0 477.8923 228.1580   A 10.53 6.57 -106.1 0 0 468.6599 219.8630   Z"/>
<path fill="#fcfcfc" d="   M 436.41 123.80   Q 442.82 131.66 444.62 136.17   C 447.93 144.47 452.30 153.63 455.10 160.92   Q 461.07 176.51 464.24 187.77   Q 465.92 193.71 465.84 199.85   A 1.65 1.64 -14.7 0 1 465.01 201.26   L 461.47 203.31   A 2.32 2.31 -45.6 0 1 459.22 203.34   C 455.85 201.53 453.89 198.79 452.07 194.95   Q 443.01 175.85 421.90 137.31   Q 418.42 130.96 414.80 127.18   Q 425.71 124.71 436.41 123.80   Z"/>
<path fill="#c7d2d3" d="   M 331.19 411.32   Q 320.24 415.21 309.12 415.76   A 0.60 0.60 0.0 0 1 308.51 414.99   Q 311.01 406.57 303.54 402.19   C 296.89 398.29 283.80 391.16 275.03 385.29   Q 259.22 374.69 255.64 372.15   C 237.45 359.22 219.48 343.64 204.07 327.86   C 161.25 284.03 133.68 226.11 123.91 165.76   Q 123.55 163.53 123.48 161.25   Q 125.94 161.59 127.39 165.37   Q 133.17 180.45 141.27 198.78   Q 149.36 217.10 157.17 231.26   Q 180.65 273.81 212.98 310.61   C 224.01 323.16 237.99 336.74 249.46 346.80   Q 257.01 353.41 258.97 355.26   C 264.38 360.33 269.22 363.75 275.47 368.72   Q 278.63 371.23 284.74 376.64   Q 292.34 383.38 294.11 384.48   Q 303.29 390.20 312.28 397.55   Q 315.45 400.15 321.74 404.39   Q 326.54 407.63 331.19 411.32   Z"/>
<path fill="#c7d2d3" d="   M 350.81 165.11   Q 356.02 173.72 361.11 182.39   Q 367.71 193.65 371.51 199.61   Q 391.49 230.96 413.13 261.63   Q 420.65 272.29 426.21 279.34   Q 427.46 280.93 428.59 282.05   A 3.38 3.36 60.6 0 0 431.70 282.93   Q 455.82 277.39 481.07 279.86   Q 483.23 280.07 490.46 280.37   Q 495.10 280.56 499.85 281.39   L 500.85 289.66   A 0.42 0.41 85.6 0 1 500.45 290.13   C 471.52 290.98 443.02 294.67 415.59 302.99   A 1.76 1.76 0.0 0 1 413.89 302.60   Q 405.99 295.37 398.80 287.20   Q 385.18 271.76 369.96 253.68   A 8.85 8.78 17.9 0 1 368.15 250.17   Q 365.93 241.47 363.39 234.62   C 356.42 215.81 348.43 197.54 338.64 180.05   A 0.92 0.92 0.0 0 1 338.69 179.06   Q 343.91 171.71 350.81 165.11   Z"/>
<path fill="#fb87c8" d="   M 966.97 245.72   C 968.71 246.50 971.17 246.91 972.79 247.74   Q 984.38 253.68 986.27 265.51   Q 990.27 290.58 973.47 308.99   Q 962.79 320.69 947.95 329.46   Q 928.77 340.79 911.93 347.66   Q 908.75 348.96 899.33 351.78   Q 881.50 357.13 865.50 356.49   Q 858.82 356.22 856.65 355.28   C 850.52 352.62 851.20 343.72 851.40 338.24   Q 851.77 328.34 853.83 317.54   Q 860.20 284.13 873.47 254.31   C 881.44 236.38 891.34 217.67 902.93 201.67   Q 908.17 194.44 915.90 186.81   Q 924.69 178.12 931.74 175.35   Q 942.63 171.07 953.87 174.58   Q 960.23 176.56 963.95 183.92   C 969.84 195.57 970.55 207.22 969.64 220.00   Q 968.81 231.77 966.27 244.36   A 1.24 1.23 18.1 0 0 966.97 245.72   Z"/>
<ellipse fill="#fcfcfc" cx="0.00" cy="0.00" transform="translate(471.58,229.98) rotate(-106.1)" rx="10.53" ry="6.57"/>
<path fill="#fcfcfc" d="   M 504.69 309.37   Q 507.82 311.83 511.61 313.03   A 3.34 3.29 54.9 0 0 512.49 313.19   C 517.68 313.43 521.87 314.48 523.72 319.56   A 2.07 2.06 58.6 0 1 523.19 321.78   Q 519.14 325.53 512.80 325.30   Q 498.72 324.80 479.85 322.82   Q 455.01 320.21 434.66 320.19   Q 433.31 320.19 428.71 318.90   Q 466.20 309.43 504.69 309.37   Z"/>
<path fill="#e9f1f3" d="   M 656.54 360.11   Q 650.59 358.16 646.86 355.15   Q 635.26 345.80 625.26 340.61   C 609.46 332.41 593.44 326.10 575.25 322.32   Q 561.14 319.39 549.90 318.41   C 544.87 317.97 539.55 318.49 535.67 321.91   A 2.01 2.01 0.0 0 0 535.07 323.94   Q 536.36 328.72 541.06 330.45   Q 564.56 339.06 566.44 339.79   C 577.31 344.03 590.08 350.54 601.70 357.53   C 605.87 360.04 615.12 365.25 622.02 370.34   Q 600.10 378.63 580.78 391.59   A 1.31 1.30 44.0 0 1 579.36 391.61   Q 511.43 349.13 432.26 335.72   Q 411.31 332.18 390.19 332.13   A 0.39 0.39 0.0 0 1 390.05 331.37   Q 409.03 323.89 428.71 318.90   Q 433.31 320.19 434.66 320.19   Q 455.01 320.21 479.85 322.82   Q 498.72 324.80 512.80 325.30   Q 519.14 325.53 523.19 321.78   A 2.07 2.06 58.6 0 0 523.72 319.56   C 521.87 314.48 517.68 313.43 512.49 313.19   A 3.34 3.29 54.9 0 1 511.61 313.03   Q 507.82 311.83 504.69 309.37   C 549.80 307.69 597.30 315.35 637.81 335.91   Q 655.01 344.63 670.72 357.23   A 0.49 0.48 60.2 0 1 670.49 358.09   L 656.54 360.11   Z   M 587.8403 369.5966   A 9.91 9.76 -6.8 0 0 576.8444 361.0787   A 9.91 9.76 -6.8 0 0 568.1597 371.9434   A 9.91 9.76 -6.8 0 0 579.1556 380.4613   A 9.91 9.76 -6.8 0 0 587.8403 369.5966   Z"/>
<path fill="#fcfcfc" d="   M 656.54 360.11   Q 638.80 363.66 622.02 370.34   C 615.12 365.25 605.87 360.04 601.70 357.53   C 590.08 350.54 577.31 344.03 566.44 339.79   Q 564.56 339.06 541.06 330.45   Q 536.36 328.72 535.07 323.94   A 2.01 2.01 0.0 0 1 535.67 321.91   C 539.55 318.49 544.87 317.97 549.90 318.41   Q 561.14 319.39 575.25 322.32   C 593.44 326.10 609.46 332.41 625.26 340.61   Q 635.26 345.80 646.86 355.15   Q 650.59 358.16 656.54 360.11   Z"/>
<ellipse fill="#8c2473" cx="0.00" cy="0.00" transform="translate(780.11,352.70) rotate(-74.4)" rx="18.89" ry="17.19"/>
<path fill="#e9f1f3" d="   M 775.60 682.04   Q 765.63 684.60 757.31 689.88   Q 751.78 693.40 749.29 694.54   Q 729.36 703.67 708.64 710.91   Q 694.66 715.80 674.88 720.23   C 654.30 724.84 632.16 727.37 612.25 728.64   Q 589.80 730.06 564.51 728.71   Q 549.14 727.89 527.31 724.85   Q 522.33 724.16 509.86 722.07   Q 509.00 714.56 507.46 706.01   Q 506.38 700.05 504.43 694.76   A 2.21 2.21 0.0 0 0 502.55 693.33   C 484.90 691.74 468.70 687.87 451.24 682.99   Q 410.70 671.66 374.76 650.88   A 0.64 0.63 26.3 0 1 374.49 650.09   Q 383.96 627.09 383.07 602.46   C 382.02 573.47 371.63 543.61 351.68 522.34   C 334.01 503.50 308.71 493.68 282.97 497.13   Q 282.97 490.54 284.72 482.44   C 288.92 463.00 294.15 444.34 302.32 427.11   Q 314.22 429.44 326.40 426.12   C 347.70 420.32 366.12 408.31 381.62 391.90   C 390.05 382.97 397.11 372.48 399.20 360.66   C 400.71 352.05 398.09 344.04 390.71 339.01   A 0.91 0.91 0.0 0 1 391.19 337.35   Q 401.79 336.93 413.77 338.39   Q 503.27 349.34 579.17 397.54   A 1.59 1.58 -45.8 0 0 580.90 397.51   C 609.10 378.44 641.80 366.16 676.03 362.24   A 1.93 1.91 63.2 0 1 677.56 362.75   Q 701.14 384.89 716.54 413.46   Q 723.22 425.84 732.78 443.22   Q 742.67 461.21 756.00 475.37   A 0.20 0.20 0.0 0 1 755.87 475.71   C 711.07 480.12 680.83 518.42 670.73 559.40   C 667.32 573.25 665.85 585.42 667.10 599.55   A 0.74 0.73 -3.3 0 1 666.38 600.35   C 654.77 600.57 644.38 615.82 640.48 625.26   C 637.81 631.74 640.59 640.69 648.53 640.64   C 651.77 640.62 654.51 639.25 657.15 637.43   A 0.99 0.99 0.0 0 1 658.54 637.71   C 668.70 653.68 683.36 663.40 701.28 670.48   C 728.05 681.06 757.76 680.67 783.87 668.35   A 0.23 0.23 0.0 0 1 784.16 668.68   L 775.60 682.04   Z   M 678.41 405.66   C 684.17 402.92 684.77 395.83 682.63 390.45   C 679.39 382.31 672.11 374.91 662.63 374.64   C 653.45 374.38 646.37 380.56 649.10 390.21   C 652.02 400.52 668.15 410.53 678.41 405.66   Z   M 620.76 502.44   C 624.79 511.05 636.70 511.35 640.21 502.14   Q 641.70 498.21 641.00 495.56   Q 634.39 470.68 613.46 455.81   C 595.46 443.02 572.79 444.65 556.74 459.85   Q 539.62 476.05 535.96 499.52   C 534.85 506.61 538.47 514.94 546.89 514.40   C 553.85 513.96 556.50 509.44 558.18 502.99   C 561.33 490.88 567.57 480.79 579.32 476.90   C 593.39 472.25 607.02 478.84 614.57 490.96   Q 617.90 496.31 620.76 502.44   Z   M 578.2947 579.2412   A 73.16 50.86 -2.6 0 0 502.9028 531.7524   A 73.16 50.86 -2.6 0 0 432.1253 585.8788   A 73.16 50.86 -2.6 0 0 507.5172 633.3676   A 73.16 50.86 -2.6 0 0 578.2947 579.2412   Z"/>
<path fill="#000000" d="   M 587.8403 369.5966   A 9.91 9.76 -6.8 0 1 579.1556 380.4613   A 9.91 9.76 -6.8 0 1 568.1597 371.9434   A 9.91 9.76 -6.8 0 1 576.8444 361.0787   A 9.91 9.76 -6.8 0 1 587.8403 369.5966   Z   M 582.98 370.79   A 4.85 4.85 0.0 0 0 578.13 365.94   A 4.85 4.85 0.0 0 0 573.28 370.79   A 4.85 4.85 0.0 0 0 578.13 375.64   A 4.85 4.85 0.0 0 0 582.98 370.79   Z"/>
<circle fill="#c7d2d3" cx="578.13" cy="370.79" r="4.85"/>
<path fill="#fcfcfc" d="   M 682.63 390.45   C 684.77 395.83 684.17 402.92 678.41 405.66   C 668.15 410.53 652.02 400.52 649.10 390.21   C 646.37 380.56 653.45 374.38 662.63 374.64   C 672.11 374.91 679.39 382.31 682.63 390.45   Z"/>
<path fill="#fb4aa8" d="   M 856.12 405.29   A 0.34 0.34 0.0 0 1 856.42 404.88   Q 896.71 401.67 934.80 388.52   Q 949.40 383.48 955.14 381.37   Q 958.38 380.18 964.63 380.70   C 977.17 381.73 989.58 386.69 1000.27 392.72   C 1021.73 404.83 1039.72 427.08 1038.31 452.82   C 1037.45 468.29 1032.23 483.35 1025.12 497.16   C 1020.55 506.04 1028.34 519.06 1017.34 525.62   Q 1013.04 528.19 1008.99 528.60   Q 987.92 530.74 966.70 523.54   C 935.56 512.97 909.50 492.91 888.83 467.65   C 886.02 464.21 884.19 460.93 882.30 456.47   Q 874.43 437.81 872.23 433.79   Q 863.13 417.18 856.59 406.46   Q 856.25 405.90 856.12 405.29   Z   M 1004.72 470.25   C 1009.75 461.19 1010.15 451.10 1006.13 441.37   Q 1000.25 427.17 988.72 420.09   C 965.04 405.55 930.58 406.75 905.43 415.81   C 899.95 417.78 894.28 420.90 896.95 427.56   Q 902.77 442.05 910.37 451.67   Q 920.03 463.89 934.67 474.97   Q 942.42 480.84 950.85 484.04   C 960.71 487.78 970.66 489.95 980.57 488.56   C 990.64 487.16 1000.06 478.62 1004.72 470.25   Z"/>
<path fill="#8c2473" d="   M 808.04 382.47   A 1.23 1.21 -35.0 0 1 809.57 382.73   C 816.94 391.28 824.89 399.86 830.53 408.05   C 839.44 420.97 846.84 432.10 853.62 446.63   Q 860.57 461.53 862.86 467.89   Q 866.94 479.20 870.14 493.86   A 0.63 0.62 -85.9 0 1 869.31 494.58   Q 867.42 493.86 865.24 492.36   C 853.03 483.97 843.52 474.50 832.74 462.47   C 821.93 450.39 814.15 436.57 807.87 421.38   Q 804.51 413.24 803.29 407.73   Q 799.76 391.72 799.22 389.02   A 1.84 1.84 0.0 0 1 800.11 387.06   L 808.04 382.47   Z"/>
<path fill="#fb87c8" d="   M 1004.72 470.25   C 1000.06 478.62 990.64 487.16 980.57 488.56   C 970.66 489.95 960.71 487.78 950.85 484.04   Q 942.42 480.84 934.67 474.97   Q 920.03 463.89 910.37 451.67   Q 902.77 442.05 896.95 427.56   C 894.28 420.90 899.95 417.78 905.43 415.81   C 930.58 406.75 965.04 405.55 988.72 420.09   Q 1000.25 427.17 1006.13 441.37   C 1010.15 451.10 1009.75 461.19 1004.72 470.25   Z"/>
<path fill="#e9f1f3" d="   M 288.33 415.19   Q 287.98 415.81 287.30 415.87   A 0.84 0.83 3.9 0 0 286.57 416.50   Q 285.05 422.57 281.68 427.75   C 278.53 432.61 276.21 438.31 274.65 442.68   Q 271.19 452.34 265.81 465.72   C 264.87 468.08 263.10 470.48 262.64 472.92   C 262.14 475.60 260.88 477.05 261.81 479.96   L 261.24 486.60   Q 257.66 496.24 256.63 506.47   L 248.15 512.51   A 0.37 0.37 0.0 0 1 247.57 512.29   Q 247.48 511.90 247.52 511.74   C 249.40 503.04 252.01 489.31 255.60 478.10   Q 261.35 460.13 262.55 457.07   C 266.78 446.26 271.96 436.04 277.76 424.98   Q 280.54 419.69 284.55 413.89   A 0.64 0.63 -59.1 0 1 285.37 413.68   L 288.33 415.19   Z"/>
<path fill="#c7d2d3" d="   M 302.32 427.11   C 294.15 444.34 288.92 463.00 284.72 482.44   Q 282.97 490.54 282.97 497.13   Q 268.99 499.48 256.63 506.47   Q 257.66 496.24 261.24 486.60   Q 263.91 492.41 268.67 493.36   C 275.50 494.71 281.89 489.65 280.86 482.64   C 279.34 472.26 266.12 470.43 261.81 479.96   C 260.88 477.05 262.14 475.60 262.64 472.92   C 263.10 470.48 264.87 468.08 265.81 465.72   Q 271.19 452.34 274.65 442.68   C 276.21 438.31 278.53 432.61 281.68 427.75   Q 285.05 422.57 286.57 416.50   A 0.84 0.83 3.9 0 1 287.30 415.87   Q 287.98 415.81 288.33 415.19   Q 291.97 424.36 302.32 427.11   Z"/>
<path fill="#000000" d="   M 640.21 502.14   C 636.70 511.35 624.79 511.05 620.76 502.44   Q 617.90 496.31 614.57 490.96   C 607.02 478.84 593.39 472.25 579.32 476.90   C 567.57 480.79 561.33 490.88 558.18 502.99   C 556.50 509.44 553.85 513.96 546.89 514.40   C 538.47 514.94 534.85 506.61 535.96 499.52   Q 539.62 476.05 556.74 459.85   C 572.79 444.65 595.46 443.02 613.46 455.81   Q 634.39 470.68 641.00 495.56   Q 641.70 498.21 640.21 502.14   Z"/>
<path fill="#000000" d="   M 261.24 486.60   L 261.81 479.96   C 266.12 470.43 279.34 472.26 280.86 482.64   C 281.89 489.65 275.50 494.71 268.67 493.36   Q 263.91 492.41 261.24 486.60   Z   M 276.15 483.54   A 5.04 5.04 0.0 0 0 271.11 478.50   A 5.04 5.04 0.0 0 0 266.07 483.54   A 5.04 5.04 0.0 0 0 271.11 488.58   A 5.04 5.04 0.0 0 0 276.15 483.54   Z"/>
<circle fill="#c7d2d3" cx="271.11" cy="483.54" r="5.04"/>
<path fill="#fcfcfc" d="   M 779.87 493.84   C 766.71 496.75 753.82 505.87 751.19 519.75   A 0.55 0.54 13.5 0 1 750.50 520.17   Q 734.11 515.38 720.62 505.14   Q 716.69 502.16 714.13 498.99   A 0.93 0.93 0.0 0 1 714.30 497.65   C 727.89 487.81 743.86 480.62 760.68 480.57   A 1.95 1.95 0.0 0 1 761.94 481.01   Q 770.05 487.62 779.97 493.10   A 0.40 0.40 0.0 0 1 779.87 493.84   Z"/>
<path fill="#e9f1f3" d="   M 709.26 502.34   A 0.76 0.76 0.0 0 1 710.18 502.47   Q 724.30 516.74 743.49 523.00   Q 746.67 524.04 750.16 525.21   A 0.96 0.95 7.9 0 1 750.80 526.05   C 751.39 537.13 757.79 545.13 765.83 553.24   C 778.12 565.65 793.79 574.69 810.03 581.18   A 0.34 0.33 12.7 0 1 810.24 581.50   Q 808.90 604.79 799.48 625.18   Q 797.69 629.08 790.13 642.16   A 1.95 1.95 0.0 0 1 789.36 642.90   C 775.89 649.90 761.38 655.09 746.38 655.62   C 727.29 656.28 708.43 651.98 692.50 641.03   C 688.17 638.06 686.21 636.42 683.77 632.13   Q 682.68 630.21 678.96 621.53   Q 676.23 615.14 677.35 610.29   C 677.87 608.03 674.57 603.98 673.03 602.43   A 2.56 2.50 -72.4 0 1 672.34 601.06   Q 671.54 595.94 671.49 593.25   C 671.10 571.60 677.31 549.29 687.60 530.08   Q 695.74 514.90 708.03 503.28   Q 708.70 502.65 709.26 502.34   Z"/>
<path fill="#e9f1f3" d="   M 318.79 516.35   Q 304.79 525.30 292.77 536.75   C 282.47 530.79 270.03 526.79 258.23 529.51   Q 251.96 530.96 246.34 533.76   A 0.25 0.25 0.0 0 1 246.03 533.39   C 263.47 511.10 293.18 503.32 318.79 516.35   Z"/>
<path fill="#fb8fa9" d="   M 814.00 513.97   Q 809.74 515.13 805.31 514.89   A 3.44 3.30 38.6 0 0 804.31 514.98   C 800.06 515.97 789.90 515.87 790.17 522.60   C 790.39 528.09 799.10 528.24 802.77 527.78   C 808.88 527.00 816.57 525.11 821.08 520.96   C 827.25 533.33 828.11 549.40 818.77 560.52   A 2.34 2.34 0.0 0 1 816.09 561.18   Q 807.26 557.57 798.83 551.40   C 789.80 544.78 780.72 538.08 774.10 530.07   C 768.63 523.45 778.23 516.52 783.50 514.45   Q 798.83 508.42 814.00 513.97   Z"/>
<path fill="#e9f1f3" d="   M 814.00 513.97   Q 818.59 516.68 821.08 520.96   C 816.57 525.11 808.88 527.00 802.77 527.78   C 799.10 528.24 790.39 528.09 790.17 522.60   C 789.90 515.87 800.06 515.97 804.31 514.98   A 3.44 3.30 38.6 0 1 805.31 514.89   Q 809.74 515.13 814.00 513.97   Z"/>
<path fill="#fcfcfc" d="   M 318.79 516.35   Q 336.04 525.46 347.03 541.51   C 338.44 543.44 330.26 547.64 322.62 551.86   Q 317.95 554.45 314.45 558.57   Q 305.81 545.42 292.77 536.75   Q 304.79 525.30 318.79 516.35   Z"/>
<ellipse fill="#fbc1c8" cx="0.00" cy="0.00" transform="translate(505.21,582.56) rotate(-2.6)" rx="73.16" ry="50.86"/>
<path fill="#c7d2d3" d="   M 317.00 634.94   Q 312.32 635.01 306.92 637.19   Q 302.92 638.80 298.33 638.10   C 307.37 615.24 301.90 587.23 288.59 567.72   C 281.55 557.40 272.44 549.89 259.76 548.77   C 251.26 548.02 244.01 553.60 239.31 560.29   Q 237.22 557.05 236.70 552.98   A 64.64 45.54 75.1 0 1 257.96 537.78   A 64.58 45.47 74.9 0 1 273.77 537.95   A 64.67 45.57 75.1 0 1 293.24 548.26   A 64.49 45.36 75.1 0 1 308.10 566.08   A 64.61 45.52 75.0 0 1 320.64 613.73   A 64.74 45.56 75.1 0 1 317.00 634.94   Z"/>
<path fill="#e9f1f3" d="   M 362.48 636.75   Q 352.99 636.55 343.36 636.64   Q 335.19 636.72 326.91 632.27   Q 329.93 620.58 329.55 608.50   Q 328.70 581.38 314.45 558.57   Q 317.95 554.45 322.62 551.86   C 330.26 547.64 338.44 543.44 347.03 541.51   C 358.38 557.51 364.40 576.41 366.68 595.75   Q 368.99 615.32 362.48 636.75   Z"/>
<path fill="#000000" d="   M 298.33 638.10   Q 296.06 642.44 293.23 646.20   Q 286.75 654.82 276.68 655.15   C 268.79 655.41 259.37 650.13 253.90 644.65   Q 245.90 636.65 240.46 625.51   Q 228.64 601.31 233.20 575.14   Q 234.53 567.51 239.31 560.29   C 244.01 553.60 251.26 548.02 259.76 548.77   C 272.44 549.89 281.55 557.40 288.59 567.72   C 301.90 587.23 307.37 615.24 298.33 638.10   Z   M 240.74 568.33   A 48.98 28.55 75.0 0 0 237.06 586.51   A 48.90 28.61 74.9 0 0 253.40 636.58   A 48.78 28.59 75.0 0 0 269.35 648.50   A 48.90 28.60 74.9 0 0 282.35 648.25   A 48.96 28.64 74.9 0 0 293.45 636.74   A 48.65 28.04 75.4 0 0 296.36 628.38   A 48.93 28.58 74.9 0 0 296.62 601.29   A 48.93 28.61 74.8 0 0 287.56 575.91   A 48.85 28.57 74.9 0 0 273.61 559.40   A 48.80 28.61 75.1 0 0 265.99 555.23   A 48.96 28.65 75.0 0 0 251.05 556.03   A 48.98 28.66 74.9 0 0 240.74 568.33   Z"/>
<path fill="#828e93" d="   M 236.70 552.98   Q 237.22 557.05 239.31 560.29   Q 234.53 567.51 233.20 575.14   Q 228.64 601.31 240.46 625.51   Q 245.90 636.65 253.90 644.65   C 259.37 650.13 268.79 655.41 276.68 655.15   Q 286.75 654.82 293.23 646.20   Q 296.06 642.44 298.33 638.10   Q 302.92 638.80 306.92 637.19   Q 312.32 635.01 317.00 634.94   A 64.60 45.50 75.1 0 1 294.67 661.39   A 64.75 45.61 75.0 0 1 277.59 663.72   A 64.51 45.42 75.0 0 1 258.88 656.35   A 64.62 45.53 75.1 0 1 235.89 628.83   A 64.60 45.53 75.1 0 1 226.73 584.78   A 64.65 45.57 75.0 0 1 236.70 552.98   Z"/>
<path fill="#e9f1f3" d="   M 293.45 636.74   C 285.76 636.12 280.40 633.60 273.61 629.77   Q 268.13 626.68 265.39 623.89   C 256.72 615.05 250.42 604.04 246.94 592.29   Q 244.59 584.37 242.80 574.73   Q 242.28 571.91 240.74 568.33   A 48.98 28.66 74.9 0 1 251.05 556.03   A 48.96 28.65 75.0 0 1 265.99 555.23   A 48.80 28.61 75.1 0 1 273.61 559.40   A 48.85 28.57 74.9 0 1 287.56 575.91   A 48.93 28.61 74.8 0 1 296.62 601.29   A 48.93 28.58 74.9 0 1 296.36 628.38   A 48.65 28.04 75.4 0 1 293.45 636.74   Z"/>
<path fill="#c7d2d3" d="   M 293.45 636.74   A 48.96 28.64 74.9 0 1 282.35 648.25   A 48.90 28.60 74.9 0 1 269.35 648.50   A 48.78 28.59 75.0 0 1 253.40 636.58   A 48.90 28.61 74.9 0 1 237.06 586.51   A 48.98 28.55 75.0 0 1 240.74 568.33   Q 242.28 571.91 242.80 574.73   Q 244.59 584.37 246.94 592.29   C 250.42 604.04 256.72 615.05 265.39 623.89   Q 268.13 626.68 273.61 629.77   C 280.40 633.60 285.76 636.12 293.45 636.74   Z"/>
<path fill="#e9f1f3" d="   M 797.46 639.66   Q 813.71 613.44 814.93 583.05   A 0.60 0.60 0.0 0 1 815.58 582.47   Q 820.91 582.94 825.13 579.77   A 0.27 0.27 0.0 0 1 825.56 580.00   Q 824.42 601.32 816.54 620.27   Q 813.09 628.54 804.28 640.08   A 0.93 0.92 -71.3 0 1 803.54 640.45   L 797.90 640.45   A 0.52 0.52 0.0 0 1 797.46 639.66   Z"/>
<path fill="#c7d2d3" d="   M 362.48 636.75   Q 357.30 656.33 342.49 669.48   C 336.19 675.08 327.48 679.08 318.86 680.59   Q 297.91 684.27 279.11 673.18   A 0.49 0.48 61.3 0 1 279.37 672.28   C 291.78 672.74 303.01 668.73 311.78 660.26   Q 323.00 649.42 326.91 632.27   Q 335.19 636.72 343.36 636.64   Q 352.99 636.55 362.48 636.75   Z"/>
<path fill="#e9f1f3" d="   M 504.73 720.72   Q 495.83 719.72 487.85 717.21   C 489.81 704.07 472.97 700.53 468.79 711.91   Q 431.11 701.02 396.56 682.93   C 388.05 678.47 377.83 671.94 369.80 667.45   Q 368.41 666.68 365.52 666.40   L 371.73 655.45   A 0.48 0.48 0.0 0 1 372.39 655.28   Q 396.43 669.45 423.01 679.21   Q 461.00 693.16 499.50 698.25   A 1.68 1.66 -3.6 0 1 500.89 699.46   Q 503.75 709.88 504.73 720.72   Z"/>
<path fill="#c7d2d3" d="   M 365.52 666.40   Q 368.41 666.68 369.80 667.45   C 377.83 671.94 388.05 678.47 396.56 682.93   Q 431.11 701.02 468.79 711.91   C 466.19 720.88 474.86 728.20 483.10 723.52   Q 486.75 721.45 487.85 717.21   Q 495.83 719.72 504.73 720.72   Q 506.58 743.10 502.52 765.18   A 0.28 0.27 -81.7 0 1 502.23 765.40   Q 459.09 761.91 416.76 750.25   C 382.18 740.73 348.86 726.80 318.42 707.10   Q 310.07 701.70 302.46 695.30   A 0.28 0.28 0.0 0 1 302.65 694.81   Q 342.22 697.13 365.52 666.40   Z"/>
<path fill="#c7d2d3" d="   M 775.60 682.04   Q 765.99 694.37 759.23 700.98   Q 732.33 727.30 696.71 742.22   C 672.61 752.32 646.43 759.11 620.20 762.86   Q 564.93 770.76 508.42 766.14   A 0.80 0.79 7.5 0 1 507.70 765.21   Q 511.38 744.38 509.86 722.07   Q 522.33 724.16 527.31 724.85   Q 549.14 727.89 564.51 728.71   Q 589.80 730.06 612.25 728.64   C 632.16 727.37 654.30 724.84 674.88 720.23   Q 694.66 715.80 708.64 710.91   Q 729.36 703.67 749.29 694.54   Q 751.78 693.40 757.31 689.88   Q 765.63 684.60 775.60 682.04   Z"/>
<path fill="#000000" d="   M 487.85 717.21   Q 486.75 721.45 483.10 723.52   C 474.86 728.20 466.19 720.88 468.79 711.91   C 472.97 700.53 489.81 704.07 487.85 717.21   Z   M 483.14 715.06   A 4.82 4.82 0.0 0 0 478.32 710.24   A 4.82 4.82 0.0 0 0 473.50 715.06   A 4.82 4.82 0.0 0 0 478.32 719.88   A 4.82 4.82 0.0 0 0 483.14 715.06   Z"/>
<circle fill="#c7d2d3" cx="478.32" cy="715.06" r="4.82"/>
<path fill="#828e93" d="   M 314.75 730.45   L 314.75 726.77   A 0.47 0.46 15.0 0 1 315.45 726.37   Q 335.13 737.72 345.80 742.72   Q 381.51 759.43 422.25 770.10   Q 436.02 773.70 446.28 775.49   C 454.86 776.99 468.15 779.98 478.61 781.23   C 510.69 785.05 540.24 787.37 570.51 786.00   Q 591.40 785.05 613.81 782.81   Q 621.28 782.06 627.54 780.93   A 1.34 1.34 0.0 0 1 629.11 782.05   Q 629.33 783.50 628.05 783.88   Q 627.41 784.07 627.40 784.08   Q 610.95 790.91 587.56 794.37   Q 568.71 797.16 564.72 797.44   C 534.31 799.62 503.23 797.89 473.35 791.35   C 462.36 788.94 450.64 787.07 439.13 783.52   Q 411.70 775.06 397.24 770.00   Q 361.06 757.33 328.78 740.25   Q 322.21 736.77 315.35 731.65   A 1.50 1.50 0.0 0 1 314.75 730.45   Z"/>
<path fill="#c7d2d3" d="   M 405.84 794.51   Q 403.99 799.13 403.53 805.91   Q 347.95 784.26 298.90 750.76   A 0.57 0.56 43.4 0 1 298.87 749.85   L 307.07 743.38   A 0.52 0.51 -47.8 0 1 307.67 743.35   Q 319.13 750.89 336.12 760.31   Q 370.57 779.40 405.84 794.51   Z"/>
<path fill="#c7d2d3" d="   M 403.68 811.63   Q 403.94 839.36 400.55 864.28   Q 398.55 878.98 397.65 885.78   C 396.95 891.13 395.57 896.41 394.47 901.81   L 367.34 897.71   A 0.52 0.52 0.0 0 1 366.92 897.03   Q 369.66 888.61 371.08 881.62   C 377.48 850.19 369.19 815.16 344.03 793.35   Q 316.69 769.65 278.55 776.12   A 0.33 0.33 0.0 0 1 278.22 775.61   Q 286.24 763.40 294.45 754.59   A 0.51 0.50 38.3 0 1 295.10 754.52   Q 308.95 764.08 328.22 775.20   Q 365.33 796.60 403.68 811.63   Z"/>
<path fill="#828e93" d="   M 406.97 779.60   Q 406.41 779.45 406.33 779.37   A 0.31 0.31 0.0 0 1 406.60 778.85   Q 406.86 778.89 407.19 779.25   A 0.22 0.22 0.0 0 1 406.97 779.60   Z"/>
<path fill="#828e93" d="   M 407.84 779.44   Q 420.04 783.39 421.49 783.78   Q 433.19 786.91 444.84 790.30   C 462.24 795.37 477.11 797.45 494.91 800.12   C 524.71 804.59 554.06 803.94 584.39 800.11   C 600.66 798.06 616.90 793.40 631.45 788.38   A 0.54 0.54 0.0 0 1 632.15 788.75   C 633.21 792.62 634.27 798.34 632.97 802.07   C 630.97 807.86 624.84 811.02 619.28 813.26   Q 606.01 818.62 590.02 820.52   Q 560.29 824.03 527.99 817.98   Q 502.94 813.28 480.55 806.92   Q 470.43 804.04 460.76 800.44   C 452.15 797.22 443.24 794.75 434.55 791.19   Q 420.74 785.55 407.71 779.84   A 0.23 0.22 -69.0 0 1 407.59 779.56   L 407.60 779.55   A 0.19 0.18 18.9 0 1 407.84 779.44   Z"/>
<path fill="#e9f1f3" d="   M 403.53 805.91   Q 403.99 799.13 405.84 794.51   C 420.99 800.63 436.44 806.94 451.33 811.88   C 473.58 819.25 495.37 825.80 518.86 830.37   C 550.88 836.59 579.49 837.98 609.75 831.01   C 629.06 826.57 650.92 815.58 648.42 792.12   C 648.10 789.07 646.97 785.80 646.52 783.39   A 0.46 0.46 0.0 0 1 647.09 782.86   Q 647.60 783.00 648.44 783.55   Q 658.36 790.10 665.95 800.13   A 1.18 1.17 -56.5 0 1 666.15 801.13   C 657.74 834.10 615.07 843.35 585.51 844.56   Q 545.62 846.20 504.91 837.33   Q 482.74 832.50 461.97 826.45   Q 431.99 817.72 403.53 805.91   Z"/>
<path fill="#e9f1f3" d="   M 353.55 836.04   Q 351.31 840.20 351.34 843.75   Q 351.36 847.53 350.97 850.26   Q 349.29 862.00 345.44 873.16   Q 345.24 873.75 343.20 880.64   Q 341.28 887.12 336.72 892.05   L 299.17 882.17   A 0.60 0.60 0.0 0 1 298.81 881.27   C 309.43 864.13 313.70 840.74 301.05 823.72   Q 290.10 808.98 271.21 811.55   Q 262.39 812.75 254.88 818.21   Q 236.61 831.47 231.43 853.81   A 1.10 1.09 21.4 0 1 229.82 854.51   L 219.59 848.60   A 0.91 0.91 0.0 0 1 219.17 847.58   Q 219.54 846.27 220.24 844.76   C 235.50 811.86 270.24 781.62 309.48 791.51   C 331.51 797.06 347.30 814.44 353.55 836.04   Z"/>
<path fill="#e9f1f3" d="   M 689.97 879.54   C 687.02 865.80 683.16 851.87 677.09 839.58   C 674.81 834.97 671.45 830.37 666.25 829.55   C 657.52 828.16 652.92 836.22 654.46 843.85   Q 655.79 850.45 658.49 860.27   Q 660.44 867.31 664.26 888.78   Q 656.42 891.20 648.67 892.89   C 592.64 905.09 535.55 909.30 478.98 908.10   A 0.69 0.69 0.0 0 1 478.31 907.36   Q 480.82 871.64 476.57 836.36   A 0.39 0.38 3.6 0 1 477.05 835.94   Q 510.12 844.39 531.81 847.11   C 559.22 850.55 587.20 851.28 614.67 845.89   C 633.96 842.11 651.18 834.38 663.34 818.85   Q 668.07 812.81 669.94 805.51   A 0.23 0.22 33.2 0 1 670.34 805.43   C 679.42 817.03 685.71 830.01 691.20 843.62   Q 696.94 857.83 700.17 873.51   A 0.55 0.55 0.0 0 1 699.90 874.11   L 689.97 879.54   Z"/>
<path fill="#e9f1f3" d="   M 403.68 811.63   Q 416.34 816.50 427.53 820.60   Q 450.50 829.03 470.73 834.09   A 0.78 0.78 0.0 0 1 471.32 834.76   Q 475.77 871.12 473.41 907.41   A 0.58 0.57 2.1 0 1 472.82 907.95   Q 433.29 906.81 394.47 901.81   C 395.57 896.41 396.95 891.13 397.65 885.78   Q 398.55 878.98 400.55 864.28   Q 403.94 839.36 403.68 811.63   Z"/>
<path fill="#c7d2d3" d="   M 291.29 878.67   A 1.24 1.23 -62.8 0 1 289.91 879.12   Q 262.59 870.29 238.32 858.34   A 0.85 0.85 0.0 0 1 237.86 857.41   C 241.60 838.77 257.00 817.08 278.47 818.20   C 288.99 818.75 296.74 826.79 299.62 836.70   C 303.85 851.27 299.92 866.70 291.29 878.67   Z"/>
<path fill="#fcfcfc" d="   M 689.97 879.54   Q 677.41 885.18 664.26 888.78   Q 660.44 867.31 658.49 860.27   Q 655.79 850.45 654.46 843.85   C 652.92 836.22 657.52 828.16 666.25 829.55   C 671.45 830.37 674.81 834.97 677.09 839.58   C 683.16 851.87 687.02 865.80 689.97 879.54   Z"/>
<path fill="#c7d2d3" d="   M 336.72 892.05   Q 341.28 887.12 343.20 880.64   Q 345.24 873.75 345.44 873.16   Q 349.29 862.00 350.97 850.26   Q 351.36 847.53 351.34 843.75   Q 351.31 840.20 353.55 836.04   Q 356.49 843.75 357.06 852.75   C 357.99 867.17 356.93 880.92 351.36 894.39   A 0.66 0.64 -72.5 0 1 350.63 894.78   L 336.72 892.05   Z"/>
</svg>