<svg xmlns="http://www.w3.org/2000/svg" width="24" height="24" viewBox="0 0 24 24"><rect width="24" height="24" fill="none"/><g fill="none"><path d="m12.593 23.258l-.011.002l-.071.035l-.02.004l-.014-.004l-.071-.035q-.016-.005-.024.005l-.004.01l-.017.428l.005.02l.01.013l.104.074l.015.004l.012-.004l.104-.074l.012-.016l.004-.017l-.017-.427q-.004-.016-.017-.018m.265-.113l-.013.002l-.185.093l-.01.01l-.003.011l.018.43l.005.012l.008.007l.201.093q.019.005.029-.008l.004-.014l-.034-.614q-.005-.018-.02-.022m-.715.002a.02.02 0 0 0-.027.006l-.006.014l-.034.614q.001.018.017.024l.015-.002l.201-.093l.01-.008l.004-.011l.017-.43l-.003-.012l-.01-.01z"/><path fill="#f97316" d="M3.868 4.368a7 7 0 0 1 11.74 6.656l-.069.256l3.4 4.372a2.7 2.7 0 0 1 .387 2.632c.1.03.222.046.372.016l.118-.031a1 1 0 0 1 .632 1.897a2.77 2.77 0 0 1-2.546-.389a2.7 2.7 0 0 1-2.586-.22l-.164-.117l-4.372-3.401a7 7 0 0 1-6.911-11.67ZM14.577 13.3a7 7 0 0 1-1.777 1.777l3.58 2.784a.7.7 0 0 0 .98-.981zM12.92 6.459l-.203.336a20 20 0 0 1-2.84 3.584a20 20 0 0 1-3.583 2.839l-.336.203a5.001 5.001 0 0 0 6.962-6.962m-1.498-1.41a5.002 5.002 0 0 0-6.874 6.874l.324-.183a18 18 0 0 0 3.592-2.775a18 18 0 0 0 2.552-3.223l.116-.19l.203-.347z"/></g></svg>